<?xml version="1.0" standalone="no"?>
<!DOCTYPE svg PUBLIC "-//W3C//DTD SVG 1.1//EN" "http://www.w3.org/Graphics/SVG/1.1/DTD/svg11.dtd" >
<svg>
<metadata>
Created by FontForge 20090914 at Sat Dec 31 00:02:00 2022
 By www-data
Copyright (c) 2021-2022, Dmitri Voloshin, Andrey Kudryavtsev
</metadata>
<defs>
<font id="Onest-Medium" horiz-adv-x="664" >
  <font-face 
    font-family="Onest Medium"
    font-weight="500"
    font-stretch="normal"
    units-per-em="1000"
    panose-1="0 0 0 0 0 0 0 0 0 0"
    ascent="800"
    descent="-200"
    x-height="526.999"
    cap-height="707"
    bbox="-74 -306.003 2848 965"
    underline-thickness="50"
    underline-position="-50"
    unicode-range="U+000D-U+E022"
  />
<missing-glyph horiz-adv-x="189" 
 />
    <glyph glyph-name=".notdef" horiz-adv-x="189" 
 />
    <glyph glyph-name=".null" horiz-adv-x="0" 
 />
    <glyph glyph-name=".null" horiz-adv-x="0" 
 />
    <glyph glyph-name="uni000D" unicode="&#xd;" horiz-adv-x="190" 
 />
    <glyph glyph-name="space" unicode=" " horiz-adv-x="270" 
 />
    <glyph glyph-name="exclam" unicode="!" horiz-adv-x="290" 
d="M96 225l-13 482h123l-13 -482h-97zM145 137c22 0 39.667 -6.83301 53 -20.5s20 -31.5 20 -53.5c0 -21.333 -6.83301 -38.5 -20.5 -51.5s-31.167 -19.5 -52.5 -19.5c-22 0 -39.667 6.33301 -53 19s-20 30 -20 52s6.66699 39.833 20 53.5s31 20.5 53 20.5z" />
    <glyph glyph-name="quotedbl" unicode="&#x22;" horiz-adv-x="389" 
d="M152 455h-85l-13 252h111zM321 455h-85l-13 252h112z" />
    <glyph glyph-name="numbersign" unicode="#" horiz-adv-x="658" 
d="M190 531c2 15.333 3.66699 30.332 5 44.999l9 87c2 14.667 3.66699 29.334 5 44.001h100l-20 -176h119l20 176h100l-19 -176h95v-98h-106l-18 -160h95v-98h-106l-20 -175h-100l20 175h-120l-19 -175h-101l20 175h-95v98h106l18 160h-95v98h107zM260 272.999h120l17 160
h-119z" />
    <glyph glyph-name="dollar" unicode="$" 
d="M283 846l108 0.00195312v-134c58 -6.66699 105.167 -27.167 141.5 -61.5s56.166 -82.166 59.499 -143.499h-110c-2.66699 20 -8.33398 36.667 -17.001 50s-19.667 24.166 -33 32.499s-28.5 14.333 -45.5 18s-35.833 5.5 -56.5 5.5c-13.333 0 -28 -1 -44 -3
s-30.333 -6.33301 -43 -13c-13.333 -6.66699 -24.333 -16.167 -33 -28.5s-13 -27.5 -13 -45.5c0 -23.333 5.33301 -42 16 -56s24.5 -25.167 41.5 -33.5s36 -14.666 57 -18.999l62.5 -12.5c33.333 -6 64.333 -13 93 -21s53.5 -19.333 74.5 -34s37.5 -33.334 49.5 -56.001
s18 -51.334 18 -86.001c0 -35.333 -6 -65.833 -18 -91.5s-28.167 -47 -48.5 -64s-44 -30 -71 -39s-55.5 -14.5 -85.5 -16.5v-131h-107v134c-31.333 4 -60.166 11.5 -86.499 22.5s-49.333 25.5 -69 43.5s-35.5 39.167 -47.5 63.5s-19.333 52.166 -22 83.499h116
c4 -21.333 12 -39.166 24 -53.499s26.333 -25.833 43 -34.5s34.667 -14.834 54 -18.501s38.333 -5.5 57 -5.5c18 0 35.667 1.5 53 4.5s32.833 8.33301 46.5 16s24.834 18 33.501 31s13 29.167 13 48.5c0 22.667 -6.5 40.167 -19.5 52.5s-29.333 22 -49 29
s-41 12.167 -64 15.5s-44.5 7.33301 -64.5 12c-32 6.66699 -61.333 15.167 -88 25.5s-49.834 23.5 -69.501 39.5s-35 35.333 -46 58s-16.5 50 -16.5 82s5.83301 60 17.5 84s27 44.167 46 60.5s40.833 29 65.5 38s50.334 15.167 77.001 18.5v133z" />
    <glyph glyph-name="percent" unicode="%" horiz-adv-x="835" 
d="M213 389c-26 0 -48.833 4.33301 -68.5 13s-36.334 20.334 -50.001 35.001s-23.834 32 -30.501 52s-10 41.667 -10 65c0 48 13.5 87.5 40.5 118.5s66.5 46.5 118.5 46.5c50.667 0 89.5 -15.5 116.5 -46.5s40.5 -70.5 40.5 -118.5c0 -23.333 -3.5 -45 -10.5 -65
s-17.167 -37.333 -30.5 -52s-29.666 -26.334 -48.999 -35.001s-41.666 -13 -66.999 -13zM136 0l444 707h114l-444 -707h-114zM213 632c-25.333 0 -43 -7.83496 -53 -23.502s-15 -33.834 -15 -54.501c0 -21.333 5 -39.666 15 -54.999s27.667 -23 53 -23
c24 0 40.667 7.83301 50 23.5s14 33.834 14 54.501s-4.66699 38.834 -14 54.501s-26 23.5 -50 23.5zM623 -11.002c-26 0 -48.8311 4.33301 -68.498 13s-36.334 20.334 -50.001 35.001s-23.834 32 -30.501 52s-10 41.667 -10 65c0 48 13.5 87.5 40.5 118.5
s66.5 46.5 118.5 46.5c50.667 0 89.667 -15.5 117 -46.5s41 -70.5 41 -118.5c0 -23.333 -3.5 -45 -10.5 -65s-17.167 -37.333 -30.5 -52s-29.833 -26.334 -49.5 -35.001s-42.167 -13 -67.5 -13zM622.002 231.998c-24 0 -41.167 -7.66992 -51.5 -23.0029
s-15.5 -33.666 -15.5 -54.999s5.16699 -39.666 15.5 -54.999s27.5 -23 51.5 -23c24.667 0 41.667 7.83301 51 23.5s14 33.834 14 54.501c0 10.667 -1 20.667 -3 30s-5.5 17.5 -10.5 24.5s-11.667 12.667 -20 17s-18.833 6.5 -31.5 6.5z" />
    <glyph glyph-name="ampersand" unicode="&#x26;" horiz-adv-x="694" 
d="M481 55c-26.667 -23.333 -56.4971 -40.3301 -89.4971 -50.9971s-69.833 -16 -110.5 -16c-30 0 -58.333 4.33301 -85 13s-49.834 21.167 -69.501 37.5s-35.334 36.666 -47.001 60.999s-17.5 52.166 -17.5 83.499c0 46 12.5 84.667 37.5 116s57.5 57.666 97.5 78.999
c-22.667 22 -40.5 45.667 -53.5 71s-19.5 52.666 -19.5 81.999c0 28.667 5 54.334 15 77.001s23.667 41.834 41 57.501s37.666 27.5 60.999 35.5s48.666 12 75.999 12c24.667 0 48 -3.5 70 -10.5s41.333 -17.333 58 -31s29.667 -30.5 39 -50.5s14 -43 14 -69
c0 -21.333 -4 -41.5 -12 -60.5s-18.5 -36.5 -31.5 -52.5s-28.333 -30.667 -46 -44s-35.834 -25.333 -54.501 -36l130 -151c9.33301 17.333 16.833 35.666 22.5 54.999s9.83398 39 12.501 59h104c-3.33301 -33.333 -10.666 -65.833 -21.999 -97.5s-27 -62.167 -47 -91.5
l121 -133h-143zM289.003 425.003c10 6 20.998 13 32.998 21s23.333 17 34 27s19.5 20.667 26.5 32s10.5 23.333 10.5 36c0 23.333 -7.16699 41.833 -21.5 55.5s-33.166 20.5 -56.499 20.5c-25.333 0 -46.166 -6.66699 -62.499 -20s-24.5 -33 -24.5 -59
c0 -12 1.83301 -23.333 5.5 -34s8.5 -20.5 14.5 -29.5s12.667 -17.5 20 -25.5zM258.001 307.003c-24 -13.333 -44.5 -29.5 -61.5 -48.5s-25.5 -42.167 -25.5 -69.5c0 -18 3.66699 -33.5 11 -46.5s17 -23.667 29 -32s25.5 -14.5 40.5 -18.5s30.5 -6 46.5 -6
c21.333 0 42.333 3.5 63 10.5s39.667 17.5 57 31.5z" />
    <glyph glyph-name="quotesingle" unicode="'" horiz-adv-x="235" 
d="M160 455h-85l-13 252h111z" />
    <glyph glyph-name="parenleft" unicode="(" horiz-adv-x="324" 
d="M359 813c-33.333 -40.667 -61.6641 -81.835 -84.9971 -123.502s-42.333 -83.834 -57 -126.501s-25.334 -85.667 -32.001 -129s-10.334 -86.666 -11.001 -129.999c1.33301 -88 16 -174.167 44 -258.5s74.667 -167.166 140 -248.499h-128
c-28.667 36 -53.667 74.5 -75 115.5s-39 83.333 -53 127s-24.5 87.834 -31.5 132.501s-10.5 88.667 -10.5 132s3.5 87.5 10.5 132.5s17.667 89.5 32 133.5s32.166 86.5 53.499 127.5s46.333 79.5 75 115.5h128z" />
    <glyph glyph-name="parenright" unicode=")" horiz-adv-x="324" 
d="M-35 -203c66 81.333 112.999 164.5 140.999 249.5s42.667 171.167 44 258.5c-1.33301 88 -16 174.333 -44 259s-74.667 167.667 -140 249h127c28.667 -36 53.667 -74.5 75 -115.5s39.166 -83.333 53.499 -127s25 -88 32 -133s10.5 -89.167 10.5 -132.5
s-3.66699 -87.5 -11 -132.5s-18.166 -89.333 -32.499 -133s-32.166 -86 -53.499 -127s-46.333 -79.5 -75 -115.5h-127z" />
    <glyph glyph-name="asterisk" unicode="*" horiz-adv-x="441" 
d="M259 729v-99l94 31l24 -74l-95 -31l60 -81l-63 -46l-59 81l-58 -80l-64 46l63 83l-97 30l23 72l94 -31v99h78z" />
    <glyph glyph-name="plus" unicode="+" horiz-adv-x="564" 
d="M69 406h164v167h97v-167h165v-98h-165v-168h-97v168h-164v98z" />
    <glyph glyph-name="comma" unicode="," horiz-adv-x="283" 
d="M134 -8c-20 1.33301 -36.499 8.16797 -49.499 20.501s-19.5 29.166 -19.5 50.499c0 23.333 7.33301 41.166 22 53.499s31 18.5 49 18.5h6c30 -2 50.667 -12.667 62 -32s17 -39.666 17 -60.999v-10c0 -19.333 -3.66699 -38.5 -11 -57.5s-17 -36.833 -29 -53.5
s-25.667 -31.167 -41 -43.5s-31.333 -21.166 -48 -26.499l-30 41c16 11.333 30.667 25.666 44 42.999s22.666 36.333 27.999 57z" />
    <glyph glyph-name="hyphen" unicode="-" horiz-adv-x="457" 
d="M69 335h319v-98h-319v98z" />
    <glyph glyph-name="period" unicode="." horiz-adv-x="270" 
d="M135 139c21.333 0 38.833 -6.66699 52.5 -20s20.5 -31.333 20.5 -54c0 -23.333 -6.83301 -41.333 -20.5 -54s-31.167 -19 -52.5 -19s-38.833 6.33301 -52.5 19s-20.5 30.667 -20.5 54c0 22.667 6.83301 40.667 20.5 54s31.167 20 52.5 20z" />
    <glyph glyph-name="slash" unicode="/" horiz-adv-x="486" 
d="M339 792h113l-306 -961h-112z" />
    <glyph glyph-name="zero" unicode="0" horiz-adv-x="657" 
d="M606 354c0 -54 -5.50098 -103.169 -16.501 -147.502s-28 -82.166 -51 -113.499s-51.833 -55.666 -86.5 -72.999s-75.667 -26 -123 -26s-88.333 8.5 -123 25.5s-63.334 40.833 -86.001 71.5s-39.667 67.667 -51 111s-17 91.666 -17 144.999
c0 54.667 5.33301 104.667 16 150s27.334 84.333 50.001 117s51.5 57.834 86.5 75.501s76.5 26.5 124.5 26.5c46.667 0 87.334 -8.66699 122.001 -26s63.5 -42 86.5 -74s40.167 -70.167 51.5 -114.5s17 -93.5 17 -147.5zM166.999 353.998c0 -36.667 2.66699 -70.667 8 -102
s14.333 -58.5 27 -81.5s29.334 -41 50.001 -54s46.334 -19.5 77.001 -19.5c30 0 55.333 6.5 76 19.5s37.334 31 50.001 54s21.667 50.167 27 81.5s8 65.333 8 102c0 36 -2.66699 69.833 -8 101.5s-14.333 59 -27 82s-29.334 41.167 -50.001 54.5s-46 20 -76 20
c-30.667 0 -56.334 -6.66699 -77.001 -20s-37.334 -31.5 -50.001 -54.5s-21.667 -50.333 -27 -82s-8 -65.5 -8 -101.5z" />
    <glyph glyph-name="one" unicode="1" horiz-adv-x="382" 
d="M280 0h-116v544h-144v79c39.333 1.33301 74 7.83301 104 19.5s53.667 33.167 71 64.5h85v-707z" />
    <glyph glyph-name="two" unicode="2" horiz-adv-x="551" 
d="M220 264l53.498 45.999c19.667 16.667 38.334 34.167 56.001 52.5s32.334 38.166 44.001 59.499s17.5 44.333 17.5 69c0 36 -10.667 65 -32 87s-52 33 -92 33c-32 0 -59 -7.33301 -81 -22s-35.667 -34.334 -41 -59.001h-114c2.66699 30.667 11.167 58 25.5 82
s32.5 43.667 54.5 59s46.167 26.5 72.5 33.5s56.5 10.5 90.5 10.5c32 0 62 -4.33301 90 -13s52.5 -21.667 73.5 -39s37.667 -39.166 50 -65.499s18.5 -57.166 18.5 -92.499c0 -28 -3.66699 -53.667 -11 -77s-17.333 -45 -30 -65s-27.167 -38.667 -43.5 -56
s-33.5 -33.666 -51.5 -48.999l-63.5 -53.5l-49.5 -40.5l-40 -32.5l-34 -28.5h323v-103h-481v95z" />
    <glyph glyph-name="three" unicode="3" horiz-adv-x="604" 
d="M294 -7c-32.667 0 -64.002 3.50488 -94.002 10.5049s-56.833 18 -80.5 33s-43.667 34.5 -60 58.5s-26.833 53 -31.5 87h117c5.33301 -17.333 13.333 -31.333 24 -42s22.834 -19.334 36.501 -26.001s28.167 -11.167 43.5 -13.5s30.333 -3.5 45 -3.5
c15.333 0 31.333 1.5 48 4.5s31.834 8.5 45.501 16.5s25 19.167 34 33.5s13.5 33.166 13.5 56.499c0 21.333 -4.16699 38.666 -12.5 51.999s-19.333 23.666 -33 30.999s-29 12.333 -46 15s-34.167 4 -51.5 4h-70v98h41c16 0 32.667 1.66699 50 5s33.166 9 47.499 17
s26 18.667 35 32s13.5 30 13.5 50c0 19.333 -3.33301 35.5 -10 48.5s-15.667 23.333 -27 31s-24.166 13 -38.499 16s-29.5 4.5 -45.5 4.5c-27.333 0 -53 -6.16699 -77 -18.5s-39.667 -33.833 -47 -64.5h-114c4 32.667 13 60.834 27 84.501s32 43 54 58
s46.833 26.167 74.5 33.5s56.834 11 87.501 11c30 0 58.833 -3.33301 86.5 -10s52.167 -17.334 73.5 -32.001s38.333 -33.834 51 -57.501s19 -52.5 19 -86.5c0 -28 -6.83301 -55.667 -20.5 -83s-38.834 -50.333 -75.501 -69c42 -11.333 73.333 -31.833 94 -61.5
s31 -65.5 31 -107.5c0 -38.667 -7.16699 -71.5 -21.5 -98.5s-33 -49.333 -56 -67s-50.167 -30.5 -81.5 -38.5s-64.333 -12 -99 -12z" />
    <glyph glyph-name="four" unicode="4" horiz-adv-x="630" 
d="M517 707v-469h81v-102h-81v-136h-115v136h-365v83l331 488h149zM171 238h231v346z" />
    <glyph glyph-name="five" unicode="5" horiz-adv-x="614" 
d="M73 311l38 396.002h426v-103h-329l-20 -184c19.333 12.667 40.166 22.5 62.499 29.5s49.166 10.5 80.499 10.5c35.333 0 67.333 -5.16699 96 -15.5s53.334 -25.166 74.001 -44.499s36.5 -43 47.5 -71s16.5 -59.667 16.5 -95c0 -38 -6.66699 -72 -20 -102
s-31.666 -55.333 -54.999 -76s-50.666 -36.5 -81.999 -47.5s-65.333 -16.5 -102 -16.5c-31.333 0 -60.833 3.66699 -88.5 11s-52.667 18.666 -75 33.999s-41 35.166 -56 59.499s-24.833 53.166 -29.5 86.499h115c4 -14 10.5 -26.333 19.5 -37s19.5 -19.667 31.5 -27
s25 -12.833 39 -16.5s28 -5.5 42 -5.5c20 0 38.667 2.5 56 7.5s32.5 12.833 45.5 23.5s23.167 24.167 30.5 40.5s11 36.166 11 59.499c0 42.667 -12.5 75.334 -37.5 98.001s-57.833 34 -98.5 34c-25.333 0 -48.333 -4.33301 -69 -13s-39.334 -20.667 -56.001 -36h-113z" />
    <glyph glyph-name="six" unicode="6" horiz-adv-x="620" 
d="M163 374c22 28 48.332 48.665 78.999 61.998s63.334 20 98.001 20s66.334 -5.33301 95.001 -16s53 -25.667 73 -45s35.5 -43.166 46.5 -71.499s16.5 -59.833 16.5 -94.5c0 -35.333 -6.16699 -67.333 -18.5 -96s-29.5 -53.334 -51.5 -74.001s-47.667 -36.667 -77 -48
s-61 -17 -95 -17c-50.667 0 -93.5 9.16699 -128.5 27.5s-63.333 42.666 -85 72.999s-37.334 65.666 -47.001 105.999s-14.834 82.5 -15.501 126.5c0 30 1.83301 60 5.5 90s9.66699 58.833 18 86.5s19.333 53.834 33 78.501s30.5 46.667 50.5 66c21.333 20.667 47 37 77 49
s64.333 18 103 18c58 0 107.667 -14.333 149 -43s67.666 -72.667 78.999 -132h-116c-9.33301 24.667 -24.666 42.834 -45.999 54.501s-44.666 17.5 -69.999 17.5c-21.333 0 -40.833 -3.66699 -58.5 -11s-33.167 -17.666 -46.5 -30.999c-12 -12 -22.333 -25.667 -31 -41
s-15.667 -31.666 -21 -48.999s-9.33301 -35 -12 -53s-4 -35.667 -4 -53zM454.999 220.998c0 40 -11.834 72.167 -35.501 96.5s-55.5 36.5 -95.5 36.5c-18.667 0 -36.167 -3.16699 -52.5 -9.5s-30.666 -15.166 -42.999 -26.499s-22 -25 -29 -41s-10.5 -33.333 -10.5 -52
c0 -17.333 3.33301 -33.833 10 -49.5s16 -29.334 28 -41.001s26.167 -21 42.5 -28s34.166 -10.5 53.499 -10.5c38.667 0 70.334 11.5 95.001 34.5s37 53.167 37 90.5z" />
    <glyph glyph-name="seven" unicode="7" horiz-adv-x="507" 
d="M85 0l273 603h-351v104h482v-90l-275 -617h-129z" />
    <glyph glyph-name="eight" unicode="8" horiz-adv-x="621" 
d="M569 198c0 -38.667 -7.5 -71.166 -22.5 -97.499s-34.667 -47.5 -59 -63.5s-51.833 -27.5 -82.5 -34.5s-62 -10.5 -94 -10.5c-32.667 0 -64.5 3.66699 -95.5 11s-58.667 19.166 -83 35.499s-43.833 37.5 -58.5 63.5s-22 58 -22 96c0 40.667 9.16699 76 27.5 106
s47.5 52.667 87.5 68c-17.333 8.66699 -31.833 19 -43.5 31s-21 24.833 -28 38.5s-12 27.834 -15 42.501s-4.5 28.667 -4.5 42c0 34 6.5 63 19.5 87s30.5 43.667 52.5 59s47.167 26.5 75.5 33.5s57.833 10.5 88.5 10.5c30 0 59.167 -3.5 87.5 -10.5s53.333 -18.167 75 -33.5
s39 -35 52 -59s19.5 -53 19.5 -87c0 -13.333 -1.66699 -27.333 -5 -42s-8.5 -28.667 -15.5 -42s-16.5 -26 -28.5 -38s-26.333 -22 -43 -30c40 -15.333 69.167 -38.333 87.5 -69s27.5 -66.334 27.5 -107.001zM311 614.001c-16 0 -31.333 -1.83398 -46 -5.50098
s-27.5 -9.5 -38.5 -17.5s-19.667 -18.5 -26 -31.5s-9.5 -28.5 -9.5 -46.5c0 -36 11.5 -62.5 34.5 -79.5s51.5 -25.5 85.5 -25.5c16 0 31.333 2 46 6s27.334 10.167 38.001 18.5s19.167 18.833 25.5 31.5s9.5 27.667 9.5 45c0 18.667 -3.16699 34.667 -9.5 48
s-14.833 24.333 -25.5 33s-23.334 14.834 -38.001 18.501s-30 5.5 -46 5.5zM310 315c-18 0 -35.501 -2 -52.501 -6s-32.167 -10.333 -45.5 -19s-24 -20 -32 -34s-12 -31 -12 -51c0 -22 4.66699 -40.167 14 -54.5s21 -25.666 35 -33.999s29.333 -14.166 46 -17.499
s32.667 -5 48 -5s31.333 1.66699 48 5s31.834 9.16602 45.501 17.499s25 19.666 34 33.999s13.5 32.5 13.5 54.5c0 20 -4 37 -12 51s-18.667 25.333 -32 34s-28.5 15 -45.5 19s-34.5 6 -52.5 6z" />
    <glyph glyph-name="nine" unicode="9" horiz-adv-x="619" 
d="M458 338c-10 -15.333 -21.666 -28.333 -34.999 -39s-27.833 -19.5 -43.5 -26.5s-32.167 -12.167 -49.5 -15.5s-34.666 -5 -51.999 -5c-33.333 0 -63.833 5.16699 -91.5 15.5s-51.834 25.166 -72.501 44.499s-36.667 43 -48 71s-17 59.667 -17 95c0 36 6.5 68.667 19.5 98
s30.667 54.166 53 74.499s48.666 36 78.999 47s63.166 16.5 98.499 16.5c49.333 0.666992 92.166 -10.166 128.499 -32.499s64.333 -50.333 84 -84s33.667 -72 42 -115s13.166 -86.167 14.499 -129.5c0 -45.333 -4.33301 -89.666 -13 -132.999s-23.5 -81.833 -44.5 -115.5
s-49.167 -60.667 -84.5 -81s-79.666 -30.5 -132.999 -30.5c-29.333 0 -57.166 3.5 -83.499 10.5s-50.166 17.667 -71.499 32s-39.333 32.333 -54 54s-24.334 47.5 -29.001 77.5h119c8.66699 -24 24.334 -41.833 47.001 -53.5s46.667 -17.5 72 -17.5
c20 0 37.667 2.83301 53 8.5s29 13.167 41 22.5s22.333 20.5 31 33.5s15.667 26.833 21 41.5c8.66699 22 14 44.5 16 67.5s3 45.833 3 68.5zM165.001 485c0 -40.667 11.832 -72.666 35.499 -95.999s55.5 -35 95.5 -35c18 0 35.167 2.83301 51.5 8.5s30.5 13.667 42.5 24
s21.5 23 28.5 38s10.833 31.5 11.5 49.5c0 18.667 -3 36.334 -9 53.001s-14.667 31.167 -26 43.5s-25.166 22.166 -41.499 29.499s-34.5 11 -54.5 11c-38.667 0 -70.5 -11.333 -95.5 -34s-37.833 -53.334 -38.5 -92.001z" />
    <glyph glyph-name="colon" unicode=":" horiz-adv-x="270" 
d="M135 496c22 0 39.667 -6.83301 53 -20.5s20 -31.5 20 -53.5c0 -23.333 -6.83301 -41.333 -20.5 -54s-31.167 -19 -52.5 -19c-22 0 -39.667 6.33301 -53 19s-20 30.667 -20 54c0 22 6.66699 39.833 20 53.5s31 20.5 53 20.5zM135 138c22 0 39.667 -6.83301 53 -20.5
s20 -31.5 20 -53.5c0 -22.667 -6.83301 -40.5 -20.5 -53.5s-31.167 -19.5 -52.5 -19.5c-22 0 -39.667 6.5 -53 19.5s-20 30.833 -20 53.5c0 22 6.66699 39.833 20 53.5s31 20.5 53 20.5z" />
    <glyph glyph-name="semicolon" unicode=";" horiz-adv-x="283" 
d="M143 496c22 0 39.667 -6.83301 53 -20.5s20 -31.5 20 -53.5c0 -23.333 -6.66699 -41.333 -20 -54s-31 -19 -53 -19c-22.667 0 -40.5 6.33301 -53.5 19s-19.5 30.667 -19.5 54c0 22 6.5 39.833 19.5 53.5s30.833 20.5 53.5 20.5zM133 -7
c-20.667 1.33301 -37.166 8.33203 -49.499 20.999s-18.5 29.334 -18.5 50.001c0 23.333 7.16699 41.166 21.5 53.499s30.833 18.5 49.5 18.5h6c14.667 0 27 -3.16699 37 -9.5s18.167 -14.166 24.5 -23.499s10.833 -20 13.5 -32s4 -24 4 -36
c0 -18.667 -3.5 -37.667 -10.5 -57s-16.333 -37.333 -28 -54s-25.334 -31.5 -41.001 -44.5s-32.167 -22.5 -49.5 -28.5l-30 42c16.667 11.333 31.5 25.833 44.5 43.5s21.833 36.5 26.5 56.5z" />
    <glyph glyph-name="less" unicode="&#x3c;" horiz-adv-x="467" 
d="M34 382l369 239v-115l-238 -149l238 -151v-116l-369 237v55z" />
    <glyph glyph-name="equal" unicode="=" horiz-adv-x="554" 
d="M64 534h426v-98h-426v98zM64 278h426v-98h-426v98z" />
    <glyph glyph-name="greater" unicode="&#x3e;" horiz-adv-x="467" 
d="M433 329l-369 -239v115l238 150l-238 150v116l369 -237v-55z" />
    <glyph glyph-name="question" unicode="?" horiz-adv-x="522" 
d="M190 218c-1.33301 5.33301 -2 10.499 -2 15.499v15.5c0 20 4.16699 38.333 12.5 55s18.666 32.334 30.999 47.001s25.833 28.5 40.5 41.5s28.167 26.333 40.5 40s22.833 28 31.5 43s13.334 31.5 14.001 49.5c0 30 -9.33301 52 -28 66s-45 21 -79 21
c-12.667 0 -25 -1.5 -37 -4.5s-23 -7.5 -33 -13.5s-18.333 -14 -25 -24s-11 -22 -13 -36h-111c1.33301 26 7.33301 50.167 18 72.5s25.5 41.5 44.5 57.5s42.167 28.667 69.5 38s58.666 14 93.999 14c28 0 55 -3.33301 81 -10s48.833 -17.167 68.5 -31.5
s35.334 -32.833 47.001 -55.5s17.5 -50 17.5 -82c0 -30 -5.33301 -56.5 -16 -79.5s-26 -45.167 -46 -66.5c-12 -13.333 -24.667 -26 -38 -38s-25.5 -24.5 -36.5 -37.5s-20 -26.833 -27 -41.5s-10.5 -31 -10.5 -49v-7h-108zM245 136.999c22.667 0 40.5 -6.83301 53.5 -20.5
s19.5 -31.5 19.5 -53.5c0 -21.333 -6.5 -38.5 -19.5 -51.5s-30.833 -19.5 -53.5 -19.5s-40.667 6.33301 -54 19s-20 30 -20 52s6.66699 39.833 20 53.5s31.333 20.5 54 20.5z" />
    <glyph glyph-name="at" unicode="@" horiz-adv-x="991" 
d="M617 117c-18 -26 -40.1621 -44.6631 -66.4951 -55.9961s-53.833 -17 -82.5 -17c-31.333 0 -58.5 5.66699 -81.5 17s-42.167 26.666 -57.5 45.999s-26.666 41.833 -33.999 67.5s-11 52.5 -11 80.5c0 32.667 5 63.667 15 93s24.333 55.166 43 77.499s41.334 40 68.001 53
s57 19.5 91 19.5c12 0 24.167 -1.16699 36.5 -3.5s24.333 -6.16602 36 -11.499s22.167 -12.333 31.5 -21s16.666 -19 21.999 -31l24 48l66 -8c-6.66699 -36.667 -12.334 -73.334 -17.001 -110.001s-9 -73.667 -13 -111c-1.33301 -12 -2.16602 -21.833 -2.49902 -29.5
s-0.5 -12.167 -0.5 -13.5c0 -12 1.5 -23.833 4.5 -35.5s8.66699 -21.834 17 -30.501s21.166 -13.667 38.499 -15c18 0 32.5 5.5 43.5 16.5s19.833 25 26.5 42s11.167 35.333 13.5 55s3.5 38.5 3.5 56.5c0 50 -7 95.333 -21 136s-34 75.5 -60 104.5s-58 51.333 -96 67
s-81 23.5 -129 23.5c-58.667 0 -110 -9.33301 -154 -28s-80.833 -44.5 -110.5 -77.5s-52.167 -71.833 -67.5 -116.5s-23.333 -93 -24 -145c0 -49.333 7.16699 -94.5 21.5 -135.5s35.166 -76.333 62.499 -106s61.166 -52.834 101.499 -69.501s86.166 -25 137.499 -25
c12.667 0 23.667 0.166992 33 0.5s18.166 1 26.499 2s16.666 2.33301 24.999 4l28.5 5.5c1.33301 -16 3 -32.5 5 -49.5l6 -49.5c-22.667 -5.33301 -44 -9 -64 -11s-42.667 -3 -68 -3c-64.667 0 -122.834 10.333 -174.501 31s-95.667 49.667 -132 87
s-64.166 81.833 -83.499 133.5s-29 108.167 -29 169.5c0 72.667 11 138.5 33 197.5s53 109.333 93 151s88.167 73.667 144.5 96s118.5 33.5 186.5 33.5c62 0 117.833 -10.167 167.5 -30.5s92.167 -48.666 127.5 -84.999s62.5 -79.333 81.5 -129s28.5 -103.834 28.5 -162.501
c0 -30 -2.66699 -61.333 -8 -94s-14.833 -62.5 -28.5 -89.5s-32.5 -49.167 -56.5 -66.5s-54.667 -26 -92 -26c-28.667 0 -54.167 6.5 -76.5 19.5s-38.5 32.5 -48.5 58.5zM503.005 410.004c-19.333 0 -36.6631 -4.00293 -51.9961 -12.0029s-28.333 -18.667 -39 -32
s-18.834 -29.166 -24.501 -47.499s-8.83398 -37.5 -9.50098 -57.5v-8c0 -14 1.66699 -28.167 5 -42.5s9.16602 -27.666 17.499 -39.999s19 -22.166 32 -29.499s28.5 -11 46.5 -11c22 0 40.5 5.16699 55.5 15.5s27.333 23.5 37 39.5s16.667 33.5 21 52.5s6.5 37.167 6.5 54.5
c0 14.667 -1.83301 29.167 -5.5 43.5s-9.33398 27 -17.001 38s-17.5 19.833 -29.5 26.5s-26.667 10 -44 10z" />
    <glyph glyph-name="A" unicode="A" horiz-adv-x="689" 
d="M557 0l-52 143h-321l-53 -143h-126l268 707h144l267 -707h-127zM469 247l-124 346l-125 -346h249z" />
    <glyph glyph-name="B" unicode="B" horiz-adv-x="670" 
d="M81 707h281.001c26.667 0 53.667 -2.33301 81 -7s52 -13.5 74 -26.5s39.833 -31 53.5 -54s20.5 -52.833 20.5 -89.5c0 -34 -7 -64.333 -21 -91s-37 -47.667 -69 -63c45.333 -10.667 77.5 -30.5 96.5 -59.5s28.5 -64.5 28.5 -106.5s-8.83301 -77 -26.5 -105
s-40.167 -49.667 -67.5 -65s-57.833 -25.833 -91.5 -31.5s-66.834 -8.5 -99.501 -8.5h-260v707zM197.001 603l0.00195312 -193.999h132c16.667 0 34 1.16699 52 3.5s34.167 7 48.5 14s26.166 17.167 35.499 30.5s14 31.333 14 54c0 20.667 -3.66699 37.167 -11 49.5
s-17 21.666 -29 27.999s-25.833 10.333 -41.5 12s-31.834 2.5 -48.501 2.5h-152zM339.003 103.001c18.667 0 37.998 1.00098 57.998 3.00098s38.333 6.66699 55 14s30.5 18.166 41.5 32.499s16.5 33.833 16.5 58.5c0 20 -4.16699 36.5 -12.5 49.5s-19.166 23 -32.499 30
s-28.166 11.833 -44.499 14.5s-32.833 4 -49.5 4h-44l-86 -1h-44v-205h142z" />
    <glyph glyph-name="C" unicode="C" horiz-adv-x="706" 
d="M376 612c-37.333 0 -69.5029 -6.99707 -96.5029 -20.9971s-49.167 -32.667 -66.5 -56s-30.166 -50.5 -38.499 -81.5s-12.5 -63.5 -12.5 -97.5c0 -34.667 4.33301 -67.667 13 -99s21.834 -58.833 39.501 -82.5s40.167 -42.5 67.5 -56.5s59.666 -21 96.999 -21
c46 0 84.5 10 115.5 30s50.5 47 58.5 81h116c-5.33301 -34 -16.5 -64.333 -33.5 -91s-38.167 -49.167 -63.5 -67.5s-54.666 -32.333 -87.999 -42s-69 -14.5 -107 -14.5c-55.333 0 -103.833 9 -145.5 27s-76.5 43 -104.5 75s-49 70 -63 114s-21 92.333 -21 145
c0 51.333 7.16699 99.166 21.5 143.499s35.5 82.666 63.5 114.999s62.833 57.666 104.5 75.999s90.167 27.5 145.5 27.5c78 0 142.333 -18.333 193 -55s81.334 -90.667 92.001 -162h-114c-8.66699 34.667 -28 62.167 -58 82.5s-68.333 30.5 -115 30.5z" />
    <glyph glyph-name="D" unicode="D" horiz-adv-x="726" 
d="M82 707l255.999 -0.00195312c56 0 105.5 -8.16699 148.5 -24.5s79 -39.666 108 -69.999s50.833 -67.5 65.5 -111.5s22 -93.333 22 -148c0 -55.333 -7.33301 -104.666 -22 -147.999s-36.167 -80.333 -64.5 -111s-63.666 -54 -105.999 -70s-91.5 -24 -147.5 -24h-260v707z
M197.999 602.998l-0.000976562 -500.001h141c38.667 0 72 6 100 18s51.167 28.833 69.5 50.5s32 47.834 41 78.501s13.5 65 13.5 103c0 78.667 -19.167 140 -57.5 184s-94.166 66 -167.499 66h-140z" />
    <glyph glyph-name="E" unicode="E" horiz-adv-x="616" 
d="M82 707h491v-104h-375v-201h332v-105h-332v-194h375v-103h-491v707z" />
    <glyph glyph-name="F" unicode="F" horiz-adv-x="599" 
d="M82 0v707h485v-104h-369v-224h316v-103h-316v-276h-116z" />
    <glyph glyph-name="G" unicode="G" horiz-adv-x="726" 
d="M373 612c-37.333 -0.666992 -69.333 -8.00293 -96 -22.0029s-48.5 -32.667 -65.5 -56s-29.5 -50.5 -37.5 -81.5s-12 -63.833 -12 -98.5s4.16699 -67.5 12.5 -98.5s21.333 -58.333 39 -82s40.167 -42.334 67.5 -56.001s59.666 -20.5 96.999 -20.5
c60.667 0 107.834 15.833 141.501 47.5s51.167 72.834 52.5 123.501h-207v98h318c0 -25.333 -0.5 -50.833 -1.5 -76.5s-4.83301 -52.5 -11.5 -80.5c-8 -30 -19.667 -58.167 -35 -84.5s-35 -49.166 -59 -68.499s-52.5 -34.666 -85.5 -45.999s-70.833 -17 -113.5 -17
c-55.333 0 -103.833 8.83301 -145.5 26.5s-76.5 42.5 -104.5 74.5s-49 70 -63 114s-21 92 -21 144c0 52.667 7 101.334 21 146.001s34.833 83.167 62.5 115.5s62.334 57.5 104.001 75.5s90.167 27 145.5 27c38.667 0 74.5 -4.83301 107.5 -14.5s62.167 -23.667 87.5 -42
s46.333 -41 63 -68s27.667 -57.833 33 -92.5h-117c-8.66699 35.333 -28.834 63 -60.501 83s-70.5 30 -116.5 30z" />
    <glyph glyph-name="H" unicode="H" horiz-adv-x="742" 
d="M544 400v307h116v-707h-116v296h-346v-296h-116v707h116v-307h346z" />
    <glyph glyph-name="I" unicode="I" horiz-adv-x="280" 
d="M198 0h-116v707h116v-707z" />
    <glyph glyph-name="J" unicode="J" horiz-adv-x="577" 
d="M154 216c2 -35.333 12.166 -64.1699 30.499 -86.5029s46.5 -33.5 84.5 -33.5c22 0 40.333 3.33301 55 10s26.5 15.834 35.5 27.501s15.333 25.834 19 42.501s5.5 35 5.5 55v476h116v-463c0 -38 -4 -72 -12 -102s-21 -56.167 -39 -78.5s-41 -39.666 -69 -51.999
s-62 -18.5 -102 -18.5c-74.667 0 -133.167 18.333 -175.5 55s-64.166 92.667 -65.499 168h117z" />
    <glyph glyph-name="K" unicode="K" horiz-adv-x="652" 
d="M82 0v707h116v-309h90l218 309h134l-252 -343l255 -364h-136l-208 295h-101v-295h-116z" />
    <glyph glyph-name="L" unicode="L" horiz-adv-x="600" 
d="M82 707h115v-604h368v-103h-483v707z" />
    <glyph glyph-name="M" unicode="M" horiz-adv-x="872" 
d="M82 0v707h146l211 -362l209 362h142v-707h-115v551l-213 -367h-52l-213 367v-551h-115z" />
    <glyph glyph-name="N" unicode="N" horiz-adv-x="756" 
d="M82 0v707h125l352 -531v531h115v-707h-124l-354 529v-529h-114z" />
    <glyph glyph-name="O" unicode="O" horiz-adv-x="769" 
d="M384 -7c-55.333 0 -104.166 9.16699 -146.499 27.5s-77.833 43.5 -106.5 75.5s-50.5 70 -65.5 114s-22.5 92 -22.5 144c0 52.667 7.66699 101.167 23 145.5s37.5 82.5 66.5 114.5s64.667 57 107 75s90.833 27 145.5 27s103.167 -8.83301 145.5 -26.5s78 -42.5 107 -74.5
s51 -70.167 66 -114.5s22.5 -92.833 22.5 -145.5c0 -52 -7.5 -100.167 -22.5 -144.5s-37 -82.5 -66 -114.5s-64.833 -57.167 -107.5 -75.5s-91.334 -27.5 -146.001 -27.5zM385 612c-38 0 -70.832 -7.00098 -98.499 -21.001s-50.834 -32.667 -69.501 -56
s-32.5 -50.666 -41.5 -81.999s-13.5 -64 -13.5 -98s4.5 -66.5 13.5 -97.5s22.667 -58.5 41 -82.5s41.5 -43 69.5 -57s61 -21 99 -21c37.333 0 70 6.83301 98 20.5s51.167 32.167 69.5 55.5s32 50.5 41 81.5s13.5 64.167 13.5 99.5c0 34.667 -4.5 67.5 -13.5 98.5
s-22.667 58.333 -41 82s-41.333 42.5 -69 56.5s-60.5 21 -98.5 21z" />
    <glyph glyph-name="P" unicode="P" horiz-adv-x="649" 
d="M82 707l259.001 0.000976562c40.667 0 77.167 -4.5 109.5 -13.5s60 -23.167 83 -42.5s40.667 -44.166 53 -74.499s18.5 -66.833 18.5 -109.5c0 -39.333 -6.5 -74.333 -19.5 -105s-31.333 -56.334 -55 -77.001s-51.834 -36.334 -84.501 -47.001s-69 -16 -109 -16h-139
v-222h-116v707zM331.001 324.001c44.667 0 81.833 11.168 111.5 33.501s45.167 57.166 46.5 104.499c0 50 -12.833 86 -38.5 108s-63.167 33 -112.5 33h-140v-279h133z" />
    <glyph glyph-name="Q" unicode="Q" horiz-adv-x="768" 
d="M522 17c-41.333 -16 -87.667 -24.001 -139 -24.001c-55.333 0 -104 9.16699 -146 27.5s-77.5 43.5 -106.5 75.5s-50.833 70 -65.5 114s-22 92 -22 144c0 52.667 7.66699 101.167 23 145.5s37.5 82.5 66.5 114.5s64.667 57 107 75s90.833 27 145.5 27
s103 -8.83301 145 -26.5s77.5 -42.5 106.5 -74.5s51 -70.167 66 -114.5s22.5 -92.833 22.5 -145.5c0 -57.333 -9 -109.666 -27 -156.999s-44.667 -87.333 -80 -120l97 -129l-90 -69zM383.999 611.999c-37.333 0 -70 -7.00098 -98 -21.001s-51.333 -32.667 -70 -56
s-32.5 -50.666 -41.5 -81.999s-13.5 -64 -13.5 -98s4.5 -66.5 13.5 -97.5s22.667 -58.5 41 -82.5s41.5 -43 69.5 -57s61 -21 99 -21c37.333 0 70 6.83301 98 20.5s51.167 32.167 69.5 55.5s32 50.5 41 81.5s13.5 64.167 13.5 99.5c0 34.667 -4.5 67.5 -13.5 98.5
s-22.667 58.333 -41 82s-41.333 42.5 -69 56.5s-60.5 21 -98.5 21z" />
    <glyph glyph-name="R" unicode="R" horiz-adv-x="668" 
d="M198 259l-0.000976562 -258.998h-116v707h275c36.667 0 71 -3.66699 103 -11s59.833 -19.666 83.5 -36.999s42.334 -40.333 56.001 -69s20.5 -64 20.5 -106c0 -28.667 -4.16699 -54.834 -12.5 -78.501s-19.5 -44.334 -33.5 -62.001s-30.333 -32.334 -49 -44.001
s-38.667 -20.167 -60 -25.5l153 -274h-129l-70.5 129.5l-71.5 129.5h-149zM340.999 360.002c22.667 0 44.001 2.00098 64.001 6.00098s37.333 10.667 52 20s26.167 22.166 34.5 38.499s12.5 37.166 12.5 62.499c0 22.667 -3.5 41.334 -10.5 56.001s-17.167 26.5 -30.5 35.5
s-29.333 15.333 -48 19s-39.334 5.5 -62.001 5.5h-155v-243h143z" />
    <glyph glyph-name="S" unicode="S" horiz-adv-x="655" 
d="M329 613c-15.333 0 -31.001 -1.33594 -47.001 -4.00293s-30.667 -7.5 -44 -14.5s-24.333 -16.667 -33 -29s-13 -27.833 -13 -46.5c0 -28 9.33301 -49.167 28 -63.5s41 -25.166 67 -32.499c18.667 -5.33301 37.5 -10.333 56.5 -15s36.5 -8.66699 52.5 -12
c28 -6 54.5 -13.333 79.5 -22s46.833 -20.167 65.5 -34.5s33.5 -32.333 44.5 -54s16.5 -48.5 16.5 -80.5c0 -38 -6.83301 -70.333 -20.5 -97s-32.167 -48.667 -55.5 -66s-50.666 -30 -81.999 -38s-65 -12 -101 -12c-36.667 0 -71.5 3.83301 -104.5 11.5s-62.5 20 -88.5 37
s-47.667 38.833 -65 65.5s-28.333 58.667 -33 96h120c5.33301 -20 14 -36.667 26 -50s25.833 -24 41.5 -32s32.5 -13.667 50.5 -17s35.667 -5 53 -5c18.667 0 36.667 1.5 54 4.5s32.333 8.16699 45 15.5s23 17 31 29s12 27.667 12 47c0 26.667 -7 46.167 -21 58.5
s-32.667 21.5 -56 27.5c-32 9.33301 -64.833 17.5 -98.5 24.5s-65.5 16.167 -95.5 27.5c-20 7.33301 -38.333 16 -55 26s-31.334 22 -44.001 36s-22.5 30.5 -29.5 49.5s-10.5 41.167 -10.5 66.5c0 38.667 7.33301 71.167 22 97.5s33.834 47.5 57.501 63.5
s50.5 27.5 80.5 34.5s60.667 10.5 92 10.5c33.333 0 65 -3.83301 95 -11.5s56.667 -19.5 80 -35.5s42.166 -36.667 56.499 -62s22.833 -56 25.5 -92h-114c-2.66699 18 -8.16699 33 -16.5 45s-18.666 21.833 -30.999 29.5s-26.5 13.334 -42.5 17.001s-33 5.83398 -51 6.50098
z" />
    <glyph glyph-name="T" unicode="T" horiz-adv-x="583" 
d="M233 0v603h-224v104h565v-104h-225v-603h-116z" />
    <glyph glyph-name="U" unicode="U" horiz-adv-x="741" 
d="M664 707l-0.00195312 -390.998c0 -47.333 -5.5 -90.833 -16.5 -130.5s-28.167 -73.834 -51.5 -102.501s-53.5 -51 -90.5 -67s-81.833 -24 -134.5 -24s-97.5 8 -134.5 24s-67.333 38.167 -91 66.5s-41 62.333 -52 102s-16.5 83.5 -16.5 131.5v391h116v-395
c0 -29.333 3 -57 9 -83s16 -48.833 30 -68.5s32.333 -35.334 55 -47.001s51 -17.5 85 -17.5c33.333 0 61.333 5.83301 84 17.5s40.834 27.5 54.501 47.5s23.334 43 29.001 69s8.5 53.333 8.5 82v395h116z" />
    <glyph glyph-name="V" unicode="V" horiz-adv-x="692" 
d="M137 707l211 -583l210 583h125l-266 -707h-141l-267 707h128z" />
    <glyph glyph-name="W" unicode="W" horiz-adv-x="968" 
d="M573 707l127 -592l134 592h125l-178 -707h-164l-129 590l-129 -590h-166l-184 707h132l137 -592l129 592h166z" />
    <glyph glyph-name="X" unicode="X" horiz-adv-x="629" 
d="M477 707h136l-227 -352l234 -355h-137l-169 263l-173 -263h-132l235 354l-228 353h138l162 -263z" />
    <glyph glyph-name="Y" unicode="Y" horiz-adv-x="647" 
d="M507 707h131l-255 -442v-265h-116v264l-258 443h134l183 -330z" />
    <glyph glyph-name="Z" unicode="Z" horiz-adv-x="614" 
d="M50 603v104h525v-91l-390 -513h383v-103h-529v92l388 511h-377z" />
    <glyph glyph-name="bracketleft" unicode="[" horiz-adv-x="337" 
d="M82 -178v965h225v-94h-116v-777h116v-94h-225z" />
    <glyph glyph-name="backslash" unicode="\" horiz-adv-x="486" 
d="M339 -170l-305 962h112l306 -962h-113z" />
    <glyph glyph-name="bracketright" unicode="]" horiz-adv-x="337" 
d="M255 787v-965h-225v94h116v777h-116v94h225z" />
    <glyph glyph-name="asciicircum" unicode="^" horiz-adv-x="495" 
d="M287 712l154 -226h-109l-85 137l-87 -137h-106l152 226h81z" />
    <glyph glyph-name="underscore" unicode="_" horiz-adv-x="443" 
d="M-8 -62h459v-97h-459v97z" />
    <glyph glyph-name="grave" unicode="`" horiz-adv-x="363" 
d="M158 630l-114 159h117l98 -159h-101z" />
    <glyph glyph-name="a" unicode="a" horiz-adv-x="566" 
d="M402 65c-17.333 -24.667 -40.335 -42.834 -69.002 -54.501s-60.667 -17.5 -96 -17.5c-28 0 -53.5 3.33301 -76.5 10s-43.167 16.834 -60.5 30.501s-31 30.667 -41 51s-15 43.5 -15 69.5c0 28.667 5.66699 53.167 17 73.5s26.833 36.833 46.5 49.5
s42.834 22.167 69.501 28.5s54.667 9.5 84 9.5h135c0 38.667 -8.66699 68.667 -26 90s-47.666 32.333 -90.999 33c-25.333 0 -47.166 -4.33301 -65.499 -13s-30.5 -23 -36.5 -43h-117c4 28 13.167 51.667 27.5 71s31.666 35.333 51.999 48s43 21.667 68 27s50.167 8 75.5 8
c32.667 0 63 -4.33301 91 -13s52.333 -23.334 73 -44.001c23.333 -24 39 -52.667 47 -86s12 -69.666 12 -108.999v-284h-99zM395.998 234l-110.003 0.000976562c-19.333 0 -38.666 -1.5 -57.999 -4.5s-35.833 -10 -49.5 -21s-20.5 -26.833 -20.5 -47.5
c0 -25.333 9.16699 -44.5 27.5 -57.5s40.833 -19.5 67.5 -19.5c20.667 0 39.834 2.66699 57.501 8s32.834 14.166 45.501 26.499s22.5 28 29.5 47s10.5 41.833 10.5 68.5z" />
    <glyph glyph-name="b" unicode="b" horiz-adv-x="623" 
d="M62 0l-0.00292969 707h114v-254c19.333 26.667 44.833 47.167 76.5 61.5s63.834 21.5 96.501 21.5c36.667 0 69.334 -6.5 98.001 -19.5s53 -31.333 73 -55s35.167 -52 45.5 -85s15.5 -70.167 15.5 -111.5c0 -38 -4.66699 -73.5 -14 -106.5s-23.666 -61.833 -42.999 -86.5
s-43.5 -44 -72.5 -58s-63.167 -21 -102.5 -21c-75.333 0 -133 24.333 -173 73c-0.666992 -11.333 -1.16699 -22.333 -1.5 -33s-0.5 -21.667 -0.5 -33h-112zM324.997 92c24.667 0 45.998 4.5 63.998 13.5s32.833 21.167 44.5 36.5s20.334 33.333 26.001 54s8.5 43 8.5 67
s-2.83301 46.5 -8.5 67.5s-14.334 39.167 -26.001 54.5s-26.667 27.333 -45 36s-40.166 13 -65.499 13c-26 0 -48.167 -5 -66.5 -15s-33.5 -23.167 -45.5 -39.5s-21 -34.833 -27 -55.5s-9 -41.334 -9 -62.001c0 -22.667 3 -44.167 9 -64.5s15 -38.166 27 -53.499
s27.333 -27.833 46 -37.5s41.334 -14.5 68.001 -14.5z" />
    <glyph glyph-name="c" unicode="c" horiz-adv-x="562" 
d="M294 -7c-42.667 0 -79.666 6.5 -110.999 19.5s-57.5 31.333 -78.5 55s-36.667 52 -47 85s-15.5 69.5 -15.5 109.5s5.5 76.667 16.5 110s27.5 62 49.5 86s48.667 43 80 57s67.666 21 108.999 21c60.667 0 111 -13.833 151 -41.5s65.333 -71.5 76 -131.5h-117
c-6 23.333 -19 41 -39 53s-44.333 18 -73 18c-25.333 0 -47 -4.66699 -65 -14s-32.667 -22 -44 -38s-19.5 -34.5 -24.5 -55.5s-7.5 -42.833 -7.5 -65.5c0 -23.333 2.66699 -45.333 8 -66s13.666 -38.5 24.999 -53.5s26 -27 44 -36s39.667 -13.5 65 -13.5
c30 0 54.833 6.66699 74.5 20s32.167 31 37.5 53h118c-5.33301 -30 -15.166 -56 -29.499 -78s-31.833 -40 -52.5 -54s-43.667 -24.167 -69 -30.5s-52.333 -9.5 -81 -9.5z" />
    <glyph glyph-name="d" unicode="d" horiz-adv-x="623" 
d="M561 0l-107.002 0.000976562l-6 73c-19.333 -28 -43.666 -48 -72.999 -60s-62.333 -18.667 -99 -20c-40.667 0.666992 -75.667 8.16699 -105 22.5s-53.666 33.666 -72.999 57.999s-33.5 52.5 -42.5 84.5s-13.5 66 -13.5 102c0 39.333 5.16699 75.666 15.5 108.999
s25.833 62.333 46.5 87s46 44.167 76 58.5s65 21.5 105 21.5c28.667 0 57.667 -4.66699 87 -14s54.333 -26.666 75 -51.999v237h114v-707zM297.998 433.001c-25.333 0 -46.998 -4.33301 -64.998 -13s-32.833 -20.667 -44.5 -36s-20.167 -33.5 -25.5 -54.5s-8 -43.5 -8 -67.5
s2.66699 -46.333 8 -67s13.833 -38.667 25.5 -54s26.667 -27.5 45 -36.5s40.5 -13.5 66.5 -13.5c24.667 0 46.167 4.83301 64.5 14.5s33.666 22.5 45.999 38.5s21.5 34.333 27.5 55s9 42 9 64c0 23.333 -2.83301 45.333 -8.5 66s-14.5 38.5 -26.5 53.5s-27.333 27 -46 36
s-41.334 13.833 -68.001 14.5z" />
    <glyph glyph-name="e" unicode="e" horiz-adv-x="576" 
d="M156 225c1.33301 -19.333 5.32812 -37.3359 11.9951 -54.0029s15.834 -31.167 27.501 -43.5s26 -22.166 43 -29.499s36.833 -11 59.5 -11c24 0 46 4.33301 66 13s34.667 23.667 44 45h117c-6.66699 -26.667 -17.5 -49.667 -32.5 -69s-32.667 -35.166 -53 -47.499
s-42.666 -21.333 -66.999 -27s-50.166 -8.5 -77.499 -8.5c-42 0 -78.833 6.33301 -110.5 19s-58.167 31 -79.5 55s-37.166 52.5 -47.499 85.5s-15.5 70.167 -15.5 111.5c0 40 5.66699 76.5 17 109.5s27.833 61.5 49.5 85.5s47.834 42.833 78.501 56.5s65.667 20.5 105 20.5
c41.333 0 77 -6.83301 107 -20.5s55.167 -32.167 75.5 -55.5s35.5 -50.666 45.5 -81.999s15 -65.333 15 -102c0 -17.333 -1 -34.333 -3 -51h-376zM423.995 310.997c-1.33301 40 -14 70.998 -38 92.998s-55 33 -93 33c-21.333 0 -40 -3.33301 -56 -10
s-29.5 -15.667 -40.5 -27s-19.833 -24.666 -26.5 -39.999s-11 -31.666 -13 -48.999h267z" />
    <glyph glyph-name="f" unicode="f" horiz-adv-x="375" 
d="M111 0v427.999h-84v99h84v62c0 58.667 13.833 101.834 41.5 129.501s72.167 41.5 133.5 41.5h72v-99h-65c-28 0 -46.667 -7.33301 -56 -22s-14 -35.667 -14 -63v-49h135v-99h-135v-428h-112z" />
    <glyph glyph-name="g" unicode="g" horiz-adv-x="624" 
d="M562 93c-1.33301 -29.333 -2.00391 -58.666 -2.00391 -87.999s-4 -59 -12 -89c-16 -56.667 -45 -99 -87 -127s-94.333 -42 -157 -42c-29.333 0 -57.166 3.33301 -83.499 10s-50 17 -71 31s-38.833 31.833 -53.5 53.5s-24.334 47.834 -29.001 78.501h119
c5.33301 -24 19.5 -42 42.5 -54s48.5 -18 76.5 -18c32 0 57.5 5.83301 76.5 17.5s33.5 27.667 43.5 48s16.333 43.666 19 69.999s4 54.166 4 83.499c-16.667 -26 -38.167 -45 -64.5 -57s-59.166 -18.333 -98.499 -19c-45.333 0.666992 -82.833 8.16699 -112.5 22.5
s-54.167 33.833 -73.5 58.5s-33.666 53 -42.999 85s-14 66 -14 102c0 40 5.16699 76.667 15.5 110s25.833 62.333 46.5 87s46.334 44 77.001 58s66.334 21 107.001 21c34.667 0 65.5 -5.83301 92.5 -17.5s50.5 -29.5 70.5 -53.5l9 63h102v-434zM299.996 432
c-25.333 0 -47.165 -4.33496 -65.498 -13.002s-33.333 -20.667 -45 -36s-20.334 -33.5 -26.001 -54.5s-8.5 -43.5 -8.5 -67.5s2.83301 -46.167 8.5 -66.5s14.5 -38.166 26.5 -53.499s27.167 -27.5 45.5 -36.5s40.166 -13.5 65.499 -13.5c26 0 48.167 5 66.5 15
s33.5 23.167 45.5 39.5s21 34.833 27 55.5s9 42 9 64c0 22.667 -3 44.334 -9 65.001s-15.167 38.5 -27.5 53.5s-27.833 26.833 -46.5 35.5s-40.667 13 -66 13z" />
    <glyph glyph-name="h" unicode="h" horiz-adv-x="604" 
d="M62 0l-0.00195312 706.999h114v-253c18.667 28 42.834 49 72.501 63s60.834 21 93.501 21c37.333 0 68.833 -6.33301 94.5 -19s46.667 -29.834 63 -51.501s28 -47.5 35 -77.5s10.5 -63 10.5 -99v-291h-114v273c0 22.667 -1.66699 43.834 -5 63.501s-9.33301 37 -18 52
s-21 26.833 -37 35.5s-36.333 13 -61 13c-21.333 0 -41.333 -5.5 -60 -16.5s-33.5 -25.5 -44.5 -43.5s-18.667 -37.167 -23 -57.5s-6.5 -40.166 -6.5 -59.499v-260h-114z" />
    <glyph glyph-name="i" unicode="i" horiz-adv-x="253" 
d="M127 746c20.667 0 37.834 -6.33301 51.501 -19s20.5 -30 20.5 -52c0 -21.333 -6.83301 -38.333 -20.5 -51s-30.834 -19 -51.501 -19c-22 0 -39.667 6.33301 -53 19s-20 29.667 -20 51c0 22 6.66699 39.333 20 52s31 19 53 19zM69 0v527h114v-527h-114z" />
    <glyph glyph-name="j" unicode="j" horiz-adv-x="261" 
d="M134 747c21.333 0 38.833 -6.5 52.5 -19.5s20.5 -30.5 20.5 -52.5c0 -21.333 -6.83301 -38.5 -20.5 -51.5s-31.167 -19.5 -52.5 -19.5s-38.833 6.5 -52.5 19.5s-20.5 30.167 -20.5 51.5c0 22 6.83301 39.5 20.5 52.5s31.167 19.5 52.5 19.5zM191 527v-564.001
c0 -59.333 -12.5 -103.166 -37.5 -131.499s-68.167 -42.5 -129.5 -42.5h-60v99h39c29.333 0 49 7.66699 59 23s15 37 15 65v551h114z" />
    <glyph glyph-name="k" unicode="k" horiz-adv-x="537" 
d="M62 0v707h113v-395h82l136 215h128l-166 -251l180 -276h-132l-139 213h-89v-213h-113z" />
    <glyph glyph-name="l" unicode="l" horiz-adv-x="238" 
d="M62 0v707h114v-707h-114z" />
    <glyph glyph-name="m" unicode="m" horiz-adv-x="850" 
d="M171 527c0.666992 -5.33301 1.00195 -10.6689 1.00195 -16.002l3 -31c0.666992 -5.33301 1 -10.666 1 -15.999c36.667 49.333 84.667 74 144 74c37.333 0 67.333 -7.66699 90 -23s40.334 -35.666 53.001 -60.999c20.667 27.333 44.167 48.166 70.5 62.499
s57.166 21.5 92.499 21.5c30 0 55.833 -5 77.5 -15s39 -24 52 -42s22.5 -38.833 28.5 -62.5s9 -48.834 9 -75.501v-343h-114v301c0 16 -1 32 -3 48s-6.16699 30.5 -12.5 43.5s-15.5 23.667 -27.5 32s-28 12.5 -48 12.5c-21.333 0 -38.833 -5.16699 -52.5 -15.5
s-24.334 -22.833 -32.001 -37.5s-12.834 -31.167 -15.501 -49.5s-4 -36.5 -4 -54.5v-280h-113v303c0 15.333 -0.833008 30.833 -2.5 46.5s-5.5 29.834 -11.5 42.501s-14.833 23.334 -26.5 32.001s-27.834 13 -48.501 13c-21.333 0 -39.166 -5.33301 -53.499 -16
s-25.5 -23.834 -33.5 -39.501s-13.333 -32.667 -16 -51s-4 -35.166 -4 -50.499v-280h-113v527h109z" />
    <glyph glyph-name="n" unicode="n" horiz-adv-x="604" 
d="M62 0l0.000976562 527h109l6 -73c19.333 27.333 43.5 47.833 72.5 61.5s59.833 20.5 92.5 20.5c37.333 0 68.833 -6.33301 94.5 -19s46.667 -30 63 -52s28 -48 35 -78s10.5 -62.667 10.5 -98v-289h-114v272c0 22.667 -1.5 43.667 -4.5 63s-8.83301 36.5 -17.5 51.5
s-20.834 26.833 -36.501 35.5s-35.834 13 -60.501 13c-23.333 0 -44.5 -5.66699 -63.5 -17s-33.667 -26 -44 -44s-17.666 -38 -21.999 -60s-6.5 -43 -6.5 -63v-251h-114z" />
    <glyph glyph-name="o" unicode="o" horiz-adv-x="601" 
d="M299 536c42 0 79.001 -6.66699 111.001 -20s59.167 -31.833 81.5 -55.5s39.166 -52.167 50.499 -85.5s17 -70.333 17 -111c0 -41.333 -5.5 -78.5 -16.5 -111.5s-27.5 -61.5 -49.5 -85.5s-49.167 -42.333 -81.5 -55s-69.833 -19 -112.5 -19c-42 0 -79 6.5 -111 19.5
s-58.833 31.333 -80.5 55s-38 52.167 -49 85.5s-16.5 70.333 -16.5 111s5.5 77.667 16.5 111s27.5 61.833 49.5 85.5s49 42.167 81 55.5s68.667 20 110 20zM299.001 92c26 0 48.167 4.5 66.5 13.5s33.333 21.167 45 36.5s20.334 33.333 26.001 54s8.5 43 8.5 67
s-2.83301 46.5 -8.5 67.5s-14.334 39.167 -26.001 54.5s-26.667 27.333 -45 36s-40.5 13 -66.5 13c-25.333 0 -47 -4.33301 -65 -13s-33 -20.667 -45 -36s-20.833 -33.5 -26.5 -54.5s-8.5 -43.5 -8.5 -67.5s2.83301 -46.333 8.5 -67s14.334 -38.667 26.001 -54
s26.667 -27.5 45 -36.5s40.166 -13.5 65.499 -13.5z" />
    <glyph glyph-name="p" unicode="p" horiz-adv-x="623" 
d="M62 -205l0.000976562 731.997h108l6 -75c20.667 28 46 49 76 63s62.333 21 97 21c36 0 68.333 -6.5 97 -19.5s53.167 -31.167 73.5 -54.5s35.666 -51.5 45.999 -84.5s15.5 -70.5 15.5 -112.5c0 -39.333 -5 -75.666 -15 -108.999s-24.833 -62.166 -44.5 -86.499
s-44 -43.166 -73 -56.499s-62.833 -20 -101.5 -20c-33.333 0 -64.833 5.16699 -94.5 15.5s-55.167 26.5 -76.5 48.5v-262h-114zM325.001 91.9971c24.667 0 46 4.50098 64 13.501s32.833 21.167 44.5 36.5s20.334 33.333 26.001 54s8.5 43 8.5 67s-2.83301 46.5 -8.5 67.5
s-14.334 39.167 -26.001 54.5s-26.667 27.333 -45 36s-40.166 13 -65.499 13c-24.667 0 -46 -4.66699 -64 -14s-33.333 -21.666 -46 -36.999s-22.167 -33.5 -28.5 -54.5s-9.5 -42.5 -9.5 -64.5c0 -48.667 12.667 -89.334 38 -122.001s62.666 -49.334 111.999 -50.001z" />
    <glyph glyph-name="q" unicode="q" horiz-adv-x="623" 
d="M561 -205l-114 0.000976562v263c-19.333 -22.667 -43.333 -39.334 -72 -50.001s-59.334 -16 -92.001 -16c-44 0 -80.667 7.16699 -110 21.5s-53.833 33.833 -73.5 58.5s-34.167 53.167 -43.5 85.5s-14 66.5 -14 102.5c0 39.333 5 75.5 15 108.5s25.333 61.833 46 86.5
s46.334 44.167 77.001 58.5s68 21.5 112 21.5c30.667 0 60 -5.16699 88 -15.5s51.333 -26.5 70 -48.5l9 56h102v-732zM299 433.001c-25.333 0 -47.167 -4.33691 -65.5 -13.0039s-33.333 -20.667 -45 -36s-20.167 -33.5 -25.5 -54.5s-8 -43.5 -8 -67.5
s2.83301 -46.333 8.5 -67s14.334 -38.667 26.001 -54s26.667 -27.5 45 -36.5s40.5 -13.5 66.5 -13.5c24.667 0 46.167 4.83301 64.5 14.5s33.5 22.334 45.5 38.001s21 33.834 27 54.501s9 42 9 64c0 22.667 -2.66699 44.334 -8 65.001s-14 38.834 -26 54.501
s-27.333 28 -46 37s-41.334 13.833 -68.001 14.5z" />
    <glyph glyph-name="r" unicode="r" horiz-adv-x="390" 
d="M62 0v527.002h107l6 -75c40.667 56 96 84 166 84c6.66699 0 13.167 -0.166992 19.5 -0.5s12.166 -0.833008 17.499 -1.5v-106c-8 0 -15.833 -0.166992 -23.5 -0.5s-15.167 -0.5 -22.5 -0.5c-29.333 -0.666992 -53.833 -5.83398 -73.5 -15.501s-35.667 -22.5 -48 -38.5
s-21.166 -34.833 -26.499 -56.5s-8 -44.834 -8 -69.501v-247h-114z" />
    <glyph glyph-name="s" unicode="s" horiz-adv-x="511" 
d="M255 441c-10 0 -20.5068 -0.668945 -31.5068 -2.00195s-21.333 -4.16602 -31 -8.49902s-17.667 -10.5 -24 -18.5s-9.5 -18.333 -9.5 -31c0 -14 4.83301 -25 14.5 -33s21.167 -14.5 34.5 -19.5s27.5 -9 42.5 -12l38.5 -7.5c28.667 -6 54.5 -12.333 77.5 -19
s42.5 -15.5 58.5 -26.5s28.5 -25.167 37.5 -42.5s13.5 -40 13.5 -68c0 -30 -6.16699 -55.333 -18.5 -76s-28.333 -37.167 -48 -49.5s-42 -21.166 -67 -26.499s-50.833 -8 -77.5 -8s-53 2.66699 -79 8s-49.833 14.333 -71.5 27s-39.667 29.5 -54 50.5
s-23.166 46.5 -26.499 76.5h115c2.66699 -13.333 8.33398 -24.333 17.001 -33s18.834 -15.667 30.501 -21s23.834 -9 36.501 -11s24.334 -3 35.001 -3c8 0 17.833 0.666992 29.5 2s22.5 4.33301 32.5 9s18.5 10.834 25.5 18.501s10.5 17.5 10.5 29.5
c0 11.333 -2.66699 20.833 -8 28.5s-12.5 14.167 -21.5 19.5s-19.833 9.5 -32.5 12.5l-40 9.5c-22 4 -45.5 9 -70.5 15s-48.333 13.833 -70 23.5s-39.5 24.167 -53.5 43.5s-21 44 -21 74c0 32 6.33301 58.333 19 79s29 37.5 49 50.5s42.333 22 67 27s49 7.5 73 7.5
c58 0 105.5 -13.333 142.5 -40s57.167 -65.334 60.5 -116.001h-107c-3.33301 21.333 -14.166 36.5 -32.499 45.5s-40.166 14.167 -65.499 15.5z" />
    <glyph glyph-name="t" unicode="t" horiz-adv-x="377" 
d="M220 527l133.001 -0.000976562v-99h-133v-241c0 -30 5.33301 -52.333 16 -67s31 -22 61 -22h52v-98h-62c-64.667 0 -110.834 13.333 -138.501 40s-41.5 70.334 -41.5 131.001v257h-83v99h83v149h113v-149z" />
    <glyph glyph-name="u" unicode="u" horiz-adv-x="588" 
d="M293 92c44 0 75.332 12.3301 93.999 36.9971s28 59.667 28 105v293h113v-297c0 -44 -6 -81.167 -18 -111.5s-28.333 -54.666 -49 -72.999s-45.167 -31.666 -73.5 -39.999s-59.833 -12.5 -94.5 -12.5c-73.333 0 -130.5 19 -171.5 57s-61.5 98 -61.5 180v297h113v-293
c0 -45.333 9.83301 -80.166 29.5 -104.499s49.834 -36.833 90.501 -37.5z" />
    <glyph glyph-name="v" unicode="v" horiz-adv-x="547" 
d="M2 527h126l146 -418l145 418h126l-198 -527h-147z" />
    <glyph glyph-name="w" unicode="w" horiz-adv-x="848" 
d="M7 527h126l110 -406l119 406h128l119 -406l110 406h122l-164 -527h-134l-119 388l-116 -388h-138z" />
    <glyph glyph-name="x" unicode="x" horiz-adv-x="527" 
d="M387 0l-128 188l-124 -188h-126l181 268l-172 259h132l115 -186l112 186h130l-174 -262l185 -265h-131z" />
    <glyph glyph-name="y" unicode="y" horiz-adv-x="611" 
d="M549 527l0.00195312 -442.997c0 -30 -0.5 -60.667 -1.5 -92s-6.5 -62 -16.5 -92c-15.333 -48 -43 -85.667 -83 -113s-93.667 -41 -161 -41c-40 0 -78.5 5.33301 -115.5 16s-71.833 28.334 -104.5 53.001c7.33301 15.333 14.5 31.166 21.5 47.499l21.5 48.5
c22 -17.333 47.167 -32 75.5 -44s60.833 -18 97.5 -18c35.333 0 63 6 83 18s35.167 28.167 45.5 48.5s17 43.666 20 69.999s4.5 53.166 4.5 80.499c-18.667 -26.667 -41.834 -45.667 -69.501 -57s-58.834 -17 -93.501 -17c-39.333 0 -73 6 -101 18s-50 28.667 -66 50
s-27.333 46.666 -34 75.999s-10 61.333 -10 96v295h113v-273c0 -21.333 1.5 -41.833 4.5 -61.5s9 -37 18 -52s21.5 -27 37.5 -36s37 -13.5 63 -13.5c26.667 0 48.834 5.33301 66.501 16s31.667 24.5 42 41.5s17.666 36.5 21.999 58.5s6.5 44.667 6.5 68v252h114z" />
    <glyph glyph-name="z" unicode="z" horiz-adv-x="517" 
d="M474 440l-288 -342h288v-98h-432v87l286 341h-286v99h432v-87z" />
    <glyph glyph-name="braceleft" unicode="{" horiz-adv-x="407" 
d="M288 693c-13.333 0 -23.335 -2.50195 -30.002 -7.50195s-11.334 -11.5 -14.001 -19.5s-4.16699 -17 -4.5 -27s-0.5 -20 -0.5 -30v-176c0 -13.333 -1 -26.5 -3 -39.5s-5.33301 -25.167 -10 -36.5s-11.167 -21.666 -19.5 -30.999s-18.833 -16.666 -31.5 -21.999
c12.667 -5.33301 23.167 -12.5 31.5 -21.5s14.833 -19.333 19.5 -31s8 -24.167 10 -37.5s3 -26.333 3 -39v-179c0 -14 0.333008 -26.167 1 -36.5s2.66699 -18.666 6 -24.999s8.16602 -11 14.499 -14s15.5 -4.5 27.5 -4.5h65v-94h-96c-40 0 -71 8.66699 -93 26
s-33 47.666 -33 90.999v208c0 14 -0.833008 27.667 -2.5 41s-5.66699 25.333 -12 36s-16.166 19.167 -29.499 25.5s-31.666 9.5 -54.999 9.5v91c27.333 0 47.833 5 61.5 15s23.334 22 29.001 36s8.5 28.667 8.5 44v204c0 52 9.83301 88 29.5 108s51.834 30 96.501 30h96v-94
h-65z" />
    <glyph glyph-name="bar" unicode="|" horiz-adv-x="271" 
d="M82 -171v971h107v-971h-107z" />
    <glyph glyph-name="braceright" unicode="}" horiz-adv-x="407" 
d="M119 -84c12.667 0 22.502 2.50293 29.502 7.50293s11.833 11.5 14.5 19.5s4.16699 17 4.5 27s0.5 20 0.5 30v176c0 12.667 1 25.667 3 39s5.33301 25.666 10 36.999s11.167 21.666 19.5 30.999s18.833 16.666 31.5 21.999c-12.667 4.66699 -23.167 11.667 -31.5 21
s-14.833 19.833 -19.5 31.5s-8 24.167 -10 37.5s-3 26.333 -3 39v179c0 14 -0.333008 26.167 -1 36.5s-2.66699 18.666 -6 24.999s-8.16602 11 -14.499 14s-15.5 4.5 -27.5 4.5h-65v94h100c40 0 70.333 -8.66699 91 -26s31 -47.666 31 -90.999v-208
c0 -14 0.833008 -27.667 2.5 -41s5.66699 -25.333 12 -36s16.166 -19.167 29.499 -25.5s31.666 -9.5 54.999 -9.5v-91c-27.333 0 -48 -5 -62 -15s-23.667 -22 -29 -36s-8 -28.333 -8 -43v-205c0 -52 -9.83301 -88 -29.5 -108s-51.834 -30 -96.501 -30h-96v94h65z" />
    <glyph glyph-name="asciitilde" unicode="~" horiz-adv-x="663" 
d="M82 257l0.000976562 9.99707c0 20.667 1.83301 42.167 5.5 64.5s11 43 22 62s26.167 34.333 45.5 46s44.333 17.834 75 18.501c17.333 0 33.166 -2.66699 47.499 -8s27.5 -12.166 39.5 -20.499s23.167 -17.333 33.5 -27l29 -27c9 -8.33301 17.833 -15.333 26.5 -21
s17 -8.5 25 -8.5c11.333 0 20.166 4 26.499 12s10.833 17.667 13.5 29s4.16699 23 4.5 35s0.5 22 0.5 30h105c0 -24 -2 -48 -6 -72s-11.5 -45.5 -22.5 -64.5s-26.167 -34.5 -45.5 -46.5s-44.666 -18 -75.999 -18c-22.667 0 -44.334 5.83301 -65.001 17.5
s-38.667 24.5 -54 38.5l-42.5 38.5c-13 11.667 -25.833 17.5 -38.5 17.5c-11.333 0 -20 -4.16699 -26 -12.5s-10.167 -18.166 -12.5 -29.499s-3.66602 -23 -3.99902 -35s-0.5 -21.667 -0.5 -29h-106z" />
    <glyph glyph-name="uni00A0" unicode="&#xa0;" horiz-adv-x="270" 
 />
    <glyph glyph-name="cent" unicode="&#xa2;" horiz-adv-x="593" 
d="M249 -5c-66 11.333 -114.998 41 -146.998 89s-48 107.667 -48 179c0 35.333 4.16699 68 12.5 98s20.833 56.5 37.5 79.5s37.167 42.333 61.5 58s52.166 26.5 83.499 32.5v144h109v-142c47.333 -6.66699 86.833 -23.667 118.5 -51s51.834 -67 60.501 -119h-118
c-5.33301 22.667 -17.833 40.334 -37.5 53.001s-43.5 19 -71.5 19c-26 0 -48 -4.5 -66 -13.5s-32.667 -21.333 -44 -37s-19.666 -34 -24.999 -55s-8 -43.167 -8 -66.5s2.66699 -45.333 8 -66s13.666 -38.834 24.999 -54.501s26 -28.167 44 -37.5s40.333 -14 67 -14
c29.333 0 53.666 6.5 72.999 19.5s31.666 30.5 36.999 52.5h118c-9.33301 -52.667 -30.333 -92.5 -63 -119.5s-72 -43.833 -118 -50.5v-148h-109v150z" />
    <glyph glyph-name="sterling" unicode="&#xa3;" horiz-adv-x="605" 
d="M459 386l0.000976562 -99.999h-210v-183h302v-103h-497v103h83v183h-83v100h83v128c0 65.333 18.833 115.333 56.5 150s89.167 52 154.5 52c59.333 0 106.166 -13.833 140.499 -41.5s53.166 -69.834 56.499 -126.501h-108c-6 48.667 -36.667 73 -92 73
c-27.333 0 -50.166 -8 -68.499 -24s-27.5 -43.667 -27.5 -83v-128h210z" />
    <glyph glyph-name="yen" unicode="&#xa5;" horiz-adv-x="697" 
d="M531 707h132l-215 -370h108v-87h-149v-77h149v-87h-149v-86h-116v86h-150v87h150v77h-150v87h108l-215 370h133l184 -334z" />
    <glyph glyph-name="section" unicode="&#xa7;" horiz-adv-x="552" 
d="M279 623c-9.33301 0 -19.665 -0.505859 -30.998 -1.50586s-22 -3.5 -32 -7.5s-18.5 -9.83301 -25.5 -17.5s-10.5 -18.5 -10.5 -32.5c0 -11.333 3.33301 -20.5 10 -27.5s14.834 -12.667 24.501 -17s19.834 -7.66602 30.501 -9.99902l29 -6.5l71 -14
c24.667 -4.66699 45.667 -9.66699 63 -15c32.667 -11.333 55.667 -27.666 69 -48.999s20 -47.333 20 -78c0 -19.333 -4.16699 -37.666 -12.5 -54.999s-19.5 -32.333 -33.5 -45c15.333 -11.333 26.833 -25.5 34.5 -42.5s11.5 -35.833 11.5 -56.5
c0 -29.333 -6.16699 -53.833 -18.5 -73.5s-28.333 -35.5 -48 -47.5s-42.167 -20.667 -67.5 -26s-51 -8 -77 -8c-28.667 0 -56.5 2.5 -83.5 7.5s-51.333 13.667 -73 26s-39.167 28.833 -52.5 49.5s-21 46.667 -23 78h107c4 -14.667 10.5 -26.667 19.5 -36
s19.167 -16.666 30.5 -21.999s23 -9.16602 35 -11.499s23.667 -3.5 35 -3.5c12 0 24.167 0.666992 36.5 2s23.5 4 33.5 8s18.333 10 25 18s10 19 10 33c0 15.333 -6.33301 26.5 -19 33.5s-26.334 11.833 -41.001 14.5c-7.33301 2 -18.833 4.5 -34.5 7.5l-64.5 12
c-27.333 5 -52.833 12.667 -76.5 23s-43.334 25 -59.001 44s-23.5 45.167 -23.5 78.5c0 44.667 17 81 51 109c-14 12 -25 26 -33 42s-12 34.333 -12 55c0 28.667 6.16699 52.834 18.5 72.501s28.333 35.5 48 47.5s41.667 20.5 66 25.5s48.5 7.5 72.5 7.5
c26 0 51 -2.83301 75 -8.5s45.167 -14.667 63.5 -27s33.5 -28 45.5 -47s19 -41.833 21 -68.5h-101c-2 10 -6.33301 18.833 -13 26.5s-14.834 14 -24.501 19s-20.334 8.66699 -32.001 11s-23.167 3.5 -34.5 3.5zM205.001 424.994
c-8.66699 -6.66699 -15.8291 -15.334 -21.4961 -26.001s-8.5 -21.667 -8.5 -33c0 -17.333 6.16699 -30.833 18.5 -40.5s27.666 -16.667 45.999 -21s38.333 -8.33301 60 -12l60.5 -10.5c9.33301 5.33301 17.166 12.833 23.499 22.5s9.5 20.834 9.5 33.501
c0 18.667 -6.33301 32.5 -19 41.5s-27.667 15.5 -45 19.5c-28.667 6 -52.334 10.667 -71.001 14s-36.334 7.33301 -53.001 12z" />
    <glyph glyph-name="dieresis" unicode="&#xa8;" horiz-adv-x="601" 
d="M184 723c21.333 0 38.666 -6.33301 51.999 -19s20 -29.667 20 -51s-6.66699 -38.333 -20 -51s-30.666 -19 -51.999 -19s-38.666 6.33301 -51.999 19s-20 29.667 -20 51s6.66699 38.333 20 51s30.666 19 51.999 19zM417 723c21.333 0 38.666 -6.33301 51.999 -19
s20 -29.667 20 -51s-6.66699 -38.333 -20 -51s-30.666 -19 -51.999 -19s-38.5 6.33301 -51.5 19s-19.5 29.667 -19.5 51s6.5 38.333 19.5 51s30.167 19 51.5 19z" />
    <glyph glyph-name="copyright" unicode="&#xa9;" horiz-adv-x="920" 
d="M461 722c60 0 114.83 -10 164.497 -30s92.334 -48 128.001 -84s63.334 -79.5 83.001 -130.5s29.5 -107.5 29.5 -169.5c0 -64 -9.66699 -121.5 -29 -172.5s-46.666 -94.333 -81.999 -130s-78 -63 -128 -82s-105.333 -28.5 -166 -28.5c-61.333 0 -117 9.5 -167 28.5
s-92.833 46.333 -128.5 82s-63.167 79 -82.5 130s-29 108.5 -29 172.5c0 62.667 9.83301 119.5 29.5 170.5s47.5 94.5 83.5 130.5s79 63.833 129 83.5s105 29.5 165 29.5zM462.997 637c-47.333 0 -90.5 -7.66699 -129.5 -23s-72.5 -37.333 -100.5 -66
s-49.667 -63.334 -65 -104.001s-23 -86.334 -23 -137.001c0 -51.333 7.5 -97.166 22.5 -137.499s36.5 -74.666 64.5 -102.999s61.5 -50 100.5 -65s82.5 -22.5 130.5 -22.5s91.333 7.5 130 22.5s71.834 36.667 99.501 65s48.834 62.666 63.501 102.999s22 86.166 22 137.499
c0 50.667 -7.66699 96.334 -23 137.001s-36.833 75.334 -64.5 104.001s-60.834 50.667 -99.501 66s-81.334 23 -128.001 23zM469.997 96c-33.333 0 -62.333 5.16406 -87 15.4971s-45.167 24.833 -61.5 43.5s-28.666 41.167 -36.999 67.5s-12.5 55.166 -12.5 86.499
c0 30.667 4.33301 58.834 13 84.501s21.334 47.834 38.001 66.501s37.167 33.167 61.5 43.5s52.5 15.5 84.5 15.5c48 0 87.5 -11 118.5 -33s50.833 -57.333 59.5 -106h-96c-4.66699 17.333 -14.167 30.833 -28.5 40.5s-32.166 14.5 -53.499 14.5
c-18.667 0 -34.5 -3.33301 -47.5 -10s-23.667 -15.667 -32 -27s-14.333 -24.666 -18 -39.999s-5.5 -31.666 -5.5 -48.999c0 -18 2 -34.667 6 -50s10.167 -28.833 18.5 -40.5s19.166 -20.834 32.499 -27.501s29.666 -10 48.999 -10c22 0 39.833 4.83301 53.5 14.5
s22.5 22.834 26.5 39.501h97c-8.66699 -48.667 -28.834 -84 -60.501 -106s-71.167 -33 -118.5 -33z" />
    <glyph glyph-name="guillemotleft" unicode="&#xab;" horiz-adv-x="525" 
d="M272 86h-118l-120 181l120 182h118l-125 -182zM471 86h-118l-120 181l120 182h118l-123 -182z" />
    <glyph glyph-name="uni00AD" unicode="&#xad;" horiz-adv-x="455" 
d="M69 335h317v-98h-317v98z" />
    <glyph glyph-name="registered" unicode="&#xae;" horiz-adv-x="476" 
d="M239 738c58 0 104.168 -17 138.501 -51s51.5 -81.333 51.5 -142s-17.167 -107.334 -51.5 -140.001s-80.5 -49 -138.5 -49c-58.667 0 -105.334 16.333 -140.001 49s-52 79.334 -52 140.001s17.5 108 52.5 142s81.5 51 139.5 51zM239.001 691
c-43.333 0 -77.666 -13 -102.999 -39s-38 -61.667 -38 -107s12.667 -80 38 -104s59.666 -36 102.999 -36c42.667 0 76.5 12 101.5 36s37.5 58.667 37.5 104s-12.333 81 -37 107s-58.667 39 -102 39zM333.001 452l-54 0.000976562l-47 69h-22v-69h-45v197h81
c21.333 0 39 -4.33301 53 -13s21 -25.334 21 -50.001c0 -29.333 -12.333 -49 -37 -59zM246.001 561.001c7.33301 0 13.999 2 19.999 6s9 10 9 18c0 8.66699 -2.66699 14.5 -8 17.5s-11.666 4.5 -18.999 4.5h-38v-46h36z" />
    <glyph glyph-name="degree" unicode="&#xb0;" horiz-adv-x="389" 
d="M195 787c20 0 38.5029 -3.33203 55.5029 -9.99902s31.833 -16.167 44.5 -28.5s22.5 -27.333 29.5 -45s10.5 -37.834 10.5 -60.501c0 -45.333 -13.333 -79.833 -40 -103.5s-60.334 -35.5 -101.001 -35.5c-41.333 0 -75 11.833 -101 35.5s-39 58.167 -39 103.5
c0 22 3.66699 42 11 60s17.166 33.167 29.499 45.5s27.166 21.833 44.499 28.5s36 10 56 10zM195.003 574.001c19.333 0 35.166 6 47.499 18s18.5 29.333 18.5 52c0 23.333 -6.16699 41.166 -18.5 53.499s-28.166 18.5 -47.499 18.5s-35.5 -6.16699 -48.5 -18.5
s-19.5 -30.166 -19.5 -53.499c0 -22.667 6.33301 -40 19 -52s29 -18 49 -18z" />
    <glyph glyph-name="plusminus" unicode="&#xb1;" horiz-adv-x="564" 
d="M69 486h164v167h97v-167h165v-98h-165v-124h-97v124h-164v98zM69 223h426v-98h-426v98z" />
    <glyph glyph-name="twosuperior" unicode="&#xb2;" horiz-adv-x="363" 
d="M183 484l126.001 0.00488281v-81h-256v72l49.5 40c16.333 13.333 32.5 27.333 48.5 42c6.66699 6 14.334 12.5 23.001 19.5s16.667 14.667 24 23s13.666 17.166 18.999 26.499s8 18.666 8 27.999c0 13.333 -4 23.333 -12 30s-18.333 10 -31 10
c-14 0 -25.167 -2.83301 -33.5 -8.5s-13.833 -15.834 -16.5 -30.501h-82c1.33301 40 14.833 70.167 40.5 90.5s57.5 30.5 95.5 30.5c18 0 34.667 -2.5 50 -7.5s28.666 -12.5 39.999 -22.5s20.333 -22.333 27 -37s10 -31.334 10 -50.001c0 -24 -5.66699 -45.333 -17 -64
s-25.333 -36 -42 -52c-11.333 -10.667 -23 -20.834 -35 -30.501z" />
    <glyph glyph-name="threesuperior" unicode="&#xb3;" horiz-adv-x="391" 
d="M289 603c17.333 -7.33301 30.335 -18.832 39.002 -34.499s12.667 -33.167 12 -52.5c0 -20.667 -3.83301 -38.334 -11.5 -53.001s-17.834 -26.667 -30.501 -36s-27.5 -16.166 -44.5 -20.499s-34.833 -6.5 -53.5 -6.5c-20 0 -38.833 2.33301 -56.5 7s-33.167 12 -46.5 22
s-24.166 22.833 -32.499 38.5s-13.166 34.167 -14.499 55.5h87c3.33301 -16 10.666 -27 21.999 -33s24.333 -9 39 -9c13.333 0 25 2.66699 35 8s15 15.666 15 30.999c0 12.667 -4 21.334 -12 26.001s-17.667 7 -29 7h-45v74h31c12 0 22.167 2.83301 30.5 8.5
s12.5 15.167 12.5 28.5c-0.666992 11.333 -5.16699 19.333 -13.5 24s-17.5 7 -27.5 7c-12.667 0 -23.334 -2.83301 -32.001 -8.5s-14.334 -15.167 -17.001 -28.5h-86c3.33301 40 17.833 69.667 43.5 89s57.5 29 95.5 29c16 0 31.667 -1.83301 47 -5.5s29 -9.5 41 -17.5
s21.667 -18.5 29 -31.5s11 -28.5 11 -46.5c0 -14.667 -3.5 -28.334 -10.5 -41.001s-16.167 -23 -27.5 -31z" />
    <glyph glyph-name="acute" unicode="&#xb4;" horiz-adv-x="363" 
d="M104 630l98 159h117l-115 -159h-100z" />
    <glyph glyph-name="cedilla" unicode="&#xb8;" horiz-adv-x="605" 
d="M321 16l-7.99805 -33.499c-3.33301 -13.667 -6.33301 -24.5 -9 -32.5c3.33301 0.666992 6.66602 1 9.99902 1h10c25.333 0 45.833 -7 61.5 -21s23.5 -35 23.5 -63c0 -22 -4.33301 -40.833 -13 -56.5s-20 -28.334 -34 -38.001s-29.833 -16.667 -47.5 -21
s-35.5 -6.5 -53.5 -6.5c-14.667 0 -31 1 -49 3v17l1 32v17c5.33301 -0.666992 10.666 -1 15.999 -1h16c24 0 43 3.16699 57 9.5s21 17.833 21 34.5c0 12.667 -5 21.667 -15 27s-23 8 -39 8c-10 0 -19.833 -0.333008 -29.5 -1s-18.167 -1.66699 -25.5 -3l33 128h74z" />
    <glyph glyph-name="guillemotright" unicode="&#xbb;" horiz-adv-x="525" 
d="M54 449h117l120 -182l-120 -181h-117l122 181zM252 449h118l121 -182l-121 -181h-118l125 181z" />
    <glyph glyph-name="Acircumflex" unicode="&#xc2;" horiz-adv-x="689" 
d="M381 953l146 -188h-106l-73 100l-73 -100h-106l145 188h67zM418 707l266 -707h-126l-53 143h-320l-54 -143h-126l269 707h144zM469 247l-124 345l-125 -345h249z" />
    <glyph glyph-name="Adieresis" unicode="&#xc4;" horiz-adv-x="689" 
d="M230 921c21.333 0 38.666 -6.16699 51.999 -18.5s20 -29.166 20 -50.499s-6.66699 -38.166 -20 -50.499s-30.666 -18.5 -51.999 -18.5s-38.666 6.16699 -51.999 18.5s-20 29.166 -20 50.499s6.66699 38.166 20 50.499s30.666 18.5 51.999 18.5zM463 921
c21.333 0 38.666 -6.16699 51.999 -18.5s20 -29.166 20 -50.499s-6.66699 -38.166 -20 -50.499s-30.666 -18.5 -51.999 -18.5s-38.5 6.16699 -51.5 18.5s-19.5 29.166 -19.5 50.499s6.5 38.166 19.5 50.499s30.167 18.5 51.5 18.5zM418 707l133.5 -353.5l132.5 -353.5h-126
l-53 143h-320l-54 -143h-126l269 707h144zM469 247l-61.5 172.5l-62.5 172.5l-125 -345h249z" />
    <glyph glyph-name="Ccedilla" unicode="&#xc7;" horiz-adv-x="713" 
d="M376 612c-38 0 -70.501 -6.99805 -97.501 -20.998s-49.167 -32.833 -66.5 -56.5s-30 -51 -38 -82s-12 -63.167 -12 -96.5c0 -34.667 4.16699 -67.667 12.5 -99s21.333 -58.833 39 -82.5s40.167 -42.5 67.5 -56.5s59.666 -21 96.999 -21c46 0 84.5 9.66699 115.5 29
s50.5 46.666 58.5 81.999h118c-5.33301 -32 -15.666 -60.833 -30.999 -86.5s-34.666 -47.5 -57.999 -65.5s-50 -32.167 -80 -42.5s-62.333 -16.5 -97 -18.5c-1.33301 -7.33301 -3 -14.833 -5 -22.5l-6 -22.5c3.33301 0.666992 6.66602 1 9.99902 1h10c25.333 0 46 -7 62 -21
s24 -35 24 -63c0 -22 -4.16699 -40.667 -12.5 -56s-19.5 -28 -33.5 -38s-30 -17.167 -48 -21.5s-36.333 -6.5 -55 -6.5c-14 0 -30 1 -48 3v16l1 33v16c5.33301 -0.666992 10.333 -1 15 -1h14c25.333 0 45.166 3.16699 59.499 9.5s21.5 18.166 21.5 35.499
c0 14.667 -6.5 24.334 -19.5 29.001s-27.5 7 -43.5 7c-8.66699 0 -17.167 -0.5 -25.5 -1.5s-15.166 -2.16699 -20.499 -3.5l28 108c-48 4.66699 -90 16.667 -126 36s-66.167 44.833 -90.5 76.5s-42.5 68.334 -54.5 110.001s-18 86.834 -18 135.501
c0 51.333 7.16699 99.166 21.5 143.499s35.5 82.666 63.5 114.999s62.833 57.666 104.5 75.999s90.167 27.5 145.5 27.5c78 0 142.333 -18.333 193 -55s81.334 -90.667 92.001 -162h-114c-8.66699 34.667 -28 62.167 -58 82.5s-68.333 30.5 -115 30.5z" />
    <glyph glyph-name="Ecircumflex" unicode="&#xca;" horiz-adv-x="616" 
d="M364 965l146 -186h-107l-74 98l-73 -98h-106l145 186h69zM82 0v707h491v-104h-375v-201h332v-105h-332v-194h375v-103h-491z" />
    <glyph glyph-name="Icircumflex" unicode="&#xce;" horiz-adv-x="212" 
d="M140 963l146 -188h-107l-73 99l-73 -99h-107l145 188h69zM165 0h-116v707h116v-707z" />
    <glyph glyph-name="Odieresis" unicode="&#xd6;" horiz-adv-x="761" 
d="M267 921c21.333 0 38.666 -6.16699 51.999 -18.5s20 -29.166 20 -50.499s-6.66699 -38.166 -20 -50.499s-30.666 -18.5 -51.999 -18.5s-38.666 6.16699 -51.999 18.5s-20 29.166 -20 50.499s6.66699 38.166 20 50.499s30.666 18.5 51.999 18.5zM500 921
c21.333 0 38.666 -6.16699 51.999 -18.5s20 -29.166 20 -50.499s-6.66699 -38.166 -20 -50.499s-30.666 -18.5 -51.999 -18.5c-20.667 0 -37.667 6.16699 -51 18.5s-20 29.166 -20 50.499s6.66699 38.166 20 50.499s30.333 18.5 51 18.5zM380 -7
c-55.333 0 -103.831 9.16699 -145.498 27.5s-76.834 43.5 -105.501 75.5s-50.167 70 -64.5 114s-21.5 92 -21.5 144s7.33301 100.167 22 144.5s36.167 82.5 64.5 114.5s63.5 57.167 105.5 75.5s90.667 27.5 146 27.5c54.667 0 103 -9 145 -27s77.333 -43 106 -75
s50.167 -70 64.5 -114s21.5 -92.333 21.5 -145c0 -52 -7.33301 -100.167 -22 -144.5s-36.334 -82.5 -65.001 -114.5s-64 -57.167 -106 -75.5s-90.333 -27.5 -145 -27.5zM381.002 612c-38 0 -70.8311 -6.99902 -98.498 -20.999s-50.5 -32.833 -68.5 -56.5
s-31.333 -51 -40 -82s-13 -63.5 -13 -97.5s4.33301 -66.5 13 -97.5s22 -58.5 40 -82.5s40.833 -43 68.5 -57s60.5 -21 98.5 -21c37.333 0 69.666 7 96.999 21s50 32.667 68 56s31.333 50.666 40 81.999s13 64 13 98s-4.33301 66.667 -13 98s-21.834 58.833 -39.501 82.5
s-40.167 42.5 -67.5 56.5s-60 21 -98 21z" />
    <glyph glyph-name="multiply" unicode="&#xd7;" horiz-adv-x="526" 
d="M263 292l-147 -149l-66 67l146 147l-146 147l66 67l147 -148l146 147l67 -66l-147 -147l147 -146l-67 -68z" />
    <glyph glyph-name="Udieresis" unicode="&#xdc;" horiz-adv-x="726" 
d="M246 924c21.333 0 38.666 -6.16699 51.999 -18.5s20 -29.166 20 -50.499s-6.66699 -38.166 -20 -50.499s-30.666 -18.5 -51.999 -18.5s-38.666 6.16699 -51.999 18.5s-20 29.166 -20 50.499s6.66699 38.166 20 50.499s30.666 18.5 51.999 18.5zM479 924
c21.333 0 38.833 -6.16699 52.5 -18.5s20.5 -29.166 20.5 -50.499s-6.83301 -38.166 -20.5 -50.499s-31.167 -18.5 -52.5 -18.5c-20.667 0 -37.667 6.16699 -51 18.5s-20 29.166 -20 50.499s6.66699 38.166 20 50.499s30.333 18.5 51 18.5zM649 707v-388
c0 -48.667 -5 -92.667 -15 -132s-26.167 -73.5 -48.5 -102.5s-51.833 -51.667 -88.5 -68s-81.334 -24.5 -134.001 -24.5s-97.167 8 -133.5 24s-65.833 38.5 -88.5 67.5s-39 63.5 -49 103.5s-15 84 -15 132v388h116v-394c0 -29.333 2.66699 -57.166 8 -83.499
s14.5 -49.333 27.5 -69s30.5 -35.334 52.5 -47.001s50 -17.5 84 -17.5c32.667 0 59.834 5.66699 81.501 17s39 26.833 52 46.5s22 42.667 27 69s7.5 54.5 7.5 84.5v394h116z" />
    <glyph glyph-name="acircumflex" unicode="&#xe2;" horiz-adv-x="566" 
d="M322 790l73 -95l73 -94h-107l-37 48.5l-37 49.5l-73 -98h-107l145 189h70zM406 0c-1.33301 11.333 -2.16211 22.501 -2.49512 33.501s-0.833008 22.167 -1.5 33.5c-10 -14 -21.667 -25.833 -35 -35.5s-27.833 -17.334 -43.5 -23.001s-31.834 -9.66699 -48.501 -12
s-33 -3.5 -49 -3.5c-22.667 0 -45.5 3.33301 -68.5 10s-42.833 16.834 -59.5 30.501s-29.834 30.667 -39.501 51s-14.5 43.5 -14.5 69.5c0 33.333 7.16699 60.5 21.5 81.5s33.166 37.5 56.499 49.5s49.333 20 78 24s57.667 6 87 6h109c0 37.333 -8.5 67.166 -25.5 89.499
s-45.5 33.5 -85.5 33.5c-23.333 0 -45 -4 -65 -12s-33.667 -22.667 -41 -44h-119c3.33301 26.667 12.166 49.667 26.499 69s31.666 35.5 51.999 48.5s43 22.333 68 28s50.5 8.5 76.5 8.5c32.667 0 63 -4.16699 91 -12.5s52.333 -22.833 73 -43.5
c23.333 -23.333 39 -52 47 -86s12 -70.667 12 -110v-284h-100zM396.004 235.001l-113 0.00195312c-19.333 0 -38.333 -1.33301 -57 -4s-34.5 -9.83398 -47.5 -21.501s-19.833 -27.834 -20.5 -48.501c0 -25.333 9.33301 -44.5 28 -57.5s40.667 -19.5 66 -19.5
c21.333 0 41 3 59 9s33.167 15 45.5 27s22 27.5 29 46.5s10.5 41.833 10.5 68.5z" />
    <glyph glyph-name="adieresis" unicode="&#xe4;" horiz-adv-x="566" 
d="M171 729c21.333 0 38.666 -6.33301 51.999 -19s20 -29.667 20 -51s-6.66699 -38.5 -20 -51.5s-30.666 -19.5 -51.999 -19.5s-38.833 6.5 -52.5 19.5s-20.5 30.167 -20.5 51.5s6.83301 38.333 20.5 51s31.167 19 52.5 19zM405 729c21.333 0 38.666 -6.33301 51.999 -19
s20 -29.667 20 -51s-6.66699 -38.5 -20 -51.5s-30.666 -19.5 -51.999 -19.5c-20.667 0 -37.667 6.5 -51 19.5s-20 30.167 -20 51.5s6.66699 38.333 20 51s30.333 19 51 19zM406 0c-1.33301 11.333 -2.16211 22.499 -2.49512 33.499s-0.833008 22.167 -1.5 33.5
c-9.33301 -13.333 -20.833 -24.666 -34.5 -33.999s-28.334 -17 -44.001 -23s-31.834 -10.333 -48.501 -13s-33 -4 -49 -4c-23.333 0 -45.833 3.16699 -67.5 9.5s-41.167 16 -58.5 29s-31 29.667 -41 50s-15 44.5 -15 72.5c0 33.333 7.16699 60.5 21.5 81.5
s33.166 37.5 56.499 49.5s49.333 20 78 24s57.667 6 87 6h109c0 38.667 -8.5 68.834 -25.5 90.501s-45.5 32.5 -85.5 32.5c-22.667 0 -44.334 -3.66699 -65.001 -11s-34.667 -22.333 -42 -45h-118c4 28 13.167 51.667 27.5 71s31.666 35.333 51.999 48s43 21.667 68 27
s50.167 8 75.5 8c32.667 0 63 -4.33301 91 -13s52.333 -23.334 73 -44.001c23.333 -23.333 39 -51.833 47 -85.5s12 -70.167 12 -109.5v-284h-100zM396.004 234.999h-113.002c-19.333 0 -38.166 -1.5 -56.499 -4.5s-34.166 -10.167 -47.499 -21.5s-20.333 -27.333 -21 -48
c0 -25.333 9.33301 -44.5 28 -57.5s40.667 -19.5 66 -19.5c21.333 0 41 3 59 9s33.167 15 45.5 27s22 27.5 29 46.5s10.5 41.833 10.5 68.5z" />
    <glyph glyph-name="ccedilla" unicode="&#xe7;" horiz-adv-x="559" 
d="M331 -145c0 13.333 -5.32715 22.501 -15.9941 27.501s-23.334 7.5 -38.001 7.5c-10 0 -19.833 -0.333008 -29.5 -1s-18.5 -1.66699 -26.5 -3l27 110c-35.333 4 -66 13.167 -92 27.5s-47.833 33.166 -65.5 56.499s-30.667 50.333 -39 81s-12.5 64.334 -12.5 101.001
c0 40 5.5 76.667 16.5 110s27.5 62 49.5 86s48.667 43 80 57s67.666 21 108.999 21c60.667 0 111 -13.833 151 -41.5s65.333 -71.5 76 -131.5h-118c-6 23.333 -18.833 41 -38.5 53s-43.834 18 -72.501 18c-26 0 -47.833 -4.66699 -65.5 -14s-32.167 -22 -43.5 -38
s-19.5 -34.5 -24.5 -55.5s-7.5 -42.833 -7.5 -65.5c0 -23.333 2.83301 -45.333 8.5 -66s14.334 -38.5 26.001 -53.5s26.5 -27 44.5 -36s39.667 -13.5 65 -13.5c30 0 54.667 6.66699 74 20s31.666 31 36.999 53h117c-4.66699 -27.333 -13.167 -51.333 -25.5 -72
s-27.333 -37.834 -45 -51.501s-37.667 -24.334 -60 -32.001s-45.5 -12.5 -69.5 -14.5l-11 -46c3.33301 0.666992 6.83301 1 10.5 1h10.5c25.333 0 45.833 -7.5 61.5 -22.5s23.5 -36.833 23.5 -65.5c0 -22 -4.33301 -40.667 -13 -56s-20.334 -27.833 -35.001 -37.5
s-31.334 -16.667 -50.001 -21s-37.334 -6.5 -56.001 -6.5c-14 0 -29 1 -45 3v17l1 33v17c5.33301 -0.666992 10.5 -1 15.5 -1h15.5c24.667 0 44.167 3.33301 58.5 10s21.5 18.334 21.5 35.001z" />
    <glyph glyph-name="ecircumflex" unicode="&#xea;" horiz-adv-x="570" 
d="M326 790l146 -191h-107l-37 50l-37 50l-73 -100h-107l145 191h70zM152 225c1.33301 -19.333 5.3291 -37.3359 11.9961 -54.0029s15.667 -31.167 27 -43.5s25.5 -22.166 42.5 -29.499s36.833 -11 59.5 -11c24 0 46 4.33301 66 13s34.667 23.667 44 45h118
c-6.66699 -26.667 -17.5 -49.667 -32.5 -69s-32.667 -35.166 -53 -47.499s-42.666 -21.333 -66.999 -27s-50.166 -8.5 -77.499 -8.5c-42 0 -78.833 6.33301 -110.5 19s-58.167 31 -79.5 55s-37.166 52.5 -47.499 85.5s-15.5 70.167 -15.5 111.5c0 40 5.66699 76.5 17 109.5
s27.833 61.5 49.5 85.5s47.834 42.833 78.501 56.5s65.667 20.5 105 20.5c41.333 0 77 -6.83301 107 -20.5s55 -32.167 75 -55.5s35.167 -50.666 45.5 -81.999s15.5 -65.333 15.5 -102c0 -17.333 -1 -34.333 -3 -51h-376zM419.996 310.997
c-1.33301 40 -14 70.998 -38 92.998s-55 33 -93 33c-21.333 0 -40 -3.33301 -56 -10s-29.5 -15.667 -40.5 -27s-19.833 -24.666 -26.5 -39.999s-11 -31.666 -13 -48.999h267z" />
    <glyph glyph-name="icircumflex" unicode="&#xee;" horiz-adv-x="284" 
d="M172 771l142 -177h-108l-69 87l-69 -87h-107l142 177h69zM194 0h-114v527h114v-527z" />
    <glyph glyph-name="odieresis" unicode="&#xf6;" horiz-adv-x="593" 
d="M184 727c21.333 0 38.833 -6.5 52.5 -19.5s20.5 -30.167 20.5 -51.5s-6.83301 -38.333 -20.5 -51s-31.167 -19 -52.5 -19c-20.667 0 -37.667 6.33301 -51 19s-20 29.667 -20 51s6.66699 38.5 20 51.5s30.333 19.5 51 19.5zM419 727c21.333 0 38.666 -6.5 51.999 -19.5
s20 -30.167 20 -51.5s-6.66699 -38.333 -20 -51s-30.666 -19 -51.999 -19s-38.5 6.33301 -51.5 19s-19.5 29.667 -19.5 51s6.5 38.5 19.5 51.5s30.167 19.5 51.5 19.5zM295 536c42 0 79.001 -6.66699 111.001 -20s59.167 -31.833 81.5 -55.5s39.166 -52.167 50.499 -85.5
s17 -70.333 17 -111c0 -41.333 -5.5 -78.5 -16.5 -111.5s-27.5 -61.5 -49.5 -85.5s-49.167 -42.333 -81.5 -55s-69.833 -19 -112.5 -19c-42 0 -79 6.5 -111 19.5s-58.833 31.333 -80.5 55s-38 52.167 -49 85.5s-16.5 70.333 -16.5 111s5.5 77.667 16.5 111
s27.5 61.833 49.5 85.5s49 42.167 81 55.5s68.667 20 110 20zM295.001 92c26 0 48.167 4.5 66.5 13.5s33.333 21.167 45 36.5s20.334 33.333 26.001 54s8.5 43 8.5 67s-2.83301 46.5 -8.5 67.5s-14.334 39.167 -26.001 54.5s-26.667 27.333 -45 36s-40.5 13 -66.5 13
c-25.333 0 -47.166 -4.33301 -65.499 -13s-33.333 -20.667 -45 -36s-20.334 -33.5 -26.001 -54.5s-8.5 -43.5 -8.5 -67.5s2.83301 -46.333 8.5 -67s14.334 -38.667 26.001 -54s26.667 -27.5 45 -36.5s40.166 -13.5 65.499 -13.5z" />
    <glyph glyph-name="divide" unicode="&#xf7;" horiz-adv-x="516" 
d="M257 617c21.333 0 38.333 -6.5 51 -19.5s19 -30.167 19 -51.5s-6.33301 -38.166 -19 -50.499s-29.667 -18.5 -51 -18.5s-38.166 6.16699 -50.499 18.5s-18.5 29.166 -18.5 50.499s6.16699 38.5 18.5 51.5s29.166 19.5 50.499 19.5zM54 408h408v-95h-408v95zM257 239
c21.333 0 38.333 -6.33301 51 -19s19 -29.667 19 -51s-6.33301 -38.333 -19 -51s-29.667 -19 -51 -19s-38.166 6.33301 -50.499 19s-18.5 29.667 -18.5 51s6.16699 38.333 18.5 51s29.166 19 50.499 19z" />
    <glyph glyph-name="udieresis" unicode="&#xfc;" horiz-adv-x="588" 
d="M178 730c21.333 0 38.666 -6.5 51.999 -19.5s20 -30.167 20 -51.5s-6.66699 -38.333 -20 -51s-30.666 -19 -51.999 -19s-38.666 6.33301 -51.999 19s-20 29.667 -20 51s6.66699 38.5 20 51.5s30.666 19.5 51.999 19.5zM412 730c21.333 0 38.666 -6.5 51.999 -19.5
s20 -30.167 20 -51.5s-6.66699 -38.333 -20 -51s-30.666 -19 -51.999 -19s-38.5 6.33301 -51.5 19s-19.5 29.667 -19.5 51s6.5 38.5 19.5 51.5s30.167 19.5 51.5 19.5zM293 91c43.333 0 74.501 12.5 93.501 37.5s28.5 60.167 28.5 105.5v293h113v-297
c0 -43.333 -6 -80.333 -18 -111s-28.333 -55.5 -49 -74.5s-45.167 -32.833 -73.5 -41.5s-59.833 -13 -94.5 -13c-34 0 -65.167 4.16699 -93.5 12.5s-52.833 22 -73.5 41s-36.834 43.833 -48.501 74.5s-17.5 68 -17.5 112v297h113v-293c0 -45.333 9.5 -80.5 28.5 -105.5
s49.5 -37.5 91.5 -37.5z" />
    <glyph glyph-name="Abreve" unicode="&#x102;" horiz-adv-x="689" 
d="M350 860c23.333 0 42.332 5.16797 56.999 15.501s22.667 26.5 24 48.5h97c-1.33301 -50 -17.666 -86.5 -48.999 -109.5s-73.333 -34.5 -126 -34.5c-55.333 0 -99.166 11.167 -131.499 33.5s-48.833 59.166 -49.5 110.499h97c2 -22 10.167 -38.167 24.5 -48.5
s33.166 -15.5 56.499 -15.5zM417.999 707.001l266 -707h-126l-53 143h-320l-54 -143h-126l269 707h144zM468.999 247.001l-124 346l-125 -346h249z" />
    <glyph glyph-name="abreve" unicode="&#x103;" horiz-adv-x="566" 
d="M293 683c24 0 42.999 5.33301 56.999 16s22.333 27.667 25 51h101c-3.33301 -50.667 -21.166 -88.167 -53.499 -112.5s-74.833 -36.5 -127.5 -36.5c-54 0 -97.5 11.5 -130.5 34.5s-51.167 61.167 -54.5 114.5h100c2 -23.333 10.333 -40.333 25 -51s34 -16 58 -16z
M405.999 0c-1.33301 11.333 -2.16504 22.4961 -2.49805 33.4961s-0.833008 22.167 -1.5 33.5c-10.667 -15.333 -23 -27.666 -37 -36.999s-28.833 -16.833 -44.5 -22.5s-31.667 -9.5 -48 -11.5s-31.833 -3 -46.5 -3c-24.667 0 -48 3.33301 -70 10s-41.333 16.834 -58 30.501
s-29.834 30.667 -39.501 51s-14.5 43.5 -14.5 69.5c0 33.333 7.16699 60.5 21.5 81.5s33.166 37.5 56.499 49.5s49.333 20 78 24s57.667 6 87 6h109c0 38.667 -8.5 68.834 -25.5 90.501s-45.5 32.5 -85.5 32.5h-5c-21.333 0 -41.666 -4 -60.999 -12
s-32.666 -22.667 -39.999 -44h-119c3.33301 26.667 12.166 49.834 26.499 69.501s31.666 35.834 51.999 48.501s43 22 68 28s50.5 9 76.5 9c32.667 0 63 -4.33301 91 -13s52.333 -23.334 73 -44.001c23.333 -23.333 39 -52 47 -86s12 -70.667 12 -110v-284h-100z
M396 234.996l-113.002 0.00195312c-19.333 0 -38.166 -1.33301 -56.499 -4s-34.166 -9.83398 -47.499 -21.501s-20.333 -27.834 -21 -48.501c0 -25.333 9.33301 -44.5 28 -57.5s40.667 -19.5 66 -19.5c21.333 0 41 3 59 9s33.167 15 45.5 27s22 27.5 29 46.5
s10.5 41.833 10.5 68.5z" />
    <glyph glyph-name="Idotaccent" unicode="&#x130;" horiz-adv-x="279" 
d="M139 910c21.333 0 38.666 -6.16699 51.999 -18.5s20 -29.166 20 -50.499s-6.66699 -38.166 -20 -50.499s-30.666 -18.5 -51.999 -18.5s-38.5 6.16699 -51.5 18.5s-19.5 29.166 -19.5 50.499s6.5 38.166 19.5 50.499s30.167 18.5 51.5 18.5zM197 0h-116v707h116v-707z" />
    <glyph glyph-name="dotlessi" unicode="&#x131;" horiz-adv-x="238" 
d="M176 0h-114v527h114v-527z" />
    <glyph glyph-name="Scedilla" unicode="&#x15e;" horiz-adv-x="636" 
d="M319 613c-15.333 0 -31.002 -1.33691 -47.002 -4.00391s-30.667 -7.5 -44 -14.5s-24.166 -16.667 -32.499 -29s-12.5 -27.833 -12.5 -46.5c0 -21.333 5.83301 -38.833 17.5 -52.5s25.834 -24.334 42.501 -32.001s35.667 -14 57 -19s40.666 -9.16699 57.999 -12.5
c31.333 -6.66699 61.166 -14.167 89.499 -22.5s53.166 -19.666 74.499 -33.999s38.333 -32.833 51 -55.5s19 -51.334 19 -86.001c0 -36 -6.33301 -67.167 -19 -93.5s-29.834 -48.166 -51.501 -65.499s-47.167 -30.333 -76.5 -39s-61 -13.334 -95 -14.001
c-1.33301 -7.33301 -2.83301 -14.833 -4.5 -22.5s-3.5 -15.167 -5.5 -22.5c3.33301 0.666992 6.83301 1 10.5 1h10.5c24.667 0 45 -7 61 -21s24 -35 24 -63c0 -22 -4.16699 -40.667 -12.5 -56s-19.5 -27.833 -33.5 -37.5s-30 -16.834 -48 -21.501s-36.667 -7 -56 -7
c-14.667 0 -30.334 1 -47.001 3v17l1 32v17c5.33301 -0.666992 10.666 -1 15.999 -1h16c24 0 43 3.16699 57 9.5s21 18.166 21 35.499c0 14.667 -6.16699 24.167 -18.5 28.5s-26.166 6.5 -41.499 6.5c-9.33301 0 -18.166 -0.5 -26.499 -1.5s-15.833 -2.16699 -22.5 -3.5
l27 110c-30.667 3.33301 -59.5 9.83301 -86.5 19.5s-50.833 22.834 -71.5 39.501s-37.667 37.167 -51 61.5s-22 52.833 -26 85.5h119c5.33301 -20 13.833 -36.667 25.5 -50s25.334 -24 41.001 -32s32.5 -13.667 50.5 -17s36.333 -5 55 -5s36.5 1.5 53.5 4.5
s32 8.33301 45 16s23.333 17.667 31 30s11.5 27.5 11.5 45.5v3c0 23.333 -7.33301 41.333 -22 54s-33 22.334 -55 29.001c-24.667 7.33301 -50 13.833 -76 19.5s-51.333 11.834 -76 18.501s-48 14.667 -70 24s-41.167 21.5 -57.5 36.5s-29.333 33.333 -39 55
s-14.5 48.167 -14.5 79.5c0 38 7.33301 70 22 96s34 46.833 58 62.5s51 27 81 34s60.333 10.5 91 10.5c33.333 0 65 -3.66699 95 -11s56.667 -19.166 80 -35.499s42.333 -37.166 57 -62.499s23.334 -56 26.001 -92h-115c-2 18 -7.16699 33 -15.5 45
s-18.666 21.833 -30.999 29.5s-26.666 13.334 -42.999 17.001s-33.5 5.83398 -51.5 6.50098z" />
    <glyph glyph-name="scedilla" unicode="&#x15f;" horiz-adv-x="520" 
d="M259 441c-10 0 -20.4961 -0.671875 -31.4961 -2.00488s-21.333 -4.16602 -31 -8.49902s-17.667 -10.5 -24 -18.5s-9.5 -18.333 -9.5 -31c0 -17.333 6.5 -30.666 19.5 -39.999s30.5 -15.666 52.5 -18.999l93.5 -19.5c30.333 -6.33301 56.666 -14.833 78.999 -25.5
s40 -25.5 53 -44.5s19.5 -45.5 19.5 -79.5c0 -27.333 -5.16699 -51 -15.5 -71s-24.166 -36.333 -41.499 -49s-37.333 -22.167 -60 -28.5s-46.334 -9.83301 -71.001 -10.5l-12 -46c3.33301 0.666992 6.66602 1 9.99902 1h10c26 0 47 -7 63 -21s24 -35.333 24 -64
c0 -22 -4.16699 -40.667 -12.5 -56s-19.5 -28 -33.5 -38s-30.167 -17.167 -48.5 -21.5s-36.833 -6.5 -55.5 -6.5c-14 0 -30 1 -48 3v17l1 32v17c5.33301 -0.666992 10.666 -1 15.999 -1h16c24 0 43 3.16699 57 9.5s21 17.833 21 34.5c0 13.333 -5.66699 22.5 -17 27.5
s-24 7.5 -38 7.5c-10 0 -19.667 -0.333008 -29 -1s-17.666 -1.66699 -24.999 -3l13.5 56.5c4.33301 18.333 9.16602 36.833 14.499 55.5c-22 2.66699 -43.333 7.5 -64 14.5s-39.334 16.667 -56.001 29s-30.5 28 -41.5 47s-17.5 41.5 -19.5 67.5h116
c3.33301 -13.333 9.33301 -24.333 18 -33s18.667 -15.667 30 -21s23 -9 35 -11s23.333 -3 34 -3c9.33301 0 19.666 0.333008 30.999 1s22.5 3.33398 33.5 8.00098s19.5 10.834 25.5 18.501s9 17.834 9 30.501c0 19.333 -7.33301 33.833 -22 43.5
s-34.334 17.167 -59.001 22.5l-77.5 16c-27 5.33301 -52.333 13 -76 23s-43.334 24.5 -59.001 43.5s-23.5 45.167 -23.5 78.5c0 31.333 6.16699 57.5 18.5 78.5s28.5 37.833 48.5 50.5s42.333 21.667 67 27s49.334 8 74.001 8c58 0 105.5 -13.333 142.5 -40
s57.167 -65.334 60.5 -116.001h-107c-3.33301 21.333 -14.166 36.5 -32.499 45.5s-40.166 14.167 -65.499 15.5z" />
    <glyph glyph-name="uni0162" unicode="&#x162;" horiz-adv-x="583" 
d="M327 0l-13 -50.0029c3.33301 0.666992 6.66602 1 9.99902 1h10c24.667 0 45.167 -7.33301 61.5 -22s24.5 -36 24.5 -64c0 -21.333 -4.16699 -39.666 -12.5 -54.999s-19.5 -27.833 -33.5 -37.5s-30 -16.667 -48 -21s-36.333 -6.5 -55 -6.5c-14 0 -30 1 -48 3v17l1 32v17
c6 -0.666992 11.833 -1.16699 17.5 -1.5s11.167 -0.5 16.5 -0.5c23.333 0 41.833 3.33301 55.5 10s20.5 18.334 20.5 35.001c0 7.33301 -1.83301 13.333 -5.5 18s-8.5 8.33398 -14.5 11.001s-12.667 4.5 -20 5.5s-14.666 1.5 -21.999 1.5
c-8.66699 0 -17.167 -0.5 -25.5 -1.5s-15.5 -2.16699 -21.5 -3.5l29 112h-20v603h-225v104h565v-104h-224v-603h-23z" />
    <glyph glyph-name="uni0163" unicode="&#x163;" horiz-adv-x="387" 
d="M220 527h132.999v-99h-133v-243c0 -30 6.33301 -52 19 -66s34.334 -21 65.001 -21h39v-98h-83l-16 -51c3.33301 0.666992 6.83301 1 10.5 1h10.5c25.333 0 46 -7 62 -21s24 -35.667 24 -65c0 -21.333 -4.16699 -39.833 -12.5 -55.5s-19.666 -28.5 -33.999 -38.5
s-30.666 -17.333 -48.999 -22s-37.5 -7 -57.5 -7c-14 0 -29 1 -45 3v17l1 33v17c6 -0.666992 11.667 -1.16699 17 -1.5s10.666 -0.5 15.999 -0.5c24 0 42.833 3.5 56.5 10.5s20.5 18.833 20.5 35.5c0 14 -5.33301 23.333 -16 28s-23 7 -37 7
c-10.667 0 -20.834 -0.333008 -30.501 -1s-18.167 -1.66699 -25.5 -3l35 128c-30 11.333 -51.333 30 -64 56s-19 59.667 -19 101v257h-83v99h83v149h113v-149z" />
    <glyph glyph-name="uni0218" unicode="&#x218;" horiz-adv-x="636" 
d="M319 613c-15.333 0 -31.0049 -1.33398 -47.0049 -4.00098s-30.667 -7.5 -44 -14.5s-24.166 -16.667 -32.499 -29s-12.5 -27.833 -12.5 -46.5c0 -26.667 8.66699 -47.334 26 -62.001s39.333 -25.667 66 -33l112 -28c28 -6.66699 54.333 -14.334 79 -23.001
s46.334 -20 65.001 -34s33.5 -31.833 44.5 -53.5s16.5 -48.5 16.5 -80.5c0 -38 -6.83301 -70.333 -20.5 -97s-32.167 -48.667 -55.5 -66s-50.666 -30 -81.999 -38s-65 -12 -101 -12c-36.667 0 -71.5 3.83301 -104.5 11.5s-62.5 20 -88.5 37s-47.5 38.833 -64.5 65.5
s-27.833 58.667 -32.5 96h119c5.33301 -20 13.833 -36.667 25.5 -50s25.334 -24 41.001 -32s32.5 -13.667 50.5 -17s36.333 -5 55 -5s36.5 1.5 53.5 4.5s32 8.33301 45 16s23.333 17.667 31 30s11.5 27.5 11.5 45.5c0 27.333 -7.33301 46.833 -22 58.5
s-33 20.834 -55 27.501c-24 6.66699 -48.833 13 -74.5 19s-50.834 12.5 -75.501 19.5s-48.167 15.333 -70.5 25s-41.833 22 -58.5 37s-29.834 33.167 -39.501 54.5s-14.5 47.333 -14.5 78c0 38 7.33301 70 22 96s34 46.833 58 62.5s51 27 81 34s60.333 10.5 91 10.5
c33.333 0 65 -3.66699 95 -11s56.667 -19 80 -35s42.333 -36.833 57 -62.5s23.334 -56.5 26.001 -92.5h-115c-2 18 -7.16699 33 -15.5 45s-18.666 21.833 -30.999 29.5s-26.666 13.334 -42.999 17.001s-33.5 5.83398 -51.5 6.50098zM317.995 -189.001
c-17.333 1.33301 -31.499 7.00098 -42.499 17.001s-16.5 23.333 -16.5 40c0 17.333 6 31.333 18 42s26.667 16 44 16c23.333 0 40.666 -7.83301 51.999 -23.5s17 -33.834 17 -54.501c0 -15.333 -2.83301 -30.833 -8.5 -46.5s-13.334 -30.5 -23.001 -44.5
s-21.167 -26.333 -34.5 -37s-27.666 -18.667 -42.999 -24l-24 34c13.333 9.33301 25.833 21 37.5 35s19.5 29.333 23.5 46z" />
    <glyph glyph-name="uni0219" unicode="&#x219;" horiz-adv-x="520" 
d="M259 441c-10 0 -20.5 -0.669922 -31.5 -2.00293s-21.333 -4.16602 -31 -8.49902s-17.667 -10.5 -24 -18.5s-9.5 -18.333 -9.5 -31c0 -13.333 6.16699 -25.666 18.5 -36.999s36.166 -20.333 71.499 -27c34 -6 64.833 -12.333 92.5 -19s51.5 -15.5 71.5 -26.5
s35.5 -25.667 46.5 -44s16.5 -43.166 16.5 -74.499c0 -30 -6.16699 -55.333 -18.5 -76s-28.166 -37.167 -47.499 -49.5s-41.5 -21.166 -66.5 -26.499s-50.167 -8 -75.5 -8c-26.667 0 -53.167 2.66699 -79.5 8s-50.5 14.166 -72.5 26.499s-40.333 29 -55 50
s-23.667 46.833 -27 77.5h116c3.33301 -13.333 9.33301 -24.333 18 -33s18.5 -15.667 29.5 -21s22.5 -9 34.5 -11s23.333 -3 34 -3c6 0 14.667 0.333008 26 1s22.5 2.83398 33.5 6.50098s20.5 9.5 28.5 17.5s12 19 12 33c0 14.667 -4.33301 26.5 -13 35.5s-19.5 16 -32.5 21
s-29.333 9.5 -49 13.5l-58.5 12c-19.333 4 -38.833 9.16699 -58.5 15.5s-37.334 14.5 -53.001 24.5s-28.334 23.5 -38.001 40.5s-14.5 38.5 -14.5 64.5c0 32 6.33301 58.333 19 79s29 37.5 49 50.5s42.333 22 67 27s49 7.5 73 7.5c58 0 105.5 -13.333 142.5 -40
s57.167 -65.334 60.5 -116.001h-107c-3.33301 21.333 -14.166 36.5 -32.499 45.5s-40.166 14.167 -65.499 15.5zM270 -190.003c-17.333 1.33301 -31.501 7 -42.501 17s-16.5 23.333 -16.5 40c0 17.333 6 31.5 18 42.5s26.667 16.5 44 16.5c24 0 41.667 -8 53 -24
s17 -34.333 17 -55c0 -15.333 -2.83301 -30.833 -8.5 -46.5s-13.5 -30.5 -23.5 -44.5s-21.667 -26.333 -35 -37s-27.666 -19 -42.999 -25l-24 35c13.333 9.33301 25.833 21 37.5 35s19.5 29.333 23.5 46z" />
    <glyph glyph-name="uni021A" unicode="&#x21a;" horiz-adv-x="578" 
d="M347 0h-116v603h-222v104h560v-104h-222v-603zM285 -189c-17.333 1.33301 -31.499 7.00098 -42.499 17.001s-16.5 23.333 -16.5 40c0 17.333 6 31.333 18 42s26.667 16 44 16c23.333 0 40.666 -7.83301 51.999 -23.5s17 -33.834 17 -54.501
c0 -15.333 -2.83301 -30.833 -8.5 -46.5s-13.334 -30.5 -23.001 -44.5s-21.167 -26.333 -34.5 -37s-27.666 -18.667 -42.999 -24l-24 34c13.333 9.33301 25.833 21 37.5 35s19.5 29.333 23.5 46z" />
    <glyph glyph-name="uni021B" unicode="&#x21b;" horiz-adv-x="388" 
d="M220 527l134 -0.00195312v-99h-134v-243c0 -29.333 6.33301 -51.166 19 -65.499s34.667 -21.5 66 -21.5h41v-98h-58c-65.333 0 -111.833 13.333 -139.5 40s-41.5 70.334 -41.5 131.001v257h-83v99h83v149h113v-149zM212 -190.002c-17.333 1.33301 -31.499 7 -42.499 17
s-16.5 23.333 -16.5 40c0 17.333 6 31.5 18 42.5s26.667 16.5 44 16.5c23.333 0 40.666 -8 51.999 -24s17 -34.333 17 -55c0 -15.333 -2.83301 -30.833 -8.5 -46.5s-13.334 -30.5 -23.001 -44.5s-21.167 -26.333 -34.5 -37s-27.666 -19 -42.999 -25l-24 35
c13.333 9.33301 25.833 21 37.5 35s19.5 29.333 23.5 46z" />
    <glyph glyph-name="circumflex" unicode="&#x2c6;" horiz-adv-x="573" 
d="M321 764l141 -174h-107l-69 86l-68 -86h-107l141 174h69z" />
    <glyph glyph-name="breve" unicode="&#x2d8;" horiz-adv-x="585" 
d="M292 670c23.333 0 42.332 5.16699 56.999 15.5s23.667 26.166 27 47.499h100c-4.66699 -49.333 -23.167 -86 -55.5 -110s-75.166 -36 -128.499 -36c-54 0 -97.167 12 -129.5 36s-50.5 60.667 -54.5 110h100c3.33301 -21.333 12.333 -37.166 27 -47.499
s33.667 -15.5 57 -15.5z" />
    <glyph glyph-name="uni0326" unicode="&#x326;" horiz-adv-x="444" 
d="M217 -189c-17.333 1.33301 -31.499 7.00098 -42.499 17.001s-16.5 23.333 -16.5 40c0 17.333 6 31.333 18 42s26.667 16 44 16c23.333 0 40.666 -7.83301 51.999 -23.5s17 -33.834 17 -54.501c0 -15.333 -2.83301 -30.833 -8.5 -46.5s-13.334 -30.5 -23.001 -44.5
s-21.167 -26.333 -34.5 -37s-27.666 -18.667 -42.999 -24l-24 34c13.333 9.33301 25.833 21 37.5 35s19.5 29.333 23.5 46z" />
    <glyph glyph-name="uni0401" unicode="&#x401;" horiz-adv-x="616" 
d="M215 928c20.667 0 37.665 -6 50.998 -18s20 -29 20 -51s-6.5 -39.167 -19.5 -51.5s-30.167 -18.5 -51.5 -18.5s-38.666 6.16699 -51.999 18.5s-20 29.5 -20 51.5s6.83301 39 20.5 51s30.834 18 51.501 18zM451.998 928c20.667 0 37.668 -6 51.001 -18s20 -29 20 -51
s-6.5 -39.167 -19.5 -51.5s-30.167 -18.5 -51.5 -18.5c-22 0 -39.5 6.16699 -52.5 18.5s-19.5 29.5 -19.5 51.5s6.66699 39 20 51s30.666 18 51.999 18zM81.999 707h491v-104h-375v-203h332v-104h-332v-193h375v-103h-491v707z" />
    <glyph glyph-name="uni0404" unicode="&#x404;" horiz-adv-x="712" 
d="M370 612c-32 0 -60.332 -5.33594 -84.999 -16.0029s-45.5 -25.167 -62.5 -43.5s-30.333 -40.166 -40 -65.499s-15.5 -53 -17.5 -83h301v-101h-301c1.33301 -30.667 7 -58.667 17 -84s23.833 -47 41.5 -65s39 -32 64 -42s53.5 -15 85.5 -15c19.333 0 38.5 2 57.5 6
s36.667 10.333 53 19s30.5 20 42.5 34s20.667 31.333 26 52h117c-6 -37.333 -18.5 -69.5 -37.5 -96.5s-42.167 -49.333 -69.5 -67s-57.666 -30.667 -90.999 -39s-67.333 -12.5 -102 -12.5c-54.667 0 -102.334 8.83301 -143.001 26.5s-74.5 42.5 -101.5 74.5
s-47.333 69.833 -61 113.5s-20.5 91.5 -20.5 143.5c0 52.667 6.83301 101.334 20.5 146.001s34.334 83.334 62.001 116.001s62 58 103 76s89.167 27 144.5 27c35.333 0 69.166 -4.33301 101.499 -13s61.166 -22 86.499 -40s46.833 -40.667 64.5 -68s29.5 -59.333 35.5 -96
h-113c-5.33301 20 -14 37.167 -26 51.5s-26 26 -42 35s-33.5 15.667 -52.5 20s-38.167 6.5 -57.5 6.5z" />
    <glyph glyph-name="uni0406" unicode="&#x406;" horiz-adv-x="280" 
d="M198 0h-116v707h116v-707z" />
    <glyph glyph-name="uni0407" unicode="&#x407;" horiz-adv-x="280" 
d="M219 883c18.667 0 34 -6 46 -18s18 -28 18 -48c0 -20.667 -6 -36.834 -18 -48.501s-27.333 -17.5 -46 -17.5c-19.333 0 -34.833 5.83301 -46.5 17.5s-17.5 27.834 -17.5 48.501c0 20 5.83301 36 17.5 48s27.167 18 46.5 18zM61 883c19.333 0 35 -6 47 -18s18 -28 18 -48
c0 -20.667 -6 -36.834 -18 -48.501s-27.667 -17.5 -47 -17.5s-34.833 5.83301 -46.5 17.5s-17.5 27.834 -17.5 48.501c0 20 5.83301 36 17.5 48s27.167 18 46.5 18zM198 0h-116v707h116v-707z" />
    <glyph glyph-name="uni0410" unicode="&#x410;" horiz-adv-x="689" 
d="M418 707l266 -707h-127l-52 143h-321l-53 -143h-126l268 707h145zM469 247l-124 345l-125 -345h249z" />
    <glyph glyph-name="uni0411" unicode="&#x411;" horiz-adv-x="669" 
d="M82 707l497.002 0.000976562v-104h-381v-177h162c38.667 0 74.167 -3.16699 106.5 -9.5s59.666 -17.5 81.999 -33.5s39.666 -37.167 51.999 -63.5s18.5 -58.833 18.5 -97.5c0 -42.667 -7.83301 -78.334 -23.5 -107.001s-36.5 -51.5 -62.5 -68.5s-55.667 -29 -89 -36
s-68 -10.5 -104 -10.5h-258v707zM198.002 103.001h134c21.333 0 42.333 1.16699 63 3.5s39 7.5 55 15.5s29 19.667 39 35s15 36 15 62c0 24 -4.66699 43 -14 57s-21.5 24.5 -36.5 31.5s-32.167 11.333 -51.5 13s-39 2.5 -59 2.5h-145v-220z" />
    <glyph glyph-name="uni0412" unicode="&#x412;" horiz-adv-x="670" 
d="M81 0l0.000976562 707.001h281c30 0 58.833 -2.66699 86.5 -8s52 -14.666 73 -27.999s37.833 -31.333 50.5 -54s19 -51.667 19 -87c0 -34 -7 -64.333 -21 -91s-37 -47.667 -69 -63c43.333 -10.667 75 -30.834 95 -60.501s30 -65.834 30 -108.501
c0 -44.667 -9 -80.5 -27 -107.5s-41 -47.833 -69 -62.5s-58.833 -24.5 -92.5 -29.5s-65.834 -7.5 -96.501 -7.5h-260zM197.001 603.001v-194h135c16.667 0 33.834 1.33301 51.501 4s33.5 7.83398 47.5 15.501s25.5 18 34.5 31s13.5 30.167 13.5 51.5
c0 20.667 -3.66699 37.167 -11 49.5s-17 21.666 -29 27.999s-25.833 10.333 -41.5 12s-31.834 2.5 -48.501 2.5h-152zM197.001 103.001h141.998c18 0 37.167 1.16699 57.5 3.5s38.833 7.33301 55.5 15s30.5 18.5 41.5 32.5s16.5 33 16.5 57c0 20 -4.16699 36.5 -12.5 49.5
s-19.166 23 -32.499 30s-28.166 11.833 -44.499 14.5s-32.833 4 -49.5 4h-44l-86 -1h-44v-205z" />
    <glyph glyph-name="uni0413" unicode="&#x413;" horiz-adv-x="579" 
d="M82 0v707h473v-104h-357v-603h-116z" />
    <glyph glyph-name="uni0414" unicode="&#x414;" horiz-adv-x="727" 
d="M17 -187v289.998h8c20.667 0 37.5 5.5 50.5 16.5s23.5 26.167 31.5 45.5s13.833 41.833 17.5 67.5s6.5 53.5 8.5 83.5c4 66.667 6.5 131.834 7.5 195.501s2.16699 128.834 3.5 195.501h481v-604h85v-290h-115v187h-463v-187h-115zM509 102.998v499.999h-255l-7 -251
c-0.666992 -16 -1.5 -34.5 -2.5 -55.5s-2.66699 -42.667 -5 -65s-5.83301 -44.666 -10.5 -66.999s-10.667 -42.833 -18 -61.5h298z" />
    <glyph glyph-name="uni0415" unicode="&#x415;" horiz-adv-x="616" 
d="M82 0v707h491v-104h-375v-201h332v-105h-332v-194h375v-103h-491z" />
    <glyph glyph-name="uni0416" unicode="&#x416;" horiz-adv-x="908" 
d="M396 0v297h-96l-159 -297h-132l100 181.5l99 181.5l-197 344h131l165 -306h89v306h116v-306h90l165 306h130l-197 -344l199 -363h-132l-159 297h-96v-297h-116z" />
    <glyph glyph-name="uni0417" unicode="&#x417;" horiz-adv-x="646" 
d="M326 -7c-20.667 0 -46.4941 1.99707 -77.4941 5.99707s-61.5 13.167 -91.5 27.5s-56.167 35.166 -78.5 62.499s-35.5 64 -39.5 110h113c2.66699 -23.333 11.167 -41.833 25.5 -55.5s30.166 -23.834 47.499 -30.501s35.666 -11 54.999 -13s36.333 -3 51 -3
c16.667 0 34.167 1.5 52.5 4.5s35 8.5 50 16.5s27.5 19.333 37.5 34s15 33.667 15 57c0 24.667 -5.33301 43.834 -16 57.501s-23.834 23.667 -39.501 30s-32.667 10.166 -51 11.499s-35.5 2 -51.5 2h-90v99h80c16 0.666992 32.333 2.66699 49 6s31.667 8.83301 45 16.5
s24.333 18 33 31s13.667 29.5 15 49.5c0 20.667 -4.5 37.5 -13.5 50.5s-20.333 23.167 -34 30.5s-28.834 12.333 -45.501 15s-33 4 -49 4c-18 0 -35.833 -1.83301 -53.5 -5.5s-33.5 -9.5 -47.5 -17.5s-25.333 -18 -34 -30s-13.334 -26.333 -14.001 -43h-113
c0 34.667 7.16699 64.5 21.5 89.5s33.666 45.667 57.999 62s52.5 28.333 84.5 36s65.667 11.5 101 11.5c31.333 0 62 -2.83301 92 -8.5s56.833 -15.5 80.5 -29.5s42.834 -32.833 57.501 -56.5s22 -53.5 22 -89.5c0 -13.333 -1.5 -27.166 -4.5 -41.499
s-8 -28.166 -15 -41.499s-16.667 -26.166 -29 -38.499s-27.5 -23.166 -45.5 -32.499c40 -10 70.5 -30.167 91.5 -60.5s31.5 -66.166 31.5 -107.499c0 -40 -7.83301 -73.833 -23.5 -101.5s-36.334 -50 -62.001 -67s-55.167 -29.167 -88.5 -36.5s-67.333 -11 -102 -11z" />
    <glyph glyph-name="uni0418" unicode="&#x418;" horiz-adv-x="747" 
d="M82 0v707h116v-519l363 519h104v-707h-116v514l-363 -514h-104z" />
    <glyph glyph-name="uni0419" unicode="&#x419;" horiz-adv-x="747" 
d="M379 848c24.667 0 44.667 6.00098 60 18.001s24.333 29 27 51h103c-4.66699 -51.333 -23.667 -90.166 -57 -116.499s-78 -39.5 -134 -39.5s-100.667 13.167 -134 39.5s-52 65.166 -56 116.499h103c3.33301 -22.667 12.5 -39.834 27.5 -51.501s35.167 -17.5 60.5 -17.5z
M82 0.000976562v707h116v-519l363 519h104v-707h-116v514l-363 -514h-104z" />
    <glyph glyph-name="uni041A" unicode="&#x41a;" horiz-adv-x="652" 
d="M198 0h-116v707h116v-309h91l218 309h133l-252 -343l255 -364h-135l-208 295h-102v-295z" />
    <glyph glyph-name="uni041B" unicode="&#x41b;" horiz-adv-x="703" 
d="M505 0v603.002h-258c-0.666992 -20.667 -1 -39.5 -1 -56.5s-0.166992 -36.833 -0.5 -59.5s-0.833008 -48.334 -1.5 -77.001s-1.66699 -62 -3 -100c0 -18 -0.5 -36.5 -1.5 -55.5s-2.66699 -37.833 -5 -56.5s-5.33301 -36.334 -9 -53.001s-8.83398 -31.667 -15.501 -45
c-18 -36.667 -42.333 -63.167 -73 -79.5s-71.667 -24.5 -123 -24.5v106c25.333 0 45.5 7.33301 60.5 22s26.333 33.834 34 57.501s12.667 50.667 15 81s4.16602 61.166 5.49902 92.499c0.666992 42.667 1.33398 80.5 2.00098 113.5s1.33398 63.167 2.00098 90.5
s1 52.833 1 76.5s0.333008 47.5 1 71.5h486v-707h-116z" />
    <glyph glyph-name="uni041C" unicode="&#x41c;" horiz-adv-x="872" 
d="M82 0v707h146l211 -362l209 362h142v-707h-115v551l-213 -367h-52l-213 367v-551h-115z" />
    <glyph glyph-name="uni041D" unicode="&#x41d;" horiz-adv-x="735" 
d="M198 400h339v307h116v-707h-116v296h-339v-296h-116v707h116v-307z" />
    <glyph glyph-name="uni041E" unicode="&#x41e;" horiz-adv-x="769" 
d="M384 -7c-55.333 0 -104.166 9.16699 -146.499 27.5s-77.833 43.5 -106.5 75.5s-50.5 70 -65.5 114s-22.5 92 -22.5 144c0 52.667 7.66699 101.167 23 145.5s37.5 82.5 66.5 114.5s64.667 57 107 75s90.833 27 145.5 27s103.167 -8.83301 145.5 -26.5s78 -42.5 107 -74.5
s51 -70.167 66 -114.5s22.5 -92.833 22.5 -145.5c0 -52 -7.5 -100.167 -22.5 -144.5s-37 -82.5 -66 -114.5s-64.833 -57.167 -107.5 -75.5s-91.334 -27.5 -146.001 -27.5zM385 612c-38 0 -70.832 -7.00098 -98.499 -21.001s-50.834 -32.667 -69.501 -56
s-32.5 -50.666 -41.5 -81.999s-13.5 -64 -13.5 -98s4.5 -66.5 13.5 -97.5s22.667 -58.5 41 -82.5s41.5 -43 69.5 -57s61 -21 99 -21c37.333 0 70 6.83301 98 20.5s51.167 32.167 69.5 55.5s32 50.5 41 81.5s13.5 64.167 13.5 99.5c0 34.667 -4.5 67.5 -13.5 98.5
s-22.667 58.333 -41 82s-41.333 42.5 -69 56.5s-60.5 21 -98.5 21z" />
    <glyph glyph-name="uni041F" unicode="&#x41f;" horiz-adv-x="738" 
d="M656 0h-116v603h-342v-603h-116v707h574v-707z" />
    <glyph glyph-name="uni0420" unicode="&#x420;" horiz-adv-x="643" 
d="M82 0v707h259c40.667 0 77.167 -4.5 109.5 -13.5s59.833 -23.167 82.5 -42.5s40.167 -44.166 52.5 -74.499s18.5 -66.5 18.5 -108.5c0 -38.667 -6.33301 -73.334 -19 -104.001s-30.667 -56.5 -54 -77.5s-51.5 -37.167 -84.5 -48.5s-69.833 -17 -110.5 -17h-139v-221h-115
zM197 324l133 0.00195312c22 0 42.5 2.66699 61.5 8s35.5 13.666 49.5 24.999s25.167 25.666 33.5 42.999s12.833 38 13.5 62c0 50 -12.833 86 -38.5 108s-63.167 33 -112.5 33h-140v-279z" />
    <glyph glyph-name="uni0421" unicode="&#x421;" horiz-adv-x="712" 
d="M376 612c-37.333 0 -69.5029 -6.99707 -96.5029 -20.9971s-49.167 -32.667 -66.5 -56s-30.166 -50.5 -38.499 -81.5s-12.5 -63.5 -12.5 -97.5c0 -34.667 4.33301 -67.667 13 -99s21.834 -58.833 39.501 -82.5s40.167 -42.5 67.5 -56.5s59.666 -21 96.999 -21
c46 0 84.5 10 115.5 30s50.5 47 58.5 81h116c-5.33301 -34 -16.5 -64.333 -33.5 -91s-38.167 -49.167 -63.5 -67.5s-54.666 -32.333 -87.999 -42s-69 -14.5 -107 -14.5c-55.333 0 -103.833 9 -145.5 27s-76.5 43 -104.5 75s-49 70 -63 114s-21 92.333 -21 145
c0 51.333 7.16699 99.166 21.5 143.499s35.5 82.666 63.5 114.999s62.833 57.666 104.5 75.999s90.167 27.5 145.5 27.5c78 0 142.333 -18.333 193 -55s81.334 -90.667 92.001 -162h-114c-8.66699 34.667 -28 62.167 -58 82.5s-68.333 30.5 -115 30.5z" />
    <glyph glyph-name="uni0422" unicode="&#x422;" horiz-adv-x="583" 
d="M350 0h-116v603h-225v104h565v-104h-224v-603z" />
    <glyph glyph-name="uni0423" unicode="&#x423;" horiz-adv-x="627" 
d="M349 315l2.50098 7.49902c1 3 3.16699 8.83301 6.5 17.5l15 38l27 67.5l42.5 106.5l62.5 156h128l-220 -518c-12 -26 -26.167 -51.833 -42.5 -77.5s-36.5 -47.5 -60.5 -65.5s-51.333 -30.333 -82 -37s-67.334 -10 -110.001 -10v105c14 0 28.333 0.333008 43 1
s29.5 3.83398 44.5 9.50098s29.5 14.5 43.5 26.5s27 29.333 39 52l-278 514h135z" />
    <glyph glyph-name="uni0424" unicode="&#x424;" horiz-adv-x="852" 
d="M368 -13l0.00195312 113.001h-58c-42 0 -79.5 6.5 -112.5 19.5s-61 31.333 -84 55s-40.5 52.167 -52.5 85.5s-18 70.666 -18 111.999c0 42.667 6.5 80.667 19.5 114s31.5 61.5 55.5 84.5s52.667 40.5 86 52.5s70.333 18 111 18h53v102h116v-102h50
c40.667 0 77.667 -6 111 -18s62.166 -29.333 86.499 -52s43.166 -50.5 56.499 -83.5s20.333 -70.5 21 -112.5c0 -42 -6.16699 -79.833 -18.5 -113.5s-29.833 -62.5 -52.5 -86.5s-50.5 -42.5 -83.5 -55.5s-70.5 -19.5 -112.5 -19.5h-58v-113h-116zM318.002 544.001
c-52 0 -91.666 -15.5 -118.999 -46.5s-41 -71.167 -41 -120.5c0 -26 3.16699 -50 9.5 -72s16.166 -41 29.499 -57s30 -28.333 50 -37s43.667 -13 71 -13h50v346h-50zM484.003 198.001l52 0.00292969c27.333 0 51 4.5 71 13.5s36.5 21.167 49.5 36.5s22.5 33.666 28.5 54.999
s9 44.666 9 69.999c0 24.667 -3.66699 47.5 -11 68.5s-18 39.167 -32 54.5s-31 27.166 -51 35.499s-42.667 12.5 -68 12.5h-48v-346z" />
    <glyph glyph-name="uni0425" unicode="&#x425;" horiz-adv-x="629" 
d="M477 707h136l-227 -352l234 -355h-138l-169 264l-173 -264h-131l235 354l-228 353h138l162 -263z" />
    <glyph glyph-name="uni0426" unicode="&#x426;" horiz-adv-x="737" 
d="M82 0v707h116v-604h325v604h115v-604h85v-290h-115v187h-526z" />
    <glyph glyph-name="uni0427" unicode="&#x427;" horiz-adv-x="678" 
d="M336 343c23.333 0 46.334 0.833008 69.001 2.5s47.667 4.5 75 8.5v353h116v-707h-116v250c-22.667 -4 -47.5 -7 -74.5 -9s-53.167 -3 -78.5 -3c-43.333 0 -81.5 3.83301 -114.5 11.5s-61 20.5 -84 38.5s-40.333 41.833 -52 71.5s-17.5 66.5 -17.5 110.5v237h116v-215
c0 -30.667 3.16699 -55.5 9.5 -74.5s16.166 -34 29.499 -45s30 -18.5 50 -22.5s44 -6.33301 72 -7z" />
    <glyph glyph-name="uni0428" unicode="&#x428;" horiz-adv-x="990" 
d="M82 707h116v-604h239v604h116v-604h239v604h116v-707h-826v707z" />
    <glyph glyph-name="uni0429" unicode="&#x429;" horiz-adv-x="1006" 
d="M82 707h115v-604h240v604h115v-604h239v604h116v-604h85v-290h-115v187h-795v707z" />
    <glyph glyph-name="uni042A" unicode="&#x42a;" horiz-adv-x="750" 
d="M174 603l-165.001 -0.000976562v104h281v-273h157c36.667 0 70.667 -3.5 102 -10.5s58.5 -18.5 81.5 -34.5s41.167 -37.333 54.5 -64s20 -60 20 -100c0 -43.333 -7.33301 -79.333 -22 -108s-34.667 -51.667 -60 -69s-55.166 -29.666 -89.499 -36.999
s-70.833 -11 -109.5 -11h-250v603zM289.999 102.999l128 -0.000976562c21.333 0 42.333 1.33301 63 4s39 8.33398 55 17.001s29 20.667 39 36s15 36 15 62c0 24 -4.66699 43.167 -14 57.5s-21.5 25.333 -36.5 33s-32 12.5 -51 14.5s-38.5 3 -58.5 3h-140v-227z" />
    <glyph glyph-name="uni042B" unicode="&#x42b;" horiz-adv-x="882" 
d="M82 707l115 0.000976562v-273h132c36.667 0 70.667 -3.33301 102 -10s58.5 -18.334 81.5 -35.001s41.167 -38.334 54.5 -65.001s20 -59.667 20 -99c0 -43.333 -7.33301 -79.333 -22 -108s-34.5 -51.667 -59.5 -69s-54.667 -29.666 -89 -36.999s-70.833 -11 -109.5 -11
h-225v707zM684 0.000976562v707h116v-707h-116zM197 103.001h103c21.333 0 42.333 1.33301 63 4s39 8.33398 55 17.001s29 20.667 39 36s15 36 15 62c0 24.667 -4.5 44.167 -13.5 58.5s-21 25.166 -36 32.499s-32.167 12 -51.5 14s-39 3 -59 3h-115v-227z" />
    <glyph glyph-name="uni042C" unicode="&#x42c;" horiz-adv-x="656" 
d="M81 707l116 -0.000976562v-273h156c36.667 0 70.667 -3.33301 102 -10s58.5 -18.167 81.5 -34.5s41 -37.833 54 -64.5s19.833 -60 20.5 -100c0 -43.333 -7.5 -79.333 -22.5 -108s-35.167 -51.667 -60.5 -69s-55 -29.666 -89 -36.999s-70.333 -11 -109 -11h-249v707z
M197 102.999l127.999 0.00195312c20.667 0 41.334 1.33301 62.001 4s39 8.16699 55 16.5s29 20.166 39 35.499s15 35.666 15 60.999c0 24.667 -4.5 44.334 -13.5 59.001s-21 25.667 -36 33s-32.167 12.166 -51.5 14.499s-39.333 3.5 -60 3.5h-138v-227z" />
    <glyph glyph-name="uni042D" unicode="&#x42d;" horiz-adv-x="713" 
d="M344 612c-46 0 -84.9941 -10.1621 -116.994 -30.4951s-52.667 -47.833 -62 -82.5h-115c6 36 18 67.667 36 95s40.333 50 67 68s56.667 31.5 90 40.5s68 13.5 104 13.5c56 0 104.333 -9.5 145 -28.5s74.167 -44.833 100.5 -77.5s45.833 -71.334 58.5 -116.001
s19 -92.334 19 -143.001c0 -51.333 -6.83301 -98.833 -20.5 -142.5s-34.167 -81.5 -61.5 -113.5s-61.666 -57 -102.999 -75s-89.333 -27 -144 -27c-36 0 -70.667 4.16699 -104 12.5s-63.333 21.333 -90 39s-49.167 40 -67.5 67s-30.5 59.167 -36.5 96.5h118
c5.33301 -20 14.166 -37.167 26.499 -51.5s26.666 -25.833 42.999 -34.5s34.166 -15 53.499 -19s39 -6 59 -6c32 0 60.5 5.16699 85.5 15.5s46.167 24.666 63.5 42.999s30.666 40.166 39.999 65.499s14.666 52.666 15.999 81.999h-301v101h301c-2 28 -7.66699 54.667 -17 80
s-22.333 47.5 -39 66.5s-37.334 34 -62.001 45s-53.334 16.5 -86.001 16.5z" />
    <glyph glyph-name="uni042E" unicode="&#x42e;" horiz-adv-x="1008" 
d="M82 0v707.001h116v-304h101c4 45.333 13.833 87.166 29.5 125.499s37.334 71.333 65.001 99s61 49.167 100 64.5s83.833 23 134.5 23c54.667 0 103 -9 145 -27s77.333 -43 106 -75s50.167 -70 64.5 -114s21.5 -92 21.5 -144s-7.33301 -100 -22 -144
s-36.167 -82.167 -64.5 -114.5s-63.5 -57.666 -105.5 -75.999s-90.333 -27.5 -145 -27.5c-50 0 -94.333 7.5 -133 22.5s-71.834 36 -99.501 63s-49.5 59.167 -65.5 96.5s-26 78.666 -30 123.999h-102v-299h-116zM627 611.001c-37.333 0 -69.498 -7 -96.498 -21
s-49 -32.833 -66 -56.5s-29.5 -51 -37.5 -82s-12 -63.5 -12 -97.5s3.83301 -66.5 11.5 -97.5s20 -58.333 37 -82s39 -42.5 66 -56.5s59.5 -21 97.5 -21s70.667 7 98 21s50 32.667 68 56s31.333 50.5 40 81.5s13 61.5 13 91.5v7c0 34 -4.33301 66.5 -13 97.5
s-21.834 58.333 -39.501 82s-40.334 42.5 -68.001 56.5s-60.5 21 -98.5 21z" />
    <glyph glyph-name="uni042F" unicode="&#x42f;" horiz-adv-x="676" 
d="M337 252l-153.999 -252.001h-133l169 268c-50 11.333 -89.667 34.333 -119 69s-44 80.334 -44 137.001c0 42.667 6.5 78.667 19.5 108s31.167 53.333 54.5 72s51.666 32.167 84.999 40.5s70.333 12.5 111 12.5h268v-707h-115v252h-142zM479.001 353.999v248.998h-153
c-51.333 0 -90 -9.5 -116 -28.5s-39 -52.167 -39 -99.5c0.666992 -25.333 6.66699 -46.166 18 -62.499s25.333 -28.666 42 -36.999s35.5 -14 56.5 -17s41.167 -4.5 60.5 -4.5h131z" />
    <glyph glyph-name="uni0430" unicode="&#x430;" horiz-adv-x="566" 
d="M402 65c-17.333 -24.667 -40.335 -42.834 -69.002 -54.501s-60.667 -17.5 -96 -17.5c-28 0 -53.5 3.33301 -76.5 10s-43.167 16.834 -60.5 30.501s-31 30.667 -41 51s-15 43.5 -15 69.5c0 28.667 5.66699 53.167 17 73.5s26.833 36.833 46.5 49.5
s42.834 22.167 69.501 28.5s54.667 9.5 84 9.5h135c0 38.667 -8.66699 68.667 -26 90s-47.666 32.333 -90.999 33c-25.333 0 -47.166 -4.33301 -65.499 -13s-30.5 -23 -36.5 -43h-117c4 28 13.167 51.667 27.5 71s31.666 35.333 51.999 48s43 21.667 68 27s50.167 8 75.5 8
c32.667 0 63 -4.33301 91 -13s52.333 -23.334 73 -44.001c23.333 -24 39 -52.667 47 -86s12 -69.666 12 -108.999v-284h-99zM395.998 234l-110.003 0.000976562c-19.333 0 -38.666 -1.5 -57.999 -4.5s-35.833 -10 -49.5 -21s-20.5 -26.833 -20.5 -47.5
c0 -25.333 9.16699 -44.5 27.5 -57.5s40.833 -19.5 67.5 -19.5c20.667 0 39.834 2.66699 57.501 8s32.834 14.166 45.501 26.499s22.5 28 29.5 47s10.5 41.833 10.5 68.5z" />
    <glyph glyph-name="uni0431" unicode="&#x431;" horiz-adv-x="598" 
d="M152 418c21.333 26.667 48.002 45.8301 80.002 57.4971s64.333 17.5 97 17.5c36 0 68.167 -5.66699 96.5 -17s52.5 -27.333 72.5 -48s35.333 -45.5 46 -74.5s16 -61.5 16 -97.5c0 -38.667 -5.83301 -74.334 -17.5 -107.001s-28.667 -60.5 -51 -83.5
s-49.333 -40.833 -81 -53.5s-67.5 -19 -107.5 -19c-52.667 0.666992 -95.834 11.334 -129.501 32.001s-60.167 47.334 -79.5 80.001s-32.666 69.5 -39.999 110.5s-11 82.5 -11 124.5s3.16699 85 9.5 129s19.166 83 38.499 117c16 26.667 34.5 47.834 55.5 63.501
s44.167 27.667 69.5 36s52.333 14.5 81 18.5l89 12l71.5 8c24.333 2.66699 48.166 8 71.499 16v-109c-12 -5.33301 -28.667 -9.5 -50 -12.5s-44 -5.66699 -68 -8l-71 -7c-23.333 -2.33301 -44 -4.83301 -62 -7.5c-21.333 -3.33301 -40.166 -10.5 -56.499 -21.5
s-29.5 -24.333 -39.5 -40s-17.333 -33.667 -22 -54s-7.33398 -41.166 -8.00098 -62.499zM306.002 91.9961c22.667 0 42.8311 4.33203 60.498 12.999s32.5 19.834 44.5 33.501s21 29.667 27 48s9 37.5 9 57.5c0 20.667 -3.16699 40.167 -9.5 58.5s-15.333 34 -27 47
s-25.834 23.167 -42.501 30.5s-35.667 11 -57 11c-22 0 -41.833 -3.5 -59.5 -10.5s-32.667 -17 -45 -30s-22.166 -28.5 -29.499 -46.5s-11.333 -37.333 -12 -58c0 -20 2.66699 -39.167 8 -57.5s13.833 -34.5 25.5 -48.5s26.334 -25.5 44.001 -34.5
s38.834 -13.5 63.501 -13.5z" />
    <glyph glyph-name="uni0432" unicode="&#x432;" horiz-adv-x="561" 
d="M62 527l225.001 -0.000976562c23.333 0 47 -1.16699 71 -3.5s45.833 -8.16602 65.5 -17.499s35.667 -22.833 48 -40.5s18.833 -41.5 19.5 -71.5c0 -23.333 -5.33301 -45 -16 -65s-27.667 -36.333 -51 -49c32 -8.66699 55.5 -23.834 70.5 -45.501s22.5 -47.5 22.5 -77.5
c0 -28 -5.66699 -52.167 -17 -72.5s-26.333 -36.666 -45 -48.999s-40.334 -21.333 -65.001 -27s-50.667 -8.5 -78 -8.5h-250v527zM177.001 431.999v-121h69c15.333 0 31.166 0.166992 47.499 0.5s31 2.5 44 6.5s23.667 10.333 32 19s12.5 21 12.5 37
c0 14 -3.16699 24.833 -9.5 32.5s-14.166 13.5 -23.499 17.5s-19.833 6.33301 -31.5 7s-22.5 1 -32.5 1h-108zM293.001 95.999c13.333 0 26.501 0.666992 39.501 2s24.667 4.5 35 9.5s18.833 11.667 25.5 20s10 19.5 10 33.5c0 25.333 -7.83301 42.333 -23.5 51
s-34.834 13 -57.501 13h-145v-129h116z" />
    <glyph glyph-name="uni0433" unicode="&#x433;" horiz-adv-x="461" 
d="M62 0v527h381v-99h-267v-428h-114z" />
    <glyph glyph-name="uni0434" unicode="&#x434;" horiz-adv-x="616" 
d="M119 339c2 32 3.33301 63.1689 4 93.502s1 61.833 1 94.5h406v-430h69v-251h-111v154h-360v-154h-111v251c19.333 0 35.5 6.16699 48.5 18.5s21.833 26.166 26.5 41.499c4.66699 10.667 8.66699 25.167 12 43.5s6 36.5 8 54.5s3.66699 34.667 5 50s2 26.666 2 33.999z
M416 428.002l-187.999 0.000976562c-1.33301 -24 -2.33301 -50 -3 -78s-1.66699 -55 -3 -81c-1.33301 -12.667 -2.5 -26.334 -3.5 -41.001s-2.83301 -29.5 -5.5 -44.5s-6.33398 -29.833 -11.001 -44.5s-11 -28.667 -19 -42h233v331z" />
    <glyph glyph-name="uni0435" unicode="&#x435;" horiz-adv-x="576" 
d="M156 225c1.33301 -19.333 5.33008 -37.3359 11.9971 -54.0029s15.667 -31.167 27 -43.5s25.5 -22.166 42.5 -29.499s36.833 -11 59.5 -11c24 0 46.167 4.33301 66.5 13s35.166 23.667 44.499 45h117c-6.66699 -26.667 -17.5 -49.667 -32.5 -69
s-32.667 -35.166 -53 -47.499s-42.666 -21.333 -66.999 -27s-50.166 -8.5 -77.499 -8.5c-42 0 -78.833 6.33301 -110.5 19s-58.167 31 -79.5 55s-37.166 52.5 -47.499 85.5s-15.5 70.167 -15.5 111.5c0 40 5.66699 76.5 17 109.5s27.833 61.5 49.5 85.5
s47.834 42.833 78.501 56.5s65.667 20.5 105 20.5c41.333 0 77 -6.83301 107 -20.5s55.167 -32.167 75.5 -55.5s35.5 -50.666 45.5 -81.999s15 -65.333 15 -102c0 -17.333 -1 -34.333 -3 -51h-376zM423.997 310.997c-2 41.333 -14.833 72.665 -38.5 93.998
s-54.5 32 -92.5 32c-21.333 0 -40 -3.33301 -56 -10s-29.5 -15.667 -40.5 -27s-19.833 -24.666 -26.5 -39.999s-11 -31.666 -13 -48.999h267z" />
    <glyph glyph-name="uni0436" unicode="&#x436;" horiz-adv-x="807" 
d="M347 0v213h-82l-122 -213h-134l167 276l-153 251h127l123 -216h74v216h113v-216h74l123 216h127l-153 -251l167 -276h-134l-122 213h-82v-213h-113z" />
    <glyph glyph-name="uni0437" unicode="&#x437;" horiz-adv-x="529" 
d="M408 282c28 -9.33301 48.6641 -24.498 61.9971 -45.498s20 -44.5 20 -70.5v-4c0 -33.333 -6.66699 -61 -20 -83s-31.166 -39.5 -53.499 -52.5s-46.333 -21.833 -72 -26.5s-51.834 -7 -78.501 -7c-26 0 -52.5 2.5 -79.5 7.5s-51.667 13.833 -74 26.5
s-40.833 29.334 -55.5 50.001s-23 46.667 -25 78h110c2.66699 -13.333 8.5 -24.333 17.5 -33s19.5 -15.667 31.5 -21s24.667 -9 38 -11s25.666 -3 36.999 -3c12 0 25 0.833008 39 2.5s26.5 5 37.5 10s20.167 12 27.5 21s11 20.833 11 35.5c0 25.333 -9.5 42.333 -28.5 51
s-42.833 13 -71.5 13h-88v90h79c24.667 0 45.667 5 63 15s26 27.333 26 52c0 12.667 -3.16699 23.167 -9.5 31.5s-14.166 14.833 -23.499 19.5s-19.666 7.83398 -30.999 9.50098s-21.333 2.5 -30 2.5c-11.333 0 -23 -0.833008 -35 -2.5s-23.333 -4.83398 -34 -9.50098
s-19.667 -11 -27 -19s-11.666 -18.333 -12.999 -31h-109c2.66699 31.333 11 57.166 25 77.499s31.333 36.5 52 48.5s43.5 20.333 68.5 25s49.833 7 74.5 7s48.834 -2.33301 72.501 -7s45.5 -13.334 65.5 -26.001s35.5 -27.834 46.5 -45.501s16.5 -40.5 16.5 -68.5
c0 -25.333 -5.83301 -47 -17.5 -65s-26.5 -32 -44.5 -42z" />
    <glyph glyph-name="uni0438" unicode="&#x438;" horiz-adv-x="609" 
d="M168 0l-106 -0.000976562v527h114v-362l268 362h103v-527h-114v355c-0.666992 -1.33301 -89 -119.666 -265 -354.999z" />
    <glyph glyph-name="uni0439" unicode="&#x439;" horiz-adv-x="609" 
d="M313 668c23.333 0 42.666 5.33301 57.999 16s24 27.667 26 51h100c-4.66699 -52 -23.167 -90 -55.5 -114s-75.166 -36 -128.499 -36c-54.667 0 -98.167 12 -130.5 36s-50.5 62 -54.5 114h100c2.66699 -23.333 11.5 -40.333 26.5 -51s34.5 -16 58.5 -16zM168 0h-106v527
h114v-362l268 362h103v-527h-114v354c-0.666992 -1.33301 -89 -119.333 -265 -354z" />
    <glyph glyph-name="uni043A" unicode="&#x43a;" horiz-adv-x="536" 
d="M62 0v527h113v-215h81l135 215h130l-167 -251l180 -276h-132l-139 213h-88v-213h-113z" />
    <glyph glyph-name="uni043B" unicode="&#x43b;" horiz-adv-x="577" 
d="M111 251c3.33301 45.333 5.50293 90.498 6.50293 135.498s2.16699 91.833 3.5 140.5h394v-527h-115v428h-173c-1.33301 -32.667 -2.5 -65.167 -3.5 -97.5s-2.5 -64.5 -4.5 -96.5c-0.666992 -12 -1.83398 -26.167 -3.50098 -42.5s-3.83398 -32.666 -6.50098 -48.999
s-6.66699 -31.666 -12 -45.999s-12 -27.5 -20 -39.5c-14 -20 -32.5 -34.5 -55.5 -43.5s-49.5 -13.5 -79.5 -13.5h-28v98c20 0 36.167 4.83301 48.5 14.5s21.666 22 27.999 37s11 31.333 14 49s5.16699 35.167 6.5 52.5z" />
    <glyph glyph-name="uni043C" unicode="&#x43c;" horiz-adv-x="713" 
d="M62 527h137l159 -251l158 251h134v-527h-112v378l-167 -260h-27l-170 260v-378h-112v527z" />
    <glyph glyph-name="uni043D" unicode="&#x43d;" horiz-adv-x="586" 
d="M62 0v527h114v-217h234v217h114v-527h-114v211h-234v-211h-114z" />
    <glyph glyph-name="uni043E" unicode="&#x43e;" horiz-adv-x="601" 
d="M299 536c42 0 79.001 -6.66699 111.001 -20s59.167 -31.833 81.5 -55.5s39.166 -52.167 50.499 -85.5s17 -70.333 17 -111c0 -41.333 -5.5 -78.5 -16.5 -111.5s-27.5 -61.5 -49.5 -85.5s-49.167 -42.333 -81.5 -55s-69.833 -19 -112.5 -19c-42 0 -79 6.5 -111 19.5
s-58.833 31.333 -80.5 55s-38 52.167 -49 85.5s-16.5 70.333 -16.5 111s5.5 77.667 16.5 111s27.5 61.833 49.5 85.5s49 42.167 81 55.5s68.667 20 110 20zM299.001 92c26 0 48.167 4.5 66.5 13.5s33.333 21.167 45 36.5s20.334 33.333 26.001 54s8.5 43 8.5 67
s-2.83301 46.5 -8.5 67.5s-14.334 39.167 -26.001 54.5s-26.667 27.333 -45 36s-40.5 13 -66.5 13c-25.333 0 -47.166 -4.33301 -65.499 -13s-33.333 -20.667 -45 -36s-20.334 -33.5 -26.001 -54.5s-8.5 -43.5 -8.5 -67.5s2.83301 -46.333 8.5 -67
s14.334 -38.667 26.001 -54s26.667 -27.5 45 -36.5s40.166 -13.5 65.499 -13.5z" />
    <glyph glyph-name="uni043F" unicode="&#x43f;" horiz-adv-x="586" 
d="M62 0v527h462v-527h-114v428h-234v-428h-114z" />
    <glyph glyph-name="uni0440" unicode="&#x440;" horiz-adv-x="619" 
d="M176 -205l-113.999 -0.00195312v732h108l6 -75c19.333 27.333 44.5 48.166 75.5 62.499s63.5 21.5 97.5 21.5c36 0 68.333 -6.5 97 -19.5s53.167 -31.167 73.5 -54.5s35.666 -51.5 45.999 -84.5s15.5 -70.5 15.5 -112.5c0 -39.333 -5 -75.666 -15 -108.999
s-24.833 -62.166 -44.5 -86.499s-44 -43.166 -73 -56.499s-64.167 -20 -105.5 -20c-32 0 -62.5 5.16699 -91.5 15.5s-54.167 27.5 -75.5 51.5v-265zM325.001 91.998c24.667 0 45.999 4.49902 63.999 13.499s32.833 21.167 44.5 36.5s20.334 33.333 26.001 54s8.5 43 8.5 67
s-2.83301 46.5 -8.5 67.5s-14.334 39.167 -26.001 54.5s-26.667 27.333 -45 36s-40.166 13 -65.499 13c-22.667 0 -43.5 -4.66699 -62.5 -14s-34.833 -21.666 -47.5 -36.999s-22.167 -33.5 -28.5 -54.5s-9.5 -42.5 -9.5 -64.5c0 -24 3 -46.5 9 -67.5s15.167 -39 27.5 -54
s27.833 -27.167 46.5 -36.5s41 -14 67 -14z" />
    <glyph glyph-name="uni0441" unicode="&#x441;" horiz-adv-x="562" 
d="M294 -7c-42 0 -78.832 6.5 -110.499 19.5s-58 31.333 -79 55s-36.667 52 -47 85s-15.5 69.5 -15.5 109.5s5.5 76.667 16.5 110s27.5 62 49.5 86s48.667 43 80 57s67.666 21 108.999 21c29.333 0 56.5 -3.16699 81.5 -9.5s47.167 -16.666 66.5 -30.999s36 -32.333 50 -54
s23.667 -47.834 29 -78.501h-118c-6 22.667 -18.833 40.167 -38.5 52.5s-43.834 18.5 -72.501 18.5c-25.333 0 -47 -4.66699 -65 -14s-32.667 -22 -44 -38s-19.5 -34.5 -24.5 -55.5s-7.5 -42.833 -7.5 -65.5c0 -23.333 2.66699 -45.333 8 -66s13.833 -38.5 25.5 -53.5
s26.5 -27 44.5 -36s39.667 -13.5 65 -13.5c30 0 54.833 6.66699 74.5 20s32.167 31 37.5 53h117c-5.33301 -30 -15.166 -56 -29.499 -78s-31.833 -40 -52.5 -54s-43.667 -24.167 -69 -30.5s-52.333 -9.5 -81 -9.5z" />
    <glyph glyph-name="uni0442" unicode="&#x442;" horiz-adv-x="477" 
d="M473 527v-99h-178v-428h-113v428h-178v99h469z" />
    <glyph glyph-name="uni0443" unicode="&#x443;" horiz-adv-x="572" 
d="M440 527h124.999l-152 -443l-52.5 -145c-15.667 -42 -34.167 -77 -55.5 -105s-47.5 -49.167 -78.5 -63.5s-71.5 -21.5 -121.5 -21.5h-17v102h8c20 0 37.833 2.33301 53.5 7s29.834 11.667 42.501 21s23.667 21.5 33 36.5s18 32.167 26 51.5l-239 560h134l164 -417z" />
    <glyph glyph-name="uni0444" unicode="&#x444;" horiz-adv-x="757" 
d="M322 703l112.999 0.000976562v-168c42 -0.666992 80.333 -7 115 -19s64.5 -29.333 89.5 -52s44.5 -50.834 58.5 -84.501s21 -73.167 21 -118.5c0 -44.667 -7.16699 -83.667 -21.5 -117s-34 -61 -59 -83s-55 -38.667 -90 -50s-72.833 -17.333 -113.5 -18v-193h-113v193
c-42 0.666992 -80.167 6.66699 -114.5 18s-64.166 27.833 -89.499 49.5s-45 49.167 -59 82.5s-21 72 -21 116c0 45.333 6.5 85 19.5 119s31.833 62.5 56.5 85.5s54.5 40.667 89.5 53s74.5 18.5 118.5 18.5v168zM434.999 89.001c56 0 98.167 15.001 126.5 45.001
s42.5 73 42.5 129c0 57.333 -14.5 100.666 -43.5 129.999s-70.833 44 -125.5 44v-348zM321.999 437.002c-55.333 0 -97.333 -14.668 -126 -44.001s-43 -72.666 -43 -129.999c0 -56.667 14.167 -99.667 42.5 -129s70.5 -44.333 126.5 -45v348z" />
    <glyph glyph-name="uni0445" unicode="&#x445;" horiz-adv-x="527" 
d="M387 0l-128 188l-124 -188h-126l182 267l-173 260h132l115 -186l112 186h130l-174 -262l185 -265h-131z" />
    <glyph glyph-name="uni0446" unicode="&#x446;" horiz-adv-x="607" 
d="M405 97v430h114v-430h71v-251h-112v154h-416v527h113v-430h230z" />
    <glyph glyph-name="uni0447" unicode="&#x447;" horiz-adv-x="547" 
d="M39 527h114v-104c0 -26.667 1.16699 -49 3.5 -67s7.5 -32.833 15.5 -44.5s19.667 -20 35 -25s36 -7.5 62 -7.5c16.667 0 34.667 0.833008 54 2.5s35.333 3.5 48 5.5v240h113v-527h-113v188c-15.333 -2.66699 -33.333 -4.66699 -54 -6s-39.667 -2 -57 -2h-22
c-32 0.666992 -60.333 4.83398 -85 12.501s-45.5 19.667 -62.5 36s-29.833 38.166 -38.5 65.499s-13 61 -13 101v132z" />
    <glyph glyph-name="uni0448" unicode="&#x448;" horiz-adv-x="818" 
d="M62 527h114v-430h176v430h113v-430h177v430h114v-527h-694v527z" />
    <glyph glyph-name="uni0449" unicode="&#x449;" horiz-adv-x="843" 
d="M62 527h114v-430h176v430h113v-430h177v430h114v-430h70v-251h-110v154h-654v527z" />
    <glyph glyph-name="uni044A" unicode="&#x44a;" horiz-adv-x="607" 
d="M136 428h-126.999v99h241v-178h117c29.333 0 56.5 -2.66699 81.5 -8s46.667 -14.5 65 -27.5s32.666 -30 42.999 -51s15.5 -46.833 15.5 -77.5c0 -36 -6.33301 -66 -19 -90s-29.5 -43 -50.5 -57s-44.667 -23.833 -71 -29.5s-52.833 -8.5 -79.5 -8.5h-216v428zM345.001 96
c14 0 27.8311 1.33398 41.498 4.00098s25.834 7 36.501 13s19.334 14.167 26.001 24.5s10 23.5 10 39.5c0 18.667 -4.16699 33.167 -12.5 43.5s-18.833 17.666 -31.5 21.999s-26 6.83301 -40 7.5s-26.667 1 -38 1h-87v-155h95z" />
    <glyph glyph-name="uni044B" unicode="&#x44b;" horiz-adv-x="723" 
d="M62 527l115.001 0.000976562v-178h95c29.333 0 56.666 -2.66699 81.999 -8s47.166 -14.5 65.499 -27.5s32.833 -30.167 43.5 -51.5s16 -48 16 -80c0 -36 -6.66699 -65.833 -20 -89.5s-30.666 -42.334 -51.999 -56.001s-45.333 -23.167 -72 -28.5s-53 -8 -79 -8h-194v527z
M547.001 0.000976562v527h113v-527h-113zM246.001 95.001c14.667 0 29.334 1.16602 44.001 3.49902s27.667 6.33301 39 12s20.333 13.834 27 24.501s10 24.667 10 42c0 14.667 -2.5 26.667 -7.5 36s-11.667 16.833 -20 22.5s-17.833 9.5 -28.5 11.5
s-21.334 3.33301 -32.001 4h-101v-155z" />
    <glyph glyph-name="uni044C" unicode="&#x44c;" horiz-adv-x="541" 
d="M62 527l114.001 -0.00195312v-178h118c30.667 0 58.5 -2.5 83.5 -7.5s46.667 -14.167 65 -27.5s32.666 -30.666 42.999 -51.999s15.5 -47.666 15.5 -78.999c0 -35.333 -6.5 -64.833 -19.5 -88.5s-30 -42.5 -51 -56.5s-44.833 -23.833 -71.5 -29.5s-53.667 -8.5 -81 -8.5
h-216v527zM265.001 94.998c15.333 0 30.5 1.16504 45.5 3.49805s28 6.33301 39 12s20 13.834 27 24.501s10.833 24.667 11.5 42c0 18.667 -4 33 -12 43s-18 17.333 -30 22s-25.167 7.33398 -39.5 8.00098s-27.5 1 -39.5 1h-91v-155z" />
    <glyph glyph-name="uni044D" unicode="&#x44d;" horiz-adv-x="554" 
d="M405 309c-2.66699 36.667 -14.832 66.832 -36.499 90.499s-54.167 35.5 -97.5 35.5c-12.667 0 -25.167 -1.16699 -37.5 -3.5s-23.833 -6 -34.5 -11s-20 -11.5 -28 -19.5s-13.667 -17.667 -17 -29h-118c6.66699 28.667 17.5 53.334 32.5 74.001s33 37.834 54 51.501
s44.167 23.5 69.5 29.5s51.666 9 78.999 9c41.333 0 77.333 -6.83301 108 -20.5s56 -32.334 76 -56.001s35.167 -52.167 45.5 -85.5s15.5 -70.333 15.5 -111c0 -40 -5 -76.667 -15 -110s-25 -61.833 -45 -85.5s-45.5 -42 -76.5 -55s-68.167 -19.5 -111.5 -19.5
c-24.667 0 -49.5 2.66699 -74.5 8s-48.333 14.333 -70 27s-40.5 29 -56.5 49s-27 44.667 -33 74h117c4 -10 10.167 -18.833 18.5 -26.5s17.833 -14 28.5 -19s22.167 -8.66699 34.5 -11s24.833 -3.5 37.5 -3.5c44 0 77 11.667 99 35s33.667 53.333 35 90h-213v93h214z" />
    <glyph glyph-name="uni044E" unicode="&#x44e;" horiz-adv-x="793" 
d="M500 536c42 0 78.668 -6.66602 110.001 -19.999s57.833 -32 79.5 -56s38 -52.667 49 -86s16.5 -70.333 16.5 -111c0 -41.333 -5.33301 -78.5 -16 -111.5s-26.667 -61.333 -48 -85s-47.833 -41.834 -79.5 -54.501s-68.834 -19 -111.501 -19
c-76 0 -134.333 19.833 -175 59.5s-64.667 93.5 -72 161.5h-77v-214h-114v527h114v-214h77c8 67.333 32.333 121.333 73 162s98.667 61 174 61zM500.001 92.001c25.333 0 47 4.5 65 13.5s32.833 21 44.5 36s20.167 32.667 25.5 53s8 42.5 8 66.5s-2.66699 46.667 -8 68
s-13.666 39.666 -24.999 54.999s-26 27.5 -44 36.5s-40 13.5 -66 13.5c-25.333 0 -47 -4.5 -65 -13.5s-32.667 -21.167 -44 -36.5s-19.5 -33.666 -24.5 -54.999s-7.5 -44 -7.5 -68s2.66699 -46.167 8 -66.5s13.666 -38 24.999 -53s25.833 -27 43.5 -36
s39.167 -13.5 64.5 -13.5z" />
    <glyph glyph-name="uni044F" unicode="&#x44f;" horiz-adv-x="557" 
d="M494 0h-112.999v180h-95l-123 -180h-134l143 198c-40.667 10 -71.5 28.333 -92.5 55s-31.5 60.667 -31.5 102c0 32.667 5.5 60 16.5 82s26.333 39.833 46 53.5s42.167 23.167 67.5 28.5s52.666 8 81.999 8h234v-527zM381.001 432l-112.998 0.000976562
c-12.667 0 -25.334 -0.833008 -38.001 -2.5s-24.167 -5.33398 -34.5 -11.001s-18.5 -13.5 -24.5 -23.5s-9 -22 -9 -36v-5c0 -17.333 5 -32 15 -44s23 -20.5 39 -25.5s30.667 -8 44 -9s26.666 -1.5 39.999 -1.5h81v158z" />
    <glyph glyph-name="uni0451" unicode="&#x451;" horiz-adv-x="576" 
d="M179 727c21.333 0 38.833 -6.5 52.5 -19.5s20.5 -30.167 20.5 -51.5s-6.83301 -38.333 -20.5 -51s-31.167 -19 -52.5 -19c-20.667 0 -37.667 6.33301 -51 19s-20 29.667 -20 51s6.66699 38.5 20 51.5s30.333 19.5 51 19.5zM414 727c21.333 0 38.666 -6.5 51.999 -19.5
s20 -30.167 20 -51.5s-6.66699 -38.333 -20 -51s-30.666 -19 -51.999 -19s-38.5 6.33301 -51.5 19s-19.5 29.667 -19.5 51s6.5 38.5 19.5 51.5s30.167 19.5 51.5 19.5zM156 225c1.33301 -19.333 5.33008 -37.3359 11.9971 -54.0029s15.834 -31.167 27.501 -43.5
s26 -22.166 43 -29.499s36.833 -11 59.5 -11c24 0 46 4.33301 66 13s34.667 23.667 44 45h117c-6.66699 -26.667 -17.5 -49.667 -32.5 -69s-32.667 -35.166 -53 -47.499s-42.5 -21.333 -66.5 -27s-49.667 -8.5 -77 -8.5c-42 0 -79 6.33301 -111 19s-58.667 31 -80 55
s-37.166 52.5 -47.499 85.5s-15.5 70.167 -15.5 111.5c0 40 5.66699 76.5 17 109.5s27.833 61.5 49.5 85.5s47.834 42.833 78.501 56.5s66 20.5 106 20.5c41.333 0 76.833 -6.83301 106.5 -20.5s54.667 -32.167 75 -55.5s35.5 -50.666 45.5 -81.999s15 -65.333 15 -102
c0 -17.333 -1 -34.333 -3 -51h-376zM423.997 310.997c-1.33301 40 -14 70.998 -38 92.998s-55 33 -93 33c-21.333 0 -40 -3.33301 -56 -10s-29.5 -15.667 -40.5 -27s-19.833 -24.666 -26.5 -39.999s-11 -31.666 -13 -48.999h267z" />
    <glyph glyph-name="uni0454" unicode="&#x454;" horiz-adv-x="553" 
d="M149 309h213.997v-93h-213c1.33301 -40.667 14.666 -71.667 39.999 -93s57.666 -32 96.999 -32c11.333 0 22.833 1 34.5 3s22.834 5.33301 33.501 10s20.167 10.834 28.5 18.501s14.833 17.167 19.5 28.5h116c-5.33301 -27.333 -15.833 -51 -31.5 -71
s-34 -36.5 -55 -49.5s-44 -22.5 -69 -28.5s-50.5 -9 -76.5 -9c-42.667 0 -79.5 6.5 -110.5 19.5s-56.833 31.333 -77.5 55s-36 52.167 -46 85.5s-15 70 -15 110c0 39.333 5.16699 75.666 15.5 108.999s25.833 62 46.5 86s46.5 43 77.5 57s67.5 21 109.5 21
c28.667 0 55.334 -3.16699 80.001 -9.5s46.834 -16.166 66.501 -29.499s36.834 -30.333 51.501 -51s25.334 -45.334 32.001 -74.001h-117c-3.33301 12 -9.16602 22 -17.499 30s-17.833 14.5 -28.5 19.5s-22.334 8.5 -35.001 10.5s-24.334 3 -35.001 3
c-40 0 -71.667 -11 -95 -33s-36.666 -53 -39.999 -93z" />
    <glyph glyph-name="uni0456" unicode="&#x456;" horiz-adv-x="253" 
d="M127 746c20.667 0 37.834 -6.33301 51.501 -19s20.5 -30 20.5 -52c0 -21.333 -6.83301 -38.333 -20.5 -51s-30.834 -19 -51.501 -19c-22 0 -39.667 6.33301 -53 19s-20 29.667 -20 51c0 22 6.66699 39.333 20 52s31 19 53 19zM69 0v527h114v-527h-114z" />
    <glyph glyph-name="uni0457" unicode="&#x457;" horiz-adv-x="253" 
d="M206 733c18.667 0 34 -6.16797 46 -18.501s18 -28.5 18 -48.5s-6 -36 -18 -48s-27.333 -18 -46 -18c-19.333 0 -34.833 5.83301 -46.5 17.5s-17.5 27.834 -17.5 48.501s5.83301 37 17.5 49s27.167 18 46.5 18zM47 732.999c19.333 0 35.166 -6.16797 47.499 -18.501
s18.5 -28.5 18.5 -48.5s-6.16699 -36 -18.5 -48s-28.166 -18 -47.499 -18s-34.833 5.83301 -46.5 17.5s-17.5 27.834 -17.5 48.501s5.83301 37 17.5 49s27.167 18 46.5 18zM70 -0.00195312v527h114v-527h-114z" />
    <glyph glyph-name="uni0490" unicode="&#x490;" horiz-adv-x="579" 
d="M82 0v707h357v125h116v-229h-357v-603h-116z" />
    <glyph glyph-name="uni0491" unicode="&#x491;" horiz-adv-x="461" 
d="M62 0v527h270v141h111v-240h-267v-428h-114z" />
    <glyph glyph-name="uni04C1" unicode="&#x4c1;" horiz-adv-x="908" 
d="M455 859c23.333 0 42.332 5.16699 56.999 15.5s23.667 26.166 27 47.499h100c-4.66699 -49.333 -23.167 -85.833 -55.5 -109.5s-75.5 -35.5 -129.5 -35.5c-53.333 0 -96.166 11.833 -128.499 35.5s-50.5 60.167 -54.5 109.5h100
c3.33301 -21.333 12.333 -37.166 27 -47.499s33.667 -15.5 57 -15.5zM395.999 0v297h-83l-171 -297h-133l212 363l-210 344h133l176 -306h76v306h116v-306h77l177 306h131l-210 -344l212 -363h-133l-171 297h-83v-297h-116z" />
    <glyph glyph-name="uni04C2" unicode="&#x4c2;" horiz-adv-x="801" 
d="M401 674c23.333 0 42.334 5.33301 57.001 16s23.667 26.667 27 48h101c-4.66699 -50 -23.334 -86.833 -56.001 -110.5s-75.667 -35.5 -129 -35.5c-54 0 -97.333 11.833 -130 35.5s-51 60.5 -55 110.5h101c3.33301 -21.333 12.333 -37.333 27 -48s33.667 -16 57 -16z
M457.001 0h-113v213h-64l-136 -213h-135l184 276l-170 251h129l137 -216h55v216h113v-216h55l137 216h129l-170 -251l184 -276h-134l-137 213h-64v-213z" />
    <glyph glyph-name="uni2009" unicode="&#x2009;" horiz-adv-x="110" 
 />
    <glyph glyph-name="endash" unicode="&#x2013;" horiz-adv-x="602" 
d="M69 335h464v-98h-464v98z" />
    <glyph glyph-name="emdash" unicode="&#x2014;" horiz-adv-x="805" 
d="M69 335h667v-98h-667v98z" />
    <glyph glyph-name="quoteleft" unicode="&#x2018;" horiz-adv-x="279" 
d="M148 613c20 -1.33301 35.999 -8.16699 47.999 -20.5s18 -28.166 18 -47.499c0 -22.667 -7 -40 -21 -52s-30 -18 -48 -18h-6c-14 0 -25.833 3 -35.5 9s-17.5 13.5 -23.5 22.5s-10.333 19.333 -13 31s-4 23.5 -4 35.5c0 18 3.33301 36.333 10 55s15.834 36.167 27.501 52.5
s25 30.666 40 42.999s30.833 21.5 47.5 27.5l29 -40c-16.667 -11.333 -31.167 -25.5 -43.5 -42.5s-20.833 -35.5 -25.5 -55.5z" />
    <glyph glyph-name="quoteright" unicode="&#x2019;" horiz-adv-x="279" 
d="M131 593c-20 1.33301 -36.001 7.99902 -48.001 19.999s-18 28 -18 48c0 22.667 7.33301 40 22 52s32.334 18 53.001 18c13.333 0 25 -2.83301 35 -8.5s18 -13 24 -22s10.333 -19.333 13 -31s4 -23.834 4 -36.501c0 -18 -3.5 -36.333 -10.5 -55
s-16.167 -36.167 -27.5 -52.5s-24.5 -30.666 -39.5 -42.999s-30.833 -21.166 -47.5 -26.499l-29 40c16.667 11.333 31.167 25.5 43.5 42.5s20.833 35.167 25.5 54.5z" />
    <glyph glyph-name="quotesinglbase" unicode="&#x201a;" horiz-adv-x="279" 
d="M131 -2c-20 1.33301 -36.001 8.16699 -48.001 20.5s-18 28.5 -18 48.5c0 21.333 6.83301 38 20.5 50s29.834 18 48.501 18h6c24.667 -1.33301 43.5 -11.166 56.5 -29.499s19.5 -38.833 19.5 -61.5v-4c0 -18.667 -3.5 -37.334 -10.5 -56.001s-16.167 -36.167 -27.5 -52.5
s-24.5 -30.833 -39.5 -43.5s-30.833 -21.667 -47.5 -27l-29 39c16.667 12 31.167 26.333 43.5 43s20.833 35 25.5 55z" />
    <glyph glyph-name="quotedblleft" unicode="&#x201c;" horiz-adv-x="485" 
d="M353 613c20.667 -1.33301 37.001 -8.16699 49.001 -20.5s18 -28.166 18 -47.499c0 -22.667 -7 -40 -21 -52s-30 -18 -48 -18h-6c-14 0 -25.833 3 -35.5 9s-17.667 13.5 -24 22.5s-10.833 19.333 -13.5 31s-4 23.5 -4 35.5c0 18 3.33301 36.333 10 55
s15.834 36.167 27.501 52.5s25 30.666 40 42.999s31.167 21.5 48.5 27.5l29 -40c-16.667 -11.333 -31.334 -25.5 -44.001 -42.5s-21.334 -35.5 -26.001 -55.5zM148.001 612.999c20.667 -1.33301 37.001 -8.16699 49.001 -20.5s18 -28.166 18 -47.499
c0 -22.667 -7 -40 -21 -52s-30.333 -18 -49 -18h-6c-14 0 -25.833 3 -35.5 9s-17.5 13.5 -23.5 22.5s-10.333 19.333 -13 31s-4 23.5 -4 35.5c0 18 3.33301 36.333 10 55s15.834 36.167 27.501 52.5s25 30.666 40 42.999s31.167 21.5 48.5 27.5l29 -40
c-16.667 -11.333 -31.334 -25.5 -44.001 -42.5s-21.334 -35.5 -26.001 -55.5z" />
    <glyph glyph-name="quotedblright" unicode="&#x201d;" horiz-adv-x="484" 
d="M131 593c-20.667 1.33301 -36.832 7.99902 -48.499 19.999s-17.5 28 -17.5 48c0 22.667 7 40 21 52s31 18 51 18h3c14 -0.666992 25.833 -3.66699 35.5 -9s17.5 -12.5 23.5 -21.5s10.333 -19.333 13 -31s4 -23.834 4 -36.501c0 -18 -3.33301 -36.333 -10 -55
s-15.834 -36.167 -27.501 -52.5s-25 -30.666 -40 -42.999s-30.833 -21.166 -47.5 -26.499l-29 40c16.667 11.333 31.167 25.5 43.5 42.5s20.833 35.167 25.5 54.5zM336.002 592.999c-20.667 1.33301 -36.832 7.99805 -48.499 19.998s-17.5 28 -17.5 48c0 22.667 7 40 21 52
s31 18 51 18h3c26.667 -1.33301 46 -11.5 58 -30.5s18 -40.167 18 -63.5v-4c0 -18 -3.33301 -36.333 -10 -55s-15.834 -36.167 -27.501 -52.5s-25 -30.666 -40 -42.999s-30.833 -21.166 -47.5 -26.499l-29 40c16.667 11.333 31.167 25.5 43.5 42.5s20.833 35.167 25.5 54.5z
" />
    <glyph glyph-name="quotedblbase" unicode="&#x201e;" horiz-adv-x="484" 
d="M131 -2c-20 1.33301 -36.001 8.16895 -48.001 20.502s-18 28.5 -18 48.5c0 21.333 6.83301 38.166 20.5 50.499s30.834 18.5 51.501 18.5h3c25.333 -2 44.333 -12.167 57 -30.5s19 -38.833 19 -61.5v-4c0 -18.667 -3.5 -37.334 -10.5 -56.001
s-16.167 -36.167 -27.5 -52.5s-24.5 -30.833 -39.5 -43.5s-30.833 -21.667 -47.5 -27l-29 39c16.667 12 31.167 26.333 43.5 43s20.833 35 25.5 55zM335.999 -1.99707c-20 1.33301 -36.001 8.16895 -48.001 20.502s-18 28.5 -18 48.5c0 21.333 6.83301 38.166 20.5 50.499
s30.834 18.5 51.501 18.5h3c25.333 -2 44.333 -12.167 57 -30.5s19 -38.833 19 -61.5v-4c0 -18.667 -3.5 -37.334 -10.5 -56.001s-16.167 -36.167 -27.5 -52.5s-24.5 -30.833 -39.5 -43.5s-30.833 -21.667 -47.5 -27l-29 39c16.667 12 31.167 26.333 43.5 43
s20.833 35 25.5 55z" />
    <glyph glyph-name="bullet" unicode="&#x2022;" horiz-adv-x="362" 
d="M181 491c36 0 66.167 -11.167 90.5 -33.5s36.5 -53.833 36.5 -94.5c0 -38.667 -12.167 -69 -36.5 -91s-54.5 -33 -90.5 -33s-66.167 11 -90.5 33s-36.5 52.333 -36.5 91c0 40.667 12.167 72.167 36.5 94.5s54.5 33.5 90.5 33.5z" />
    <glyph glyph-name="ellipsis" unicode="&#x2026;" horiz-adv-x="743" 
d="M125 139c21.333 0 38.833 -6.66699 52.5 -20s20.5 -31.333 20.5 -54c0 -23.333 -6.83301 -41.333 -20.5 -54s-31.167 -19 -52.5 -19s-38.833 6.33301 -52.5 19s-20.5 30.667 -20.5 54c0 22.667 6.83301 40.667 20.5 54s31.167 20 52.5 20zM372 139
c21.333 0 38.833 -6.66699 52.5 -20s20.5 -31.333 20.5 -54c0 -23.333 -6.83301 -41.333 -20.5 -54s-31.167 -19 -52.5 -19s-38.833 6.33301 -52.5 19s-20.5 30.667 -20.5 54c0 22.667 6.83301 40.667 20.5 54s31.167 20 52.5 20zM618 139
c21.333 0 38.833 -6.66699 52.5 -20s20.5 -31.333 20.5 -54c0 -23.333 -6.83301 -41.333 -20.5 -54s-31.167 -19 -52.5 -19s-38.833 6.33301 -52.5 19s-20.5 30.667 -20.5 54c0 22.667 6.83301 40.667 20.5 54s31.167 20 52.5 20z" />
    <glyph glyph-name="uni202F" unicode="&#x202f;" horiz-adv-x="110" 
 />
    <glyph glyph-name="guilsinglleft" unicode="&#x2039;" horiz-adv-x="327" 
d="M273 86h-119l-120 181l121 182h117l-124 -179z" />
    <glyph glyph-name="guilsinglright" unicode="&#x203a;" horiz-adv-x="326" 
d="M54 449h117l121 -182l-121 -181h-115l121 179z" />
    <glyph glyph-name="Euro" unicode="&#x20ac;" horiz-adv-x="709" 
d="M452 -8c-80 0 -145.331 19.8369 -195.998 59.5039s-85.667 96.167 -105 169.5h-107l16 93h79c-0.666992 13.333 -1 26.666 -1 39.999s1 26.333 3 39h-94l16 93h91c20 73.333 54.833 129.666 104.5 168.999s113.167 59 190.5 59c45.333 0 84.666 -6.5 117.999 -19.5
s64 -33.5 92 -61.5l-60 -82c-23.333 20 -46.333 35 -69 45s-50 15 -82 15c-42.667 0 -79.167 -10.833 -109.5 -32.5s-51.5 -52.5 -63.5 -92.5h264l-16 -93h-268c-1.33301 -12.667 -2 -25.834 -2 -39.501s0.666992 -26.834 2 -39.501h253l-16 -93h-217
c10 -40 31.333 -71.167 64 -93.5s71 -33.5 115 -33.5c32 0 59.667 4.5 83 13.5s46.666 24.5 69.999 46.5l29.5 -39l28.5 -39c-26.667 -28 -57.667 -49 -93 -63s-75.333 -21 -120 -21z" />
    <glyph glyph-name="uni20B4" unicode="&#x20b4;" horiz-adv-x="580" 
d="M311 714c24.667 0 49.333 -2.84082 74 -8.50781s46.834 -15 66.501 -28s35.667 -30 48 -51s18.5 -46.5 18.5 -76.5c0 -16.667 -2.66699 -33.5 -8 -50.5s-13.666 -31.167 -24.999 -42.5h53v-81h-120l-105 -71h225v-80h-325c-7.33301 -4 -13.5 -11.333 -18.5 -22
s-7.5 -20.667 -7.5 -30c0 -15.333 3.33301 -28.166 10 -38.499s15.167 -18.5 25.5 -24.5s22 -10.333 35 -13s25.833 -4 38.5 -4c14 0 27.167 0.833008 39.5 2.5s23.5 5 33.5 10s18.5 12 25.5 21s11.833 20.5 14.5 34.5h112c-1.33301 -31.333 -8.83301 -57.833 -22.5 -79.5
s-31.167 -39.334 -52.5 -53.001s-45.833 -23.5 -73.5 -29.5s-56.5 -9 -86.5 -9c-26.667 0 -52.667 3.16699 -78 9.5s-48 16.333 -68 30s-36.167 30.834 -48.5 51.501s-18.5 45.334 -18.5 74.001c0 10 1.66699 21.833 5 35.5s8.66602 25.167 15.999 34.5h-52v80h114l105 71
h-219v81h325c4.66699 2.66699 9.5 6.83398 14.5 12.501s9.5 12 13.5 19s7.16699 14.333 9.5 22s3.5 14.834 3.5 21.501c0 24.667 -9 43.834 -27 57.501s-42.667 20.834 -74 21.501c-12.667 0 -25.334 -1 -38.001 -3s-24.5 -5.66699 -35.5 -11s-20.333 -12.666 -28 -21.999
s-12.5 -21.666 -14.5 -36.999h-115c2 32 9.83301 59.167 23.5 81.5s31.167 40.5 52.5 54.5s45.833 24.167 73.5 30.5s56.167 9.5 85.5 9.5z" />
    <glyph glyph-name="uni20BD" unicode="&#x20bd;" horiz-adv-x="704" 
d="M54 174l88.999 0.00195312v78h-89v98h89v357h257c39.333 0 75 -3.83301 107 -11.5s59.333 -20.334 82 -38.001s40.167 -40.834 52.5 -69.501s18.5 -64 18.5 -106v-5c0 -34.667 -6.66699 -66.667 -20 -96s-31.666 -53.5 -54.999 -72.5s-51.333 -33.167 -84 -42.5
s-68 -14 -106 -14h-136v-78h201v-92h-201v-82h-116v82h-89v92zM389.999 350.002c21.333 0 41.168 2.33203 59.501 6.99902s34.5 12 48.5 22s25.167 23 33.5 39s12.833 35.667 13.5 59c0 24.667 -3.33301 45.167 -10 61.5s-16.5 29.333 -29.5 39s-28.833 16.334 -47.5 20.001
s-40.334 5.5 -65.001 5.5h-134v-253h131z" />
    <glyph glyph-name="uni2116" unicode="&#x2116;" horiz-adv-x="1068" 
d="M857 392c-26 0 -48.833 4.16797 -68.5 12.501s-36.334 20 -50.001 35s-23.834 32.333 -30.501 52s-10 41.167 -10 64.5c0 48 13.5 87.167 40.5 117.5s66.5 45.5 118.5 45.5c25.333 0 47.833 -4 67.5 -12s36.167 -19.333 49.5 -34s23.333 -31.834 30 -51.501
s10 -41.5 10 -65.5c0 -23.333 -3.5 -44.833 -10.5 -64.5s-17.167 -37 -30.5 -52s-29.666 -26.667 -48.999 -35s-41.666 -12.5 -66.999 -12.5zM54 0.000976562v707h126l318 -528v528h115v-707h-125l-319 526v-526h-115zM857 632.001c-25.333 0 -43.166 -7.66699 -53.499 -23
s-15.5 -33 -15.5 -53c0 -21.333 5.16699 -39.5 15.5 -54.5s28.166 -22.5 53.499 -22.5c24 0 41 7.5 51 22.5s15 33.167 15 54.5c0 20 -5 37.667 -15 53s-27 23 -51 23zM709 348.001h293v-88h-293v88z" />
    <glyph glyph-name="uni2117" unicode="&#x2117;" horiz-adv-x="920" 
d="M461 722c60 0 114.83 -10 164.497 -30s92.334 -48 128.001 -84s63.334 -79.5 83.001 -130.5s29.5 -107.5 29.5 -169.5c0 -64 -9.66699 -121.5 -29 -172.5s-46.666 -94.333 -81.999 -130s-78 -63 -128 -82s-105.333 -28.5 -166 -28.5c-61.333 0 -117 9.5 -167 28.5
s-92.833 46.333 -128.5 82s-63.167 79 -82.5 130s-29 108.5 -29 172.5c0 62.667 9.83301 119.5 29.5 170.5s47.5 94.5 83.5 130.5s79 63.833 129 83.5s105 29.5 165 29.5zM462.997 637c-47.333 0 -90.5 -7.66699 -129.5 -23s-72.5 -37.333 -100.5 -66
s-49.667 -63.334 -65 -104.001s-23 -86.334 -23 -137.001c0 -51.333 7.5 -97.166 22.5 -137.499s36.5 -74.666 64.5 -102.999s61.5 -50 100.5 -65s82.5 -22.5 130.5 -22.5s91.333 7.5 130 22.5s71.834 36.667 99.501 65s48.834 62.666 63.501 102.999s22 86.166 22 137.499
c0 50.667 -7.66699 96.334 -23 137.001s-36.833 75.334 -64.5 104.001s-60.834 50.667 -99.501 66s-81.334 23 -128.001 23zM405.997 75h-87.001v447h168c51.333 0 91.833 -12 121.5 -36s44.834 -62 45.501 -114c0 -53.333 -15.667 -93.5 -47 -120.5
s-72.333 -40.5 -123 -40.5h-78v-136zM479.996 290c25.333 0 46.332 6.33203 62.999 18.999s25 33.334 25 62.001c0 24 -7.66699 41.833 -23 53.5s-35.666 17.5 -60.999 17.5h-78v-152h74z" />
    <glyph glyph-name="trademark" unicode="&#x2122;" horiz-adv-x="720" 
d="M571 707h95v-286h-78v181l-66 -125h-33l-66 125v-181h-79v286h98l65 -122zM146 634h-92v73h265v-73h-94v-213h-79v213z" />
    <glyph glyph-name="arrowleft" unicode="&#x2190;" horiz-adv-x="725" 
d="M698 384v-96h-478l223 -185l-62 -75l-355 308l355 309l62 -76l-223 -185h478z" />
    <glyph glyph-name="arrowup" unicode="&#x2191;" horiz-adv-x="725" 
d="M410 0h-96v478l-185 -223l-75 62l308 355l309 -355l-76 -62l-185 223v-478z" />
    <glyph glyph-name="arrowright" unicode="&#x2192;" horiz-adv-x="725" 
d="M26 288v96h478l-223 185l62 75l355 -308l-355 -309l-62 76l223 185h-478z" />
    <glyph glyph-name="arrowdown" unicode="&#x2193;" horiz-adv-x="725" 
d="M130 416l185 -222v478h96v-478l185 222l75 -62l-308 -354l-309 354z" />
    <glyph glyph-name="uni2196" unicode="&#x2196;" horiz-adv-x="725" 
d="M634 132l-68 -68l-338 338l27 -288l-97 -9l-34 469l470 -33l-10 -98l-288 27z" />
    <glyph glyph-name="uni2197" unicode="&#x2197;" horiz-adv-x="725" 
d="M158 64l-68 68l338 338l-288 -27l-9 97l469 34l-33 -470l-98 10l27 288z" />
    <glyph glyph-name="uni2198" unicode="&#x2198;" horiz-adv-x="725" 
d="M90 540l68 68l338 -338l-27 288l97 9l34 -469l-470 33l10 98l288 -27z" />
    <glyph glyph-name="uni2199" unicode="&#x2199;" horiz-adv-x="725" 
d="M566 608l68 -68l-338 -338l288 27l9 -97l-469 -34l33 470l98 -10l-27 -288z" />
    <glyph glyph-name="uni21A9" unicode="&#x21a9;" horiz-adv-x="1159" 
d="M452 -196l-60.002 -77.001l-338 322l339 321l59 -79l-213 -194h537c34.667 0 65.834 6.16699 93.501 18.5s51.334 29.5 71.001 51.5s34.667 47.667 45 77s15.5 61 15.5 95c0 33.333 -5.16699 64.5 -15.5 93.5s-25.333 54.333 -45 76s-43.5 38.834 -71.5 51.501
s-59 19 -93 19h-596v97h600c48.667 0 93.167 -8.5 133.5 -25.5s74.833 -40.667 103.5 -71s50.5 -66.166 65.5 -107.499s22.5 -86 22.5 -134s-7.5 -92.667 -22.5 -134s-36.833 -77.333 -65.5 -108s-63.167 -54.334 -103.5 -71.001s-84.833 -25 -133.5 -25h-541z" />
    <glyph glyph-name="uni21B6" unicode="&#x21b6;" horiz-adv-x="1030" 
d="M279 114c-24 34 -42.1641 70.999 -54.4971 110.999s-18.5 80.667 -18.5 122c0 56 9 107.833 27 155.5s43.667 88.834 77 123.501s73.666 61.667 120.999 81s100.333 29 159 29c56 0 107 -9.33301 153 -28s85.833 -44.667 119.5 -78s60.167 -72.666 79.5 -117.999
s30.666 -94.333 33.999 -147h-110c-2.66699 38 -11.167 73.167 -25.5 105.5s-33.666 60.333 -57.999 84s-52.833 42.167 -85.5 55.5s-68.334 20 -107.001 20c-41.333 0 -79 -7.16699 -113 -21.5s-63 -34.333 -87 -60s-42.5 -55.834 -55.5 -90.501s-19.5 -72 -19.5 -112
c0 -34 5.16699 -68.5 15.5 -103.5s25.166 -65.167 44.499 -90.5l56 209l90 -20l-106 -374l-361 139l37 85z" />
    <glyph glyph-name="uni21B7" unicode="&#x21b7;" horiz-adv-x="1030" 
d="M939 191l36.998 -84.999l-360 -139l-106 374l89 20l56 -209c18.667 25.333 33.334 55.5 44.001 90.5s16 69.5 16 103.5c0 40 -6.5 77.333 -19.5 112s-31.5 64.834 -55.5 90.501s-53 45.667 -87 60s-71.667 21.5 -113 21.5c-38.667 0 -74.334 -6.66699 -107.001 -20
s-61.167 -31.833 -85.5 -55.5s-43.666 -51.667 -57.999 -84s-22.833 -67.5 -25.5 -105.5h-110c2.66699 52.667 13.834 101.667 33.501 147s46.334 84.666 80.001 117.999s73.5 59.333 119.5 78s97 28 153 28c58.667 0 111.667 -9.66699 159 -29s87.666 -46.333 120.999 -81
s59 -75.834 77 -123.501s27 -99.5 27 -155.5c0 -41.333 -6.16699 -82 -18.5 -122s-30.5 -77 -54.5 -111z" />
    <glyph glyph-name="uni21BA" unicode="&#x21ba;" horiz-adv-x="955" 
d="M676 661c44.667 -32 79.498 -72.999 104.498 -122.999s40.167 -99.333 45.5 -148c2 -18 3 -35.667 3 -53c0 -38.667 -5.66699 -80 -17 -124s-33.333 -85.667 -66 -125s-73.667 -70.833 -123 -94.5s-105 -36.5 -167 -38.5h-12c-55.333 0 -106.666 9 -153.999 27
s-88.5 44.333 -123.5 79s-62.167 76.167 -81.5 124.5s-29.333 101.833 -30 160.5v9c0 58 12.5 114.5 37.5 169.5s62.167 103.167 111.5 144.5l71 -79c-36.667 -33.333 -64 -71.333 -82 -114s-27 -86 -27 -130v-5c0 -38 6.66699 -74.167 20 -108.5s32.166 -64.333 56.499 -90
s53.333 -45.834 87 -60.501s70.834 -22 111.501 -22h5c46 0.666992 86.833 9.83398 122.5 27.501s65.334 41 89.001 70s39.667 59.333 48 91s12.5 61.167 12.5 88.5c0 12.667 -0.666992 25.667 -2 39c-2 22.667 -6.33301 44.667 -13 66s-15 41.666 -25 60.999
s-21.5 36.833 -34.5 52.5s-26.5 29.167 -40.5 40.5l-3 -211h-91l7 382l385 -46l-14 -92z" />
    <glyph glyph-name="uni21BB" unicode="&#x21bb;" horiz-adv-x="955" 
d="M68 629l-13.999 92.001l385 46l7 -382h-91l-3 211c-14 -11.333 -27.5 -24.833 -40.5 -40.5s-24.5 -33.167 -34.5 -52.5s-18.333 -39.833 -25 -61.5s-10.667 -43.5 -12 -65.5c-2 -14.667 -3 -28.667 -3 -42c0 -26.667 4.16699 -55.5 12.5 -86.5s24.166 -61 47.499 -90
s53 -52.333 89 -70s77 -26.834 123 -27.501h5c40.667 0 77.834 7.33301 111.501 22s62.667 34.834 87 60.501s43.166 55.667 56.499 90s20 70.5 20 108.5v5c0 44 -9 87.333 -27 130s-45.667 80.667 -83 114l72 79c49.333 -41.333 86.5 -89.5 111.5 -144.5
s37.5 -111.5 37.5 -169.5v-9c-1.33301 -58.667 -11.666 -112.167 -30.999 -160.5s-46.5 -89.833 -81.5 -124.5s-76 -61 -123 -79s-98.167 -27 -153.5 -27h-12c-62 2 -117.667 14.833 -167 38.5s-90.333 55.167 -123 94.5s-54.834 80.166 -66.501 122.499
s-17.5 80.833 -17.5 115.5c0 20.667 1.66699 42 5 64c4 51.333 18.667 100.833 44 148.5s60 88.5 104 122.5z" />
    <glyph glyph-name="minus" unicode="&#x2212;" horiz-adv-x="540" 
d="M69 406h402v-98h-402v98z" />
    <glyph glyph-name="approxequal" unicode="&#x2248;" horiz-adv-x="627" 
d="M64 385c0.666992 22 3.16602 43.3311 7.49902 63.998s12 38.834 23 54.501s26 28.334 45 38.001s43.167 14.834 72.5 15.501c26 0 48.667 -5.33301 68 -16s36.833 -22.334 52.5 -35.001l42.5 -35c12.667 -10.667 25.334 -16 38.001 -16c10 0 18 3 24 9
s10.5 13.167 13.5 21.5s5 17.5 6 27.5s1.5 19 1.5 27h105c-0.666992 -22 -3.5 -43.5 -8.5 -64.5s-13.167 -39.5 -24.5 -55.5s-26.5 -28.833 -45.5 -38.5s-42.833 -14.5 -71.5 -14.5c-24 0 -45.667 5.33301 -65 16s-37 22.5 -53 35.5l-44 35.5c-13.333 10.667 -26 16 -38 16
c-10 0 -17.833 -3 -23.5 -9s-10 -13.167 -13 -21.5s-4.83301 -17.5 -5.5 -27.5s-1 -19 -1 -27h-106zM63.999 161.998c0.666992 22.667 3.16602 44.166 7.49902 64.499s12 38.5 23 54.5s26 28.833 45 38.5s43.167 14.834 72.5 15.501c26 0 48.667 -5.33301 68 -16
s36.833 -22.5 52.5 -35.5l42.5 -35.5c12.667 -10.667 25.334 -16 38.001 -16c10 0 18 3 24 9s10.5 13.167 13.5 21.5s5 17.5 6 27.5s1.5 19 1.5 27h105c-0.666992 -22 -3.5 -43.5 -8.5 -64.5s-13.167 -39.5 -24.5 -55.5s-26.5 -28.833 -45.5 -38.5
s-42.833 -14.5 -71.5 -14.5c-24 0 -45.667 5.33301 -65 16s-37 22.5 -53 35.5l-44 35.5c-13.333 10.667 -26 16 -38 16c-10 0 -17.833 -3 -23.5 -9s-10 -13.167 -13 -21.5s-4.83301 -17.5 -5.5 -27.5s-1 -19 -1 -27h-106z" />
    <glyph glyph-name="notequal" unicode="&#x2260;" horiz-adv-x="554" 
d="M64 534h240l76 169h110l-76 -169h76v-98h-120l-71 -158h191v-98h-235l-81 -180h-110l81 180h-81v98h125l71 158h-196v98z" />
    <glyph glyph-name="lessequal" unicode="&#x2264;" horiz-adv-x="531" 
d="M64 481l403 178v-106l-247 -105l247 -104v-106l-403 177v66zM64 223h403v-98h-403v98z" />
    <glyph glyph-name="greaterequal" unicode="&#x2265;" horiz-adv-x="531" 
d="M467 416l-403 -178v105l247 106l-247 103v107l403 -178v-65zM64 223h403v-98h-403v98z" />
    <glyph glyph-name="uni2713" unicode="&#x2713;" horiz-adv-x="1058" 
d="M924 826l80 -78l-621 -755l-329 379l79 77l251 -284z" />
    <glyph glyph-name="uni27F5" unicode="&#x27f5;" horiz-adv-x="1378" 
d="M1324 318v-98h-1083l214 -194l-63 -77l-338 321l338 321l62 -78l-215 -195h1085z" />
    <glyph glyph-name="uni27F6" unicode="&#x27f6;" horiz-adv-x="1378" 
d="M1137 220h-1083v98h1083l-214 194l62 79l339 -322l-338 -320l-63 77z" />
    <glyph glyph-name="uniE000" unicode="&#xe000;" 
d="M609 354c0 -54 -5.50098 -103.169 -16.501 -147.502s-28 -82.166 -51 -113.499s-51.833 -55.666 -86.5 -72.999s-75.667 -26 -123 -26s-88.333 8.5 -123 25.5s-63.334 40.833 -86.001 71.5s-39.667 67.667 -51 111s-17 91.666 -17 144.999
c0 54.667 5.33301 104.667 16 150s27.334 84.333 50.001 117s51.5 57.834 86.5 75.501s76.5 26.5 124.5 26.5c46.667 0 87.334 -8.66699 122.001 -26s63.5 -42 86.5 -74s40.167 -70.167 51.5 -114.5s17 -93.5 17 -147.5zM169.999 353.998c0 -36.667 2.66699 -70.667 8 -102
s14.333 -58.5 27 -81.5s29.334 -41 50.001 -54s46.334 -19.5 77.001 -19.5c30 0 55.333 6.5 76 19.5s37.334 31 50.001 54s21.667 50.167 27 81.5s8 65.333 8 102c0 36 -2.66699 69.833 -8 101.5s-14.333 59 -27 82s-29.334 41.167 -50.001 54.5s-46 20 -76 20
c-30.667 0 -56.334 -6.66699 -77.001 -20s-37.334 -31.5 -50.001 -54.5s-21.667 -50.333 -27 -82s-8 -65.5 -8 -101.5z" />
    <glyph glyph-name="uniE001" unicode="&#xe001;" 
d="M392 0h-116v544h-144v79c39.333 1.33301 74 7.83301 104 19.5s53.667 33.167 71 64.5h85v-707z" />
    <glyph glyph-name="uniE002" unicode="&#xe002;" 
d="M283 264l53.5 45.998c19.667 16.667 38.167 33.667 55.5 51s32 37 44 59s18 45.667 18 71c0 36 -10.667 65 -32 87s-52 33 -92 33c-32 0 -59 -7.33301 -81 -22s-35.667 -34.334 -41 -59.001h-114c2.66699 30.667 11.167 58 25.5 82s32.5 43.667 54.5 59
s46.167 26.5 72.5 33.5s56.5 10.5 90.5 10.5c32 0 62 -4.33301 90 -13s52.5 -21.667 73.5 -39s37.667 -39.166 50 -65.499s18.5 -57.166 18.5 -92.499c0 -28 -3.66699 -53.667 -11 -77s-17.333 -45 -30 -65s-27.167 -38.667 -43.5 -56s-33.5 -33.666 -51.5 -48.999
l-63.5 -53.5l-49.5 -40.5l-40 -32.5l-34 -28.5h323v-103h-481v95z" />
    <glyph glyph-name="uniE003" unicode="&#xe003;" 
d="M333 -7c-32.667 0 -64.0029 3.50488 -94.0029 10.5049s-56.833 18 -80.5 33s-43.667 34.5 -60 58.5s-26.833 53 -31.5 87h117c5.33301 -17.333 13.333 -31.333 24 -42s22.834 -19.334 36.501 -26.001s28.167 -11.167 43.5 -13.5s30.333 -3.5 45 -3.5
c15.333 0 31.333 1.5 48 4.5s31.834 8.5 45.501 16.5s25 19.167 34 33.5s13.5 33.166 13.5 56.499c0 21.333 -4.16699 38.666 -12.5 51.999s-19.333 23.666 -33 30.999s-29 12.333 -46 15s-34.167 4 -51.5 4h-70v98h41c16 0 32.667 1.66699 50 5s33.166 9 47.499 17
s26 18.667 35 32s13.5 30 13.5 50c0 19.333 -3.33301 35.5 -10 48.5s-15.667 23.333 -27 31s-24.166 13 -38.499 16s-29.5 4.5 -45.5 4.5c-27.333 0 -53.166 -6.16699 -77.499 -18.5s-39.833 -33.833 -46.5 -64.5h-114c4 32.667 13 60.834 27 84.501s32 43 54 58
s46.833 26.167 74.5 33.5s56.834 11 87.501 11c30 0 58.833 -3.33301 86.5 -10s52.167 -17.334 73.5 -32.001s38.333 -33.834 51 -57.501s19 -52.5 19 -86.5c0 -28 -6.83301 -55.667 -20.5 -83s-38.834 -50.333 -75.501 -69c42 -11.333 73.333 -31.833 94 -61.5
s31 -65.5 31 -107.5c0 -38.667 -7.16699 -71.5 -21.5 -98.5s-33 -49.333 -56 -67s-50.167 -30.5 -81.5 -38.5s-64.333 -12 -99 -12z" />
    <glyph glyph-name="uniE004" unicode="&#xe004;" 
d="M532 707v-469h81v-102h-81v-136h-115v136h-365v83l331 488h149zM186 238h231v346z" />
    <glyph glyph-name="uniE005" unicode="&#xe005;" 
d="M99 311l38 396.002h426v-103h-329l-20 -184c19.333 12.667 40.166 22.5 62.499 29.5s49.166 10.5 80.499 10.5c35.333 0 67.333 -5.16699 96 -15.5s53.334 -25.166 74.001 -44.499s36.5 -43 47.5 -71s16.5 -59.667 16.5 -95c0 -38 -6.66699 -72 -20 -102
s-31.666 -55.333 -54.999 -76s-50.666 -36.5 -81.999 -47.5s-65.333 -16.5 -102 -16.5c-31.333 0 -60.833 3.66699 -88.5 11s-52.667 18.666 -75 33.999s-41 35.166 -56 59.499s-24.833 53.166 -29.5 86.499h115c4 -14 10.5 -26.333 19.5 -37s19.5 -19.667 31.5 -27
s25 -12.833 39 -16.5s28 -5.5 42 -5.5c20 0 38.667 2.5 56 7.5s32.5 12.833 45.5 23.5s23.167 24.167 30.5 40.5s11 36.166 11 59.499c0 42.667 -12.5 75.334 -37.5 98.001s-57.833 34 -98.5 34c-25.333 0 -48.333 -4.33301 -69 -13s-39.334 -20.667 -56.001 -36h-113z" />
    <glyph glyph-name="uniE006" unicode="&#xe006;" 
d="M167 374c22 28 48.332 48.665 78.999 61.998s63.334 20 98.001 20s66.334 -5.33301 95.001 -16s53 -25.667 73 -45s35.5 -43.166 46.5 -71.499s16.5 -59.833 16.5 -94.5c0 -35.333 -6.16699 -67.333 -18.5 -96s-29.5 -53.334 -51.5 -74.001s-47.667 -36.667 -77 -48
s-61 -17 -95 -17c-50.667 0 -93.5 9.16699 -128.5 27.5s-63.333 42.666 -85 72.999s-37.334 65.666 -47.001 105.999s-14.834 82.5 -15.501 126.5c0 30 1.83301 60 5.5 90s9.66699 58.833 18 86.5s19.333 53.834 33 78.501s30.5 46.667 50.5 66c21.333 20.667 47 37 77 49
s64.333 18 103 18c58 0 107.667 -14.333 149 -43s67.666 -72.667 78.999 -132h-116c-9.33301 24.667 -24.666 42.834 -45.999 54.501s-44.666 17.5 -69.999 17.5c-21.333 0 -40.833 -3.66699 -58.5 -11s-33.167 -17.666 -46.5 -30.999c-12 -12 -22.333 -25.667 -31 -41
s-15.667 -31.666 -21 -48.999s-9.33301 -35 -12 -53s-4 -35.667 -4 -53zM458.999 220.998c0 40 -11.834 72.167 -35.501 96.5s-55.5 36.5 -95.5 36.5c-18.667 0 -36.167 -3.16699 -52.5 -9.5s-30.666 -15.166 -42.999 -26.499s-22 -25 -29 -41s-10.5 -33.333 -10.5 -52
c0 -17.333 3.33301 -33.833 10 -49.5s16 -29.334 28 -41.001s26.167 -21 42.5 -28s34.166 -10.5 53.499 -10.5c38.667 0 70.334 11.5 95.001 34.5s37 53.167 37 90.5z" />
    <glyph glyph-name="uniE007" unicode="&#xe007;" 
d="M178 0l273 603h-351v104h482v-90l-275 -617h-129z" />
    <glyph glyph-name="uniE008" unicode="&#xe008;" 
d="M589 198c0 -38.667 -7.5 -71.166 -22.5 -97.499s-34.667 -47.5 -59 -63.5s-51.833 -27.5 -82.5 -34.5s-62 -10.5 -94 -10.5c-32.667 0 -64.5 3.66699 -95.5 11s-58.667 19.166 -83 35.499s-43.833 37.5 -58.5 63.5s-22 58 -22 96c0 40.667 9.16699 76 27.5 106
s47.5 52.667 87.5 68c-17.333 8.66699 -31.833 19 -43.5 31s-21 24.833 -28 38.5s-12 27.834 -15 42.501s-4.5 28.667 -4.5 42c0 34 6.5 63 19.5 87s30.5 43.667 52.5 59s47.167 26.5 75.5 33.5s57.833 10.5 88.5 10.5c30 0 59.167 -3.5 87.5 -10.5s53.333 -18.167 75 -33.5
s39 -35 52 -59s19.5 -53 19.5 -87c0 -13.333 -1.66699 -27.333 -5 -42s-8.5 -28.667 -15.5 -42s-16.5 -26 -28.5 -38s-26.333 -22 -43 -30c40 -15.333 69.167 -38.333 87.5 -69s27.5 -66.334 27.5 -107.001zM331 614.001c-16 0 -31.334 -1.83398 -46.001 -5.50098
s-27.5 -9.5 -38.5 -17.5s-19.667 -18.5 -26 -31.5s-9.5 -28.5 -9.5 -46.5c0 -36 11.5 -62.5 34.5 -79.5s51.5 -25.5 85.5 -25.5c16 0 31.333 2 46 6s27.334 10.167 38.001 18.5s19.167 18.833 25.5 31.5s9.5 27.667 9.5 45c0 18.667 -3 34.667 -9 48s-14.5 24.333 -25.5 33
s-23.833 14.834 -38.5 18.501s-30 5.5 -46 5.5zM329.999 315c-18 0 -35.501 -2 -52.501 -6s-32.167 -10.333 -45.5 -19s-24 -20 -32 -34s-12 -31 -12 -51c0 -22 4.66699 -40.167 14 -54.5s21 -25.666 35 -33.999s29.333 -14.166 46 -17.499s32.667 -5 48 -5
s31.333 1.66699 48 5s31.834 9.16602 45.501 17.499s25 19.666 34 33.999s13.5 32.5 13.5 54.5c0 20 -4 37 -12 51s-18.667 25.333 -32 34s-28.5 15 -45.5 19s-34.5 6 -52.5 6z" />
    <glyph glyph-name="uniE009" unicode="&#xe009;" 
d="M494 338c-10 -15.333 -21.666 -28.333 -34.999 -39s-27.833 -19.5 -43.5 -26.5s-32.167 -12.167 -49.5 -15.5s-34.666 -5 -51.999 -5c-33.333 0 -63.833 5.16699 -91.5 15.5s-51.834 25.166 -72.501 44.499s-36.667 43 -48 71s-17 59.667 -17 95c0 36 6.5 68.667 19.5 98
s30.667 54.166 53 74.499s48.666 36 78.999 47s63.166 16.5 98.499 16.5c49.333 0.666992 92.166 -10.166 128.499 -32.499s64.333 -50.833 84 -85.5s33.667 -73 42 -115s13.166 -84.667 14.499 -128c0 -45.333 -4.33301 -89.666 -13 -132.999s-23.5 -81.833 -44.5 -115.5
s-49.167 -60.667 -84.5 -81s-79.666 -30.5 -132.999 -30.5c-29.333 0 -57.166 3.5 -83.499 10.5s-50.166 17.667 -71.499 32s-39.333 32.333 -54 54s-24.334 47.5 -29.001 77.5h119c8.66699 -24 24.334 -41.833 47.001 -53.5s46.667 -17.5 72 -17.5
c20 0 37.667 2.83301 53 8.5s29 13.167 41 22.5s22.333 20.5 31 33.5s15.667 26.833 21 41.5c8.66699 22 14 44.5 16 67.5s3 45.833 3 68.5zM201.001 485c0 -40.667 11.832 -72.666 35.499 -95.999s55.5 -35 95.5 -35c18 0 35.167 2.83301 51.5 8.5s30.5 13.667 42.5 24
s21.5 23 28.5 38s10.833 31.5 11.5 49.5c0 18.667 -3 36.334 -9 53.001s-14.667 31.167 -26 43.5s-25.166 22.166 -41.499 29.499s-34.5 11 -54.5 11c-38.667 0 -70.5 -11.333 -95.5 -34s-37.833 -53.334 -38.5 -92.001z" />
    <glyph glyph-name="uniE010" unicode="&#xe010;" horiz-adv-x="296" 
d="M148 139c21.333 0 38.833 -6.66699 52.5 -20s20.5 -31.333 20.5 -54c0 -23.333 -6.83301 -41.333 -20.5 -54s-31.167 -19 -52.5 -19s-38.833 6.33301 -52.5 19s-20.5 30.667 -20.5 54c0 22.667 6.83301 40.667 20.5 54s31.167 20 52.5 20z" />
    <glyph glyph-name="uniE011" unicode="&#xe011;" horiz-adv-x="303" 
d="M140 -8c-20 1.33301 -36.499 8.16797 -49.499 20.501s-19.5 29.166 -19.5 50.499c0 23.333 7.33301 41.166 22 53.499s31 18.5 49 18.5h6c30 -2 50.667 -12.667 62 -32s17 -39.666 17 -60.999v-10c0 -19.333 -3.66699 -38.5 -11 -57.5s-17 -36.833 -29 -53.5
s-25.667 -31.167 -41 -43.5s-31.333 -21.166 -48 -26.499l-30 41c16 11.333 30.667 25.666 44 42.999s22.666 36.333 27.999 57z" />
    <glyph glyph-name="uniE012" unicode="&#xe012;" horiz-adv-x="296" 
d="M148 496c22 0 39.667 -6.83301 53 -20.5s20 -31.5 20 -53.5c0 -23.333 -6.83301 -41.333 -20.5 -54s-31.167 -19 -52.5 -19c-22 0 -39.667 6.33301 -53 19s-20 30.667 -20 54c0 22 6.66699 39.833 20 53.5s31 20.5 53 20.5zM148 138c22 0 39.667 -6.83301 53 -20.5
s20 -31.5 20 -53.5c0 -22.667 -6.83301 -40.5 -20.5 -53.5s-31.167 -19.5 -52.5 -19.5c-22 0 -39.667 6.5 -53 19.5s-20 30.833 -20 53.5c0 22 6.66699 39.833 20 53.5s31 20.5 53 20.5z" />
    <glyph glyph-name="uniE013" unicode="&#xe013;" horiz-adv-x="303" 
d="M150 496c22 0 39.667 -6.83301 53 -20.5s20 -31.5 20 -53.5c0 -23.333 -6.66699 -41.333 -20 -54s-31 -19 -53 -19c-22.667 0 -40.5 6.33301 -53.5 19s-19.5 30.667 -19.5 54c0 22 6.5 39.833 19.5 53.5s30.833 20.5 53.5 20.5zM140 -7
c-20.667 1.33301 -37.166 8.33203 -49.499 20.999s-18.5 29.334 -18.5 50.001c0 23.333 7.16699 41.166 21.5 53.499s30.833 18.5 49.5 18.5h6c14.667 0 27 -3.16699 37 -9.5s18.167 -14.166 24.5 -23.499s10.833 -20 13.5 -32s4 -24 4 -36
c0 -18.667 -3.5 -37.667 -10.5 -57s-16.333 -37.333 -28 -54s-25.334 -31.5 -41.001 -44.5s-32.167 -22.5 -49.5 -28.5l-30 42c16.667 11.333 31.5 25.833 44.5 43.5s21.833 36.5 26.5 56.5z" />
    <glyph glyph-name="uniE014" unicode="&#xe014;" horiz-adv-x="293" 
d="M189 455h-85l-13 252h111z" />
    <glyph glyph-name="uniE015" unicode="&#xe015;" horiz-adv-x="381" 
d="M148 455h-85l-13 252h111zM317 455h-85l-13 252h112z" />
    <glyph glyph-name="uniE016" unicode="&#xe016;" horiz-adv-x="297" 
d="M137 593c-20 1.33301 -36.001 7.99902 -48.001 19.999s-18 28 -18 48c0 22.667 7.33301 40 22 52s32.334 18 53.001 18c13.333 0 25 -2.83301 35 -8.5s18 -13 24 -22s10.333 -19.333 13 -31s4 -23.834 4 -36.501c0 -18 -3.5 -36.333 -10.5 -55
s-16.167 -36.167 -27.5 -52.5s-24.5 -30.666 -39.5 -42.999s-30.833 -21.166 -47.5 -26.499l-29 40c16.667 11.333 31.167 25.5 43.5 42.5s20.833 35.167 25.5 54.5z" />
    <glyph glyph-name="uniE017" unicode="&#xe017;" horiz-adv-x="404" 
d="M91 593c-20.667 1.33301 -36.832 7.99902 -48.499 19.999s-17.5 28 -17.5 48c0 22.667 7 40 21 52s31 18 51 18h3c14 -0.666992 25.833 -3.66699 35.5 -9s17.5 -12.5 23.5 -21.5s10.333 -19.333 13 -31s4 -23.834 4 -36.501c0 -18 -3.33301 -36.333 -10 -55
s-15.834 -36.167 -27.501 -52.5s-25 -30.666 -40 -42.999s-30.833 -21.166 -47.5 -26.499l-29 40c16.667 11.333 31.167 25.5 43.5 42.5s20.833 35.167 25.5 54.5zM296.002 592.999c-20.667 1.33301 -36.832 7.99805 -48.499 19.998s-17.5 28 -17.5 48c0 22.667 7 40 21 52
s31 18 51 18h3c26.667 -1.33301 46 -11.5 58 -30.5s18 -40.167 18 -63.5v-4c0 -18 -3.33301 -36.333 -10 -55s-15.834 -36.167 -27.501 -52.5s-25 -30.666 -40 -42.999s-30.833 -21.166 -47.5 -26.499l-29 40c16.667 11.333 31.167 25.5 43.5 42.5s20.833 35.167 25.5 54.5z
" />
    <glyph glyph-name="uniE018" unicode="&#xe018;" horiz-adv-x="298" 
d="M154 613c20 -1.33301 35.999 -8.16699 47.999 -20.5s18 -28.166 18 -47.499c0 -22.667 -7 -40 -21 -52s-30 -18 -48 -18h-6c-14 0 -25.833 3 -35.5 9s-17.5 13.5 -23.5 22.5s-10.333 19.333 -13 31s-4 23.5 -4 35.5c0 18 3.33301 36.333 10 55s15.834 36.167 27.501 52.5
s25 30.666 40 42.999s30.833 21.5 47.5 27.5l29 -40c-16.667 -11.333 -31.167 -25.5 -43.5 -42.5s-20.833 -35.5 -25.5 -55.5z" />
    <glyph glyph-name="uniE019" unicode="&#xe019;" horiz-adv-x="405" 
d="M312 613c20.667 -1.33301 37.001 -8.16699 49.001 -20.5s18 -28.166 18 -47.499c0 -22.667 -7 -40 -21 -52s-30 -18 -48 -18h-6c-14 0 -25.833 3 -35.5 9s-17.667 13.5 -24 22.5s-10.833 19.333 -13.5 31s-4 23.5 -4 35.5c0 18 3.33301 36.333 10 55
s15.834 36.167 27.501 52.5s25 30.666 40 42.999s31.167 21.5 48.5 27.5l29 -40c-16.667 -11.333 -31.334 -25.5 -44.001 -42.5s-21.334 -35.5 -26.001 -55.5zM107.001 612.999c20.667 -1.33301 37.001 -8.16699 49.001 -20.5s18 -28.166 18 -47.499
c0 -22.667 -7 -40 -21 -52s-30.333 -18 -49 -18h-6c-14 0 -25.833 3 -35.5 9s-17.5 13.5 -23.5 22.5s-10.333 19.333 -13 31s-4 23.5 -4 35.5c0 18 3.33301 36.333 10 55s15.834 36.167 27.501 52.5s25 30.666 40 42.999s31.167 21.5 48.5 27.5l29 -40
c-16.667 -11.333 -31.334 -25.5 -44.001 -42.5s-21.334 -35.5 -26.001 -55.5z" />
    <glyph glyph-name="uniE020" unicode="&#xe020;" horiz-adv-x="298" 
d="M137 -2c-20 1.33301 -36.001 8.16699 -48.001 20.5s-18 28.5 -18 48.5c0 21.333 6.83301 38 20.5 50s29.834 18 48.501 18h6c24.667 -1.33301 43.5 -11.166 56.5 -29.499s19.5 -38.833 19.5 -61.5v-4c0 -18.667 -3.5 -37.334 -10.5 -56.001s-16.167 -36.167 -27.5 -52.5
s-24.5 -30.833 -39.5 -43.5s-30.833 -21.667 -47.5 -27l-29 39c16.667 12 31.167 26.333 43.5 43s20.833 35 25.5 55z" />
    <glyph glyph-name="uniE021" unicode="&#xe021;" horiz-adv-x="404" 
d="M91 -2c-20 1.33301 -36.001 8.16895 -48.001 20.502s-18 28.5 -18 48.5c0 21.333 6.83301 38.166 20.5 50.499s30.834 18.5 51.501 18.5h3c25.333 -2 44.333 -12.167 57 -30.5s19 -38.833 19 -61.5v-4c0 -18.667 -3.5 -37.334 -10.5 -56.001s-16.167 -36.167 -27.5 -52.5
s-24.5 -30.833 -39.5 -43.5s-30.833 -21.667 -47.5 -27l-29 39c16.667 12 31.167 26.333 43.5 43s20.833 35 25.5 55zM295.999 -1.99707c-20 1.33301 -36.001 8.16895 -48.001 20.502s-18 28.5 -18 48.5c0 21.333 6.83301 38.166 20.5 50.499s30.834 18.5 51.501 18.5h3
c25.333 -2 44.333 -12.167 57 -30.5s19 -38.833 19 -61.5v-4c0 -18.667 -3.5 -37.334 -10.5 -56.001s-16.167 -36.167 -27.5 -52.5s-24.5 -30.833 -39.5 -43.5s-30.833 -21.667 -47.5 -27l-29 39c16.667 12 31.167 26.333 43.5 43s20.833 35 25.5 55z" />
    <glyph glyph-name="uniE022" unicode="&#xe022;" horiz-adv-x="296" 
d="M148 593c22 0 39.667 -6.83301 53 -20.5s20 -31.5 20 -53.5c0 -23.333 -6.83301 -41.333 -20.5 -54s-31.167 -19 -52.5 -19c-22 0 -39.667 6.33301 -53 19s-20 30.667 -20 54c0 22 6.66699 39.833 20 53.5s31 20.5 53 20.5zM148 235c22 0 39.667 -6.83301 53 -20.5
s20 -31.5 20 -53.5c0 -22.667 -6.83301 -40.5 -20.5 -53.5s-31.167 -19.5 -52.5 -19.5c-22 0 -39.667 6.5 -53 19.5s-20 30.833 -20 53.5c0 22 6.66699 39.833 20 53.5s31 20.5 53 20.5z" />
    <glyph glyph-name="y2_alt" horiz-adv-x="569" 
d="M440 527l122 -0.000976562l-148 -441c-18 -54 -35 -102.167 -51 -144.5s-34.833 -77.666 -56.5 -105.999s-48.167 -49.833 -79.5 -64.5s-72 -22 -122 -22h-17v102h14c17.333 0 33.5 2.33301 48.5 7s28.833 11.667 41.5 21s23.667 21.5 33 36.5s18 32.167 26 51.5
l-239 560h134l163 -419z" />
    <glyph glyph-name="K_alt" horiz-adv-x="652" 
d="M82 0v707h116v-334l309 334h136l-298 -317l298 -390h-135l-244 318l-66 -69v-249h-116z" />
    <glyph glyph-name="k_alt" horiz-adv-x="548" 
d="M62 0v707h114v-414l218 234h135l-212 -221l222 -306h-129l-173 235l-61 -62v-173h-114z" />
    <glyph glyph-name="i_alt" horiz-adv-x="273" 
d="M147 746c21.333 0 38.666 -6.33301 51.999 -19s20 -30 20 -52c0 -21.333 -6.66699 -38.333 -20 -51s-30.666 -19 -51.999 -19s-38.833 6.33301 -52.5 19s-20.5 29.667 -20.5 51c0 22 6.83301 39.333 20.5 52s31.167 19 52.5 19zM89 0v428h-82v99h196v-527h-114z" />
    <glyph glyph-name="j_alt" horiz-adv-x="265" 
d="M139 747c20.667 0 37.834 -6.5 51.501 -19.5s20.5 -30.5 20.5 -52.5c0 -21.333 -6.83301 -38.5 -20.5 -51.5s-30.834 -19.5 -51.501 -19.5c-21.333 0 -39 6.5 -53 19.5s-21 30.167 -21 51.5c0 22 7 39.5 21 52.5s31.667 19.5 53 19.5zM196 -37
c0 -59.333 -13.833 -103.167 -41.5 -131.5s-72.167 -42.5 -133.5 -42.5h-44v99h24c29.333 0 50 7.83301 62 23.5s18 37.5 18 65.5v451h-83v99h198v-564z" />
    <glyph glyph-name="s_alt" horiz-adv-x="548" 
d="M272 440c-10 0 -21 -0.669922 -33 -2.00293s-23.333 -4 -34 -8s-19.667 -10.167 -27 -18.5s-11 -18.5 -11 -30.5c0 -18.667 7.66699 -32.667 23 -42s36.5 -16.166 63.5 -20.499l84 -13.5c29 -4.66699 54.833 -10.667 77.5 -18c33.333 -11.333 57.333 -28.333 72 -51
s22 -49 22 -79c0 -31.333 -6.66699 -57.666 -20 -78.999s-30.166 -38.5 -50.499 -51.5s-43.333 -22.333 -69 -28s-51.5 -8.5 -77.5 -8.5c-33.333 0 -64 2.83301 -92 8.5s-54 15.167 -78 28.5s-43.5 31 -58.5 53s-23.5 49 -25.5 81h112
c3.33301 -14.667 10.166 -26.667 20.499 -36s22.166 -17 35.499 -23s27.166 -10 41.499 -12s27.833 -3 40.5 -3h7c26.667 0 48 3.33301 64 10c10.667 4.66699 19.667 10.834 27 18.501s11 18.167 11 31.5c0 18 -5.5 31.333 -16.5 40s-26.167 15 -45.5 19l-93.5 14.5
c-32.333 5 -62.166 12.167 -89.499 21.5s-50.166 24.166 -68.499 44.499s-27.5 49.166 -27.5 86.499c0 30.667 6.33301 56.334 19 77.001s29.5 37.5 50.5 50.5s44.667 22.167 71 27.5s52.833 8 79.5 8c31.333 0 60 -3.66699 86 -11s48.5 -18.166 67.5 -32.499
s33.833 -31.333 44.5 -51s16.667 -41.834 18 -66.501h-105c-3.33301 23.333 -16 39.833 -38 49.5s-47.667 14.834 -77 15.501z" />
    <glyph glyph-name="c_alt" horiz-adv-x="557" 
d="M292 -7c-42.667 0 -79.833 6.49902 -111.5 19.499s-58.167 31.667 -79.5 56s-37.166 53 -47.499 86s-15.5 69.5 -15.5 109.5c0 40.667 5.66699 77.5 17 110.5s28 61.5 50 85.5s48.833 42.667 80.5 56s67.834 20 108.501 20c29.333 0 56.166 -3.16699 80.499 -9.5
s46.166 -16.333 65.499 -30s35.833 -30.667 49.5 -51s23.5 -44.833 29.5 -73.5h-118c-7.33301 19.333 -20.5 34.5 -39.5 45.5s-41.833 16.5 -68.5 16.5c-25.333 0 -47 -4.5 -65 -13.5s-32.833 -21.167 -44.5 -36.5s-20.167 -33.5 -25.5 -54.5s-8 -43.167 -8 -66.5
s2.83301 -45.333 8.5 -66s14.334 -38.667 26.001 -54s26.667 -27.666 45 -36.999s40.5 -14 66.5 -14c22 0 42.167 3.83301 60.5 11.5s31.833 19.5 40.5 35.5h121c-7.33301 -26.667 -18.333 -49.167 -33 -67.5s-31.834 -33.333 -51.501 -45s-41.5 -20.167 -65.5 -25.5
s-49.333 -8 -76 -8z" />
    <glyph glyph-name="w_alt" horiz-adv-x="779" 
d="M538 118l111 409h121l-163 -527h-136l-81 272l-79 -272h-139l-163 527h126l110 -409l90 291h113z" />
    <glyph glyph-name="W_alt" horiz-adv-x="890" 
d="M529 548l104 -433l124 592h124l-167 -707h-164l-101 431l-101 -431h-166l-173 707h131l127 -592l106 433h156z" />
    <glyph glyph-name="t_alt" horiz-adv-x="387" 
d="M220 527l133 -0.00195312v-99h-133v-243c0 -29.333 6.33301 -51.166 19 -65.499s34.334 -21.5 65.001 -21.5h39v-98h-56c-64.667 0 -110.834 13.333 -138.501 40s-41.5 70.334 -41.5 131.001v257h-83v99h85l20 149h91v-149z" />
    <glyph glyph-name="alt_1" horiz-adv-x="507" 
d="M338 103l154.999 0.000976562v-103h-451v103h180v441h-161v77c19.333 0.666992 38.333 2.16699 57 4.5s36.334 6.66602 53.001 12.999s32 15 46 26s26 25.167 36 42.5h85v-604z" />
    <glyph glyph-name="colon.uc" horiz-adv-x="270" 
d="M135 593c22 0 39.667 -6.83301 53 -20.5s20 -31.5 20 -53.5c0 -23.333 -6.83301 -41.333 -20.5 -54s-31.167 -19 -52.5 -19c-22 0 -39.667 6.33301 -53 19s-20 30.667 -20 54c0 22 6.66699 39.833 20 53.5s31 20.5 53 20.5zM135 235c22 0 39.667 -6.83301 53 -20.5
s20 -31.5 20 -53.5c0 -22.667 -6.83301 -40.5 -20.5 -53.5s-31.167 -19.5 -52.5 -19.5c-22 0 -39.667 6.5 -53 19.5s-20 30.833 -20 53.5c0 22 6.66699 39.833 20 53.5s31 20.5 53 20.5z" />
    <glyph glyph-name="y_alt" horiz-adv-x="613" 
d="M551 527l0.00585938 -493c0 -18 -0.833008 -36.333 -2.5 -55s-4.33398 -37.334 -8.00098 -56.001s-9.5 -36.334 -17.5 -53.001c-18 -38.667 -45.5 -69 -82.5 -91s-85.167 -33 -144.5 -33c-29.333 0 -57 3.33301 -83 10s-49.167 17 -69.5 31s-37.833 31.833 -52.5 53.5
s-24.334 47.834 -29.001 78.501h119c5.33301 -24 19.166 -42 41.499 -54s47.166 -18 74.499 -18c34 0 60.333 6.16699 79 18.5s32.667 28.833 42 49.5s15 44.334 17 71.001s3 54 3 82c-16.667 -28 -39 -47.667 -67 -59s-59.667 -17 -95 -17c-40 0 -73.333 5.83301 -100 17.5
s-48.5 28.167 -65.5 49.5s-29 46.833 -36 76.5s-10.5 62.5 -10.5 98.5v293h114v-272c0 -22 1.5 -42.833 4.5 -62.5s9 -37 18 -52s21.667 -27 38 -36s37.833 -13.5 64.5 -13.5c26 0 47.667 5.16699 65 15.5s31.166 24 41.499 41s17.666 36.5 21.999 58.5s6.5 44.667 6.5 68
v253h113z" />
    <glyph glyph-name="u_alt" horiz-adv-x="600" 
d="M538 527l0.00195312 -527.002h-99l-8 72c-17.333 -28.667 -43 -50 -77 -64c-29.333 -10.667 -60.333 -16 -93 -16c-39.333 0 -72 6 -98 18s-47 28.833 -63 50.5s-27.167 47.334 -33.5 77.001s-9.5 61.834 -9.5 96.501v293h114v-275c0 -20 1.16699 -39.667 3.5 -59
s7.66602 -36.5 15.999 -51.5s20.333 -27.167 36 -36.5s36.834 -14 63.501 -14c25.333 0 46.666 5.16699 63.999 15.5s31.166 24 41.499 41s17.833 36.333 22.5 58s7 44.5 7 68.5v253h113z" />
    <glyph glyph-name="uni0431_alt" horiz-adv-x="594" 
d="M39 312c0 39.333 1.99316 79.501 5.99316 120.501s14.333 78.833 31 113.5c12.667 26 28.334 48.167 47.001 66.5s39.334 34.166 62.001 47.499c36 19.333 75.167 35.5 117.5 48.5s83.833 27.167 124.5 42.5c13.333 5.33301 25.5 11.333 36.5 18s20.5 14.667 28.5 24
l63 -78c-7.33301 -18.667 -22.333 -34.5 -45 -47.5s-48.167 -24 -76.5 -33s-57.666 -17.833 -87.999 -26.5s-57.5 -17.334 -81.5 -26.001c-37.333 -14 -64.666 -34.667 -81.999 -62s-26.666 -60.666 -27.999 -99.999c22.667 25.333 48.834 43.833 78.501 55.5
s61.167 17.5 94.5 17.5c34.667 0 66.167 -5.66699 94.5 -17s52.5 -27.333 72.5 -48s35.333 -45.5 46 -74.5s16 -61.5 16 -97.5c0 -39.333 -5.83301 -75.166 -17.5 -107.499s-28.667 -60 -51 -83s-49.166 -40.833 -80.499 -53.5s-67.333 -19 -108 -19
c-50 0.666992 -91.5 10.167 -124.5 28.5s-59.5 42.666 -79.5 72.999s-34.167 64.333 -42.5 102s-12.833 76.167 -13.5 115.5zM300.993 92.001c23.333 0 43.666 4.33105 60.999 12.998s32 19.834 44 33.501s21.167 29.667 27.5 48s9.5 37.5 9.5 57.5
c0 20.667 -3.16699 40.167 -9.5 58.5s-15.333 34 -27 47s-25.834 23.167 -42.501 30.5s-35.667 11 -57 11c-45.333 0 -81.166 -13.667 -107.499 -41s-39.5 -64.333 -39.5 -111c0 -19.333 3 -37.666 9 -54.999s15 -32.833 27 -46.5s26.833 -24.667 44.5 -33
s37.834 -12.5 60.501 -12.5z" />
    <glyph glyph-name="g_alt" horiz-adv-x="620" 
d="M456 527l101.997 0.000976562v-498c0 -22 -1.5 -44 -4.5 -66s-7.83301 -43.833 -14.5 -65.5s-16.667 -41.834 -30 -60.501c-20.667 -28.667 -48.334 -51 -83.001 -67s-77.667 -24 -129 -24c-42 0 -82.167 5.16699 -120.5 15.5s-73.833 26.833 -106.5 49.5l21.5 49.5
c7.66699 17.667 14.167 34.167 19.5 49.5c21.333 -16 47.166 -30.167 77.499 -42.5s62.833 -18.5 97.5 -18.5c38.667 0 68.834 7 90.501 21s38.167 33.667 49.5 59c9.33301 21.333 14.833 41.5 16.5 60.5s2.5 35.5 2.5 49.5c0 8.66699 -0.333008 17.667 -1 27
c-16 -25.333 -38.667 -43.833 -68 -55.5s-62 -17.5 -98 -17.5c-40 0 -75.167 6.83301 -105.5 20.5s-55.5 32.5 -75.5 56.5s-34.833 52.167 -44.5 84.5s-14.5 67.166 -14.5 104.499c0 40.667 5.16699 77.834 15.5 111.501s25.833 62.5 46.5 86.5s46.334 43 77.001 57
s66.334 21 107.001 21c28.667 0 57.834 -5.5 87.501 -16.5s54.834 -28.833 75.501 -53.5zM295.997 432.001c-25.333 0 -47.165 -4.33496 -65.498 -13.002s-33.333 -20.667 -45 -36s-20.334 -33.5 -26.001 -54.5s-8.5 -43.5 -8.5 -67.5s2.83301 -46.167 8.5 -66.5
s14.5 -38.166 26.5 -53.499s27.167 -27.5 45.5 -36.5s40.166 -13.5 65.499 -13.5c26 0 48.167 5 66.5 15s33.5 23.167 45.5 39.5s21 34.833 27 55.5s9 42 9 64c0 22.667 -3 44.334 -9 65.001s-15.167 38.5 -27.5 53.5s-27.833 26.833 -46.5 35.5s-40.667 13 -66 13z" />
    <glyph glyph-name="t2.alt" horiz-adv-x="412" 
d="M220 527l157.999 -0.000976562v-99h-158v-232c0 -13.333 0.833008 -26 2.5 -38s5 -22.833 10 -32.5s12.167 -17.5 21.5 -23.5s22 -9 38 -9c28 0 52 8.33301 72 25l38 -85c-17.333 -13.333 -37.333 -23.166 -60 -29.499s-45 -9.5 -67 -9.5
c-57.333 0 -99.666 14.5 -126.999 43.5s-41 74.5 -41 136.5v254h-83v99h83v150h113v-150z" />
    <glyph glyph-name="f_alt" horiz-adv-x="369" 
d="M107 0l0.000976562 427.999h-83v99h83v59c0 58.667 14.833 102.5 44.5 131.5s72.167 43.5 127.5 43.5c22 0 42.833 -2.66699 62.5 -8s38.167 -14 55.5 -26l-39 -87c-9.33301 6.66699 -19.333 11.834 -30 15.501s-23.334 5.5 -38.001 5.5
c-26 0 -44.167 -7.83301 -54.5 -23.5s-15.5 -37.5 -15.5 -65.5v-45h144v-99h-144v-428h-113z" />
    <glyph glyph-name="hyphen.uc" horiz-adv-x="457" 
d="M69 398h319v-98h-319v98z" />
    <glyph glyph-name="uni00AD.uc" horiz-adv-x="457" 
d="M69 398h319v-98h-319v98z" />
    <glyph glyph-name="endash.uc" horiz-adv-x="602" 
d="M69 398h464v-98h-464v98z" />
    <glyph glyph-name="emdash.uc" horiz-adv-x="805" 
d="M69 398h667v-98h-667v98z" />
    <glyph glyph-name="a_alt" horiz-adv-x="566" 
d="M398 61c-18.667 -22 -43.4932 -38.666 -74.4932 -49.999s-62.167 -17 -93.5 -17c-25.333 0 -49 3 -71 9s-41.667 15.167 -59 27.5s-30.833 28.166 -40.5 47.499s-14.834 41.666 -15.501 66.999c0 39.333 10.833 71.333 32.5 96s50.167 42.5 85.5 53.5
s73.666 18.333 114.999 22s80.666 6.16699 117.999 7.5c0 36.667 -9.33301 64.834 -28 84.501s-48.334 29.5 -89.001 29.5c-10 0 -20.333 -1 -31 -3s-20.5 -5.16699 -29.5 -9.5s-17.167 -10.166 -24.5 -17.499s-12.333 -16 -15 -26h-118c4 28 13.167 51.667 27.5 71
s31.666 35.333 51.999 48s43 21.667 68 27s50.167 8 75.5 8c36.667 0 70.167 -5.16699 100.5 -15.5s55.166 -27.833 74.499 -52.5c19.333 -23.333 32.166 -50.833 38.499 -82.5s9.5 -64.834 9.5 -99.501v-286h-101zM157.007 149.001
c0 -12.667 3.16699 -23.3301 9.5 -31.9971s14.166 -15.334 23.499 -20.001s18.666 -7.83398 27.999 -9.50098s19.333 -2.5 30 -2.5c20 0 39 3.16699 57 9.5s33.833 15.833 47.5 28.5s24.5 28.667 32.5 48s12 42 12 68c-10.667 0 -24 -0.5 -40 -1.5
s-33.167 -2.33301 -51.5 -4s-36.166 -4.33398 -53.499 -8.00098s-33.166 -8.5 -47.499 -14.5s-25.833 -14.167 -34.5 -24.5s-13 -22.833 -13 -37.5z" />
    <glyph glyph-name="t0163.alt" horiz-adv-x="412" 
d="M220 527l158.001 -0.000976562v-99h-158v-232c0 -13.333 0.833008 -26 2.5 -38s5 -22.833 10 -32.5s12.167 -17.5 21.5 -23.5s22 -9 38 -9c28 0 52 8.33301 72 25l38 -85c-17.333 -13.333 -37.333 -23.166 -60 -29.499s-45 -9.5 -67 -9.5c-6.66699 0 -13 0.333008 -19 1
l-14 -46c3.33301 0.666992 6.66602 1 9.99902 1h11c24.667 0 45.167 -7 61.5 -21s24.5 -35.667 24.5 -65c0 -21.333 -4.16699 -39.833 -12.5 -55.5s-19.666 -28.5 -33.999 -38.5s-30.666 -17.333 -48.999 -22s-37.5 -7 -57.5 -7c-14 0 -29 1 -45 3v17l1 33v17
c6 -0.666992 11.667 -1.16699 17 -1.5s10.666 -0.5 15.999 -0.5c24 0 42.833 3.5 56.5 10.5s20.5 18.833 20.5 35.5c0 14 -5.33301 23.333 -16 28s-23 7 -37 7c-10.667 0 -20.834 -0.333008 -30.501 -1s-18.167 -1.66699 -25.5 -3l34 124
c-15.333 6.66699 -28.333 15.667 -39 27c-27.333 29.333 -41 75 -41 137v254h-83v99h83v150h113v-150z" />
    <glyph glyph-name="t021b.alt" horiz-adv-x="412" 
d="M220 527l157.999 -0.000976562v-99h-158v-232c0 -13.333 0.833008 -26 2.5 -38s5 -22.833 10 -32.5s12.167 -17.5 21.5 -23.5s22 -9 38 -9c28 0 52 8.33301 72 25l38 -85c-17.333 -13.333 -37.333 -23.166 -60 -29.499s-45 -9.5 -67 -9.5
c-57.333 0 -99.666 14.5 -126.999 43.5s-41 74.5 -41 136.5v254h-83v99h83v150h113v-150zM224.999 -190.001c-17.333 1.33301 -31.499 7 -42.499 17s-16.5 23.333 -16.5 40c0 17.333 6 31.5 18 42.5s26.667 16.5 44 16.5c23.333 0 40.666 -8 51.999 -24s17 -34.333 17 -55
c0 -15.333 -2.83301 -30.833 -8.5 -46.5s-13.334 -30.5 -23.001 -44.5s-21.167 -26.333 -34.5 -37s-27.666 -19 -42.999 -25l-24 35c13.333 9.33301 25.833 21 37.5 35s19.5 29.333 23.5 46z" />
    <glyph glyph-name="map" horiz-adv-x="673" 
d="M43 668l16.001 15.9951c1.33301 1.33301 2.66602 2 3.99902 2h39c2 0 3.33301 0.333008 4 1l19 19c1.33301 1.33301 2.66602 2 3.99902 2h96c1.33301 0 2.66602 -0.666992 3.99902 -2l46 -46c0.666992 -0.666992 1.66699 -1 3 -1h33c3.33301 0 5 -1.66699 5 -5v-25
c0 -3.33301 2 -5 6 -5h6c2 0 3.33301 0.333008 4 1l16 17c0.666992 0.666992 2 1 4 1h32c3.33301 0 5 -1.66699 5 -5v-26c0 -1.33301 0.666992 -2.66602 2 -3.99902l20 -20c2 -2.66699 4.33301 -2.66699 7 0l10 10c0.666992 0.666992 2 1 4 1h6c4 0 6 -1.66699 6 -5v-79
c0 -1.33301 -0.666992 -2.66602 -2 -3.99902l-6 -6c-2.66699 -2.66699 -2.66699 -5.33398 0 -8.00098l59 -59c0.666992 -0.666992 1.66699 -1 3 -1h12c3.33301 0 5 -1.66699 5 -5v-71c0 -1.33301 0.666992 -2.66602 2 -3.99902l22 -22
c1.33301 -1.33301 2.66602 -2 3.99902 -2h12c2 0 3.33301 -0.333008 4 -1l16 -17c1.33301 -1.33301 2 -2.66602 2 -3.99902v-37c0 -1.33301 -0.666992 -2.66602 -2 -3.99902l-6 -5c-2.66699 -2.66699 -2.66699 -5.33398 0 -8.00098l21 -20c0.666992 -0.666992 1 -2 1 -4
c0 -3.33301 -1.66699 -5 -5 -5h-33c-1.33301 0 -2.33301 0.333008 -3 1l-9 9c-2.66699 2 -5 2 -7 0l-11 -11c-3.33301 -2 -6 -2 -8 0l-15 15c-2 2 -4.66699 2 -8 0l-27 -27c-1.33301 -1.33301 -2.33301 -2 -3 -2h-9c-3.33301 0 -5 2 -5 6v34
c0 2.66699 -1.16699 4.33398 -3.5 5.00098s-4.16602 0.333984 -5.49902 -0.999023l-22 -22c-0.666992 -0.666992 -1 -1.66699 -1 -3v-27c0 -2 0.333008 -3.33301 1 -4l10 -10c2 -2.66699 2 -5 0 -7l-20 -20c-0.666992 -0.666992 -1 -2 -1 -4v-25
c0 -1.33301 -0.666992 -2.66602 -2 -3.99902l-22 -22c-0.666992 -0.666992 -1 -1.66699 -1 -3v-12c0 -1.33301 -0.666992 -2.66602 -2 -3.99902l-12 -12c-1.33301 -1.33301 -2.33301 -2 -3 -2h-9c-1.33301 0 -2.33301 -0.333008 -3 -1l-10 -10
c-1.33301 -1.33301 -2 -2.66602 -2 -3.99902v-38c0 -4 -1.66699 -6 -5 -6h-20c-2 0 -3.33301 -0.333008 -4 -1l-14 -15c-0.666992 0 -1.16699 -0.166992 -1.5 -0.5s-1.16602 -0.5 -2.49902 -0.5h-3c-3.33301 0 -5 1.66699 -5 5v23c0 1.33301 -0.666992 2.66602 -2 3.99902
l-9 9c-2.66699 2 -2.66699 4.33301 0 7l12 12c4 2.66699 4 5.33398 0 8.00098l-12 12c-0.666992 0.666992 -1 2 -1 4v85c0 2 0.333008 3.33301 1 4l14 13c0.666992 0.666992 1 2 1 4v119c0 2 -0.333008 3.33301 -1 4l-13 12c-0.666992 0.666992 -1 2 -1 4v23
c0 2 -0.666992 3 -2 3l-46 47c-1.33301 1.33301 -2 2.66602 -2 3.99902v21c0 2 -0.333008 3.33301 -1 4l-46 46c-1.33301 1.33301 -2 2.33301 -2 3v26c0 2 -0.333008 3.33301 -1 4l-31 30c-0.666992 0.666992 -1 2 -1 4v29c0 1.33301 -0.666992 2.66602 -2 3.99902l-21 21
c-1.33301 1.33301 -2 2.66602 -2 3.99902v26c0 2 -0.333008 3.33301 -1 4l-23 23c-1.33301 1.33301 -2.66602 2 -3.99902 2h-42c-3.33301 0 -5 1.66699 -5 5v2c0 2 0.333008 3.33301 1 4z" />
    <glyph glyph-name="logo" horiz-adv-x="2930" 
d="M793 505c-2.66699 -6 -7.33203 -10.0029 -13.999 -12.0029c0 -5.33301 -2 -9.83301 -6 -13.5s-8.66699 -5.5 -14 -5.5c-2 -10 -8.33301 -15 -19 -15c-4.66699 0 -9.33398 1.66699 -14.001 5l-12 13c-4 4 -6 8.66699 -6 14v26l-25 20h-118l-26 -26v-36h144
c6 0 10.667 -1.66699 14 -5l25 -26c4 -4 6 -8.66699 6 -14s-1.83301 -9.83301 -5.5 -13.5s-8.16699 -5.5 -13.5 -5.5h-38c-5.33301 0 -10 2 -14 6l-20 19h-109l-94 -94c-1.33301 0 -3.33301 -1.16699 -6 -3.5s-5.66699 -3.5 -9 -3.5c-4 0 -7.33301 1.16699 -10 3.5
s-4.66699 3.5 -6 3.5l-93 94h-110l-20 -19c-3.33301 -4 -8 -6 -14 -6h-37c-5.33301 0 -10.166 1.83301 -14.499 5.5s-6.5 8.16699 -6.5 13.5c0 4.66699 2.33301 9.33398 7 14.001l25 26c4.66699 3.33301 9.33398 5 14.001 5h144v36l-26 26h-118l-25 -20v-26
c0 -5.33301 -2 -10 -6 -14l-12 -13c-4.66699 -3.33301 -9.33398 -5 -14.001 -5c-11.333 0 -17.666 5 -18.999 15c-5.33301 0 -9.83301 1.83301 -13.5 5.5s-5.5 8.16699 -5.5 13.5c-4.66699 1.33301 -8.66699 3.5 -12 6.5s-5 7.16699 -5 12.5
c0 4.66699 2.33301 9.33398 7 14.001l12 13c4 4 8.66699 6 14 6h27l2 2l31 25c3.33301 2.66699 7.33301 4 12 4h39c3.33301 8.66699 9.33301 13 18 13c5.33301 0 10 -2 14 -6l7 -7h55c4.66699 0 9.33398 -1.66699 14.001 -5l4 -5v20l-26 27h-135l-20 -20
c-4.66699 -3.33301 -9.33398 -5 -14.001 -5h-12c-4.66699 0 -9.33398 1.66699 -14.001 5l-13 13c-3.33301 4.66699 -5 9.33398 -5 14.001c0 5.33301 1.33301 9.33301 4 12c-2.66699 3.33301 -4 7.66602 -4 12.999c0 4.66699 1.66699 9.33398 5 14.001l13 12
c4 4 8.66699 6 14 6h12c5.33301 0 10 -2 14 -6l20 -19h35v28c-8 0 -14.167 5 -18.5 15s-6.5 18.667 -6.5 26v37c0 5.33301 1.83301 10 5.5 14s8.16699 6 13.5 6h51c5.33301 0 9.83301 -2 13.5 -6s5.5 -8.66699 5.5 -14v-37c0 -7.33301 -2.16699 -16 -6.5 -26
s-10.5 -15 -18.5 -15v-28h25c-0.666992 1.33301 -1 3 -1 5c0 5.33301 1.83301 10 5.5 14s8.5 6 14.5 6c5.33301 0 10 -2 14 -6l36 -36c3.33301 2.66699 7.66602 4 12.999 4s9.83301 -1.83301 13.5 -5.5s5.5 -8.16699 5.5 -13.5v-156l62 -62v71l-32 32c-4 4 -6 8.66699 -6 14
s2 9.83301 6 13.5s8.66699 5.5 14 5.5c4.66699 0 9.33398 -1.66699 14.001 -5l4 -5v84l-95 95c-4 2.66699 -6 7.33398 -6 14.001v18h-6c-5.33301 0 -9.83301 1.83301 -13.5 5.5s-5.5 8.16699 -5.5 13.5s1.83301 10 5.5 14s8.16699 6 13.5 6h6v6c0 5.33301 2 9.83301 6 13.5
s8.66699 5.5 14 5.5s9.83301 -1.83301 13.5 -5.5s5.5 -8.16699 5.5 -13.5v-6h6c5.33301 0 9.83301 -2 13.5 -6s5.5 -8.66699 5.5 -14s-1.83301 -9.83301 -5.5 -13.5s-8.16699 -5.5 -13.5 -5.5h-6v-10l62 -62v120c-1.33301 1.33301 -2 2.33301 -2 3l-55 55
c-4 4 -6 8.66699 -6 14s2 10 6 14l12 13c1.33301 1.33301 2.5 2.16602 3.5 2.49902s2.16699 0.833008 3.5 1.5v20c0 5.33301 2 10 6 14l13 12c2.66699 4 7 6 13 6c4 0 7.66699 -1 11 -3c4 4 9 6 15 6c5.33301 0 10 -2 14 -6c2.66699 2 6.33398 3 11.001 3
c5.33301 0 10 -2 14 -6l12 -12c4 -4 6 -8.66699 6 -14v-20c2.66699 -1.33301 5 -2.66602 7 -3.99902l12 -13c4 -4 6 -8.66699 6 -14s-2 -10 -6 -14l-55 -55c0 -0.666992 -0.666992 -1.66699 -2 -3v-120l62 62v10h-6c-5.33301 0 -9.83301 1.83301 -13.5 5.5
s-5.5 8.16699 -5.5 13.5s1.83301 10 5.5 14s8.16699 6 13.5 6h6v6c0 5.33301 1.83301 9.83301 5.5 13.5s8.16699 5.5 13.5 5.5s10 -1.83301 14 -5.5s6 -8.16699 6 -13.5v-6h6c5.33301 0 9.83301 -2 13.5 -6s5.5 -8.66699 5.5 -14s-1.83301 -9.83301 -5.5 -13.5
s-8.16699 -5.5 -13.5 -5.5h-6v-18c0 -6.66699 -2 -11.334 -6 -14.001l-95 -95v-84l5 5c3.33301 3.33301 7.66602 5 12.999 5c7.33301 0 12.5 -2 15.5 -6s4.5 -8.33301 4.5 -13c0 -5.33301 -2 -10 -6 -14l-32 -32v-71l62 62v156c0 5.33301 1.83301 9.83301 5.5 13.5
s8.16699 5.5 13.5 5.5s9.66602 -1.33301 12.999 -4l37 36c2.66699 4 7.33398 6 14.001 6c5.33301 0 9.83301 -2 13.5 -6s5.5 -8.66699 5.5 -14c0 -0.666992 -0.166992 -1.33398 -0.5 -2.00098s-0.5 -1.66699 -0.5 -3h25v28c-8 0 -14.167 5 -18.5 15s-6.5 18.667 -6.5 26v37
c0 5.33301 1.83301 10 5.5 14s8.16699 6 13.5 6h51c5.33301 0 9.83301 -2 13.5 -6s5.5 -8.66699 5.5 -14v-37c0 -7.33301 -2.16699 -16 -6.5 -26s-10.5 -15 -18.5 -15v-28h36l19 19c4 4 8.66699 6 14 6h12c5.33301 0 10 -2 14 -6l13 -12c4 -4 6 -8.66699 6 -14
c0 -4 -1.66699 -8.33301 -5 -13c3.33301 -3.33301 5 -7.33301 5 -12c0 -5.33301 -2 -10 -6 -14l-13 -13c-4.66699 -3.33301 -9.33398 -5 -14.001 -5h-12c-4.66699 0 -9.33398 1.66699 -14.001 5l-19 20h-136l-26 -27v-20l4 5c4.66699 3.33301 9.33398 5 14.001 5h55l7 7
c4 4 8.66699 6 14 6c8.66699 0 14.667 -4.33301 18 -13h39c4.66699 0 8.66699 -1.33301 12 -4l31 -25c0.666992 -0.666992 1.16699 -1 1.5 -1s0.833008 -0.333008 1.5 -1h26c5.33301 0 10 -2 14 -6l12 -13c4 -4 6 -8.66699 6 -14c0 -3.33301 -0.333008 -5.66602 -1 -6.99902
zM897.002 380.997c28.667 0 55.168 -4.49902 79.501 -13.499s45.333 -21.833 63 -38.5s31.5 -36.834 41.5 -60.501s15 -50.5 15 -80.5c0 -28.667 -5 -54.834 -15 -78.501s-23.833 -44 -41.5 -61s-38.667 -30.333 -63 -40s-50.833 -14.5 -79.5 -14.5s-55.167 4.5 -79.5 13.5
s-45.333 21.833 -63 38.5s-31.5 37 -41.5 61s-15 51 -15 81c0 26.667 4.83301 51.834 14.5 75.501s23.167 44.167 40.5 61.5s38.166 31 62.499 41s51.5 15 81.5 15zM1996 380.998c28.667 0 55.167 -4.49902 79.501 -13.499c24.333 -9 45.333 -21.833 63 -38.5
s31.5 -36.834 41.5 -60.501s15 -50.5 15 -80.5c0 -28.667 -5 -54.834 -15 -78.501s-23.833 -44 -41.5 -61s-38.667 -30.333 -63 -40s-50.833 -14.5 -79.5 -14.5s-55.167 4.5 -79.5 13.5s-45.333 21.833 -63 38.5s-31.5 37 -41.5 61s-15 51 -15 81
c0 26.667 4.83301 51.834 14.5 75.501s23.167 44.167 40.5 61.5s38.166 31 62.499 41s51.5 15 81.5 15zM1426 365.999c0 6 3 9 9 9h22.5c9.66699 0 20 0.166992 31 0.5s21.5 0.5 31.5 0.5h24c37.333 0 69.333 -5 96 -15s48.5 -23.5 65.5 -40.5s29.333 -36.667 37 -59
s11.5 -45.833 11.5 -70.5c0 -26 -4.5 -50.667 -13.5 -74s-22.5 -43.833 -40.5 -61.5s-40.333 -31.5 -67 -41.5s-57.667 -15 -93 -15c-10 0 -25.5 0.166992 -46.5 0.5s-40.5 0.5 -58.5 0.5c-6 0 -9 3 -9 9v357zM270.003 12.999c0 -8.66699 -4 -13 -12 -13h-61
c-8 0 -12 4.33301 -12 13v349c0 8.66699 4 13 12 13h61c8 0 15 -3 21 -9l132 -132c1.33301 -1.33301 3.33301 -2 6 -2c3.33301 0 5.66602 0.666992 6.99902 2l132 132c6 6 13 9 21 9h61c8 0 12 -4.33301 12 -13v-349c0 -8.66699 -4 -13 -12 -13h-61
c-8.66699 0 -13 4.33301 -13 13v219c0 2 -1.33301 3 -4 3c-0.666992 0 -1.33398 -0.333008 -2.00098 -1l-118 -118c-7.33301 -6 -14.666 -9 -21.999 -9h-1c-7.33301 0 -14.666 3 -21.999 9l-118 118c-0.666992 0.666992 -1.66699 1 -3 1c-2.66699 0 -4 -1 -4 -3v-219z
M1140 365.999c0 6 3 9 9 9h67c6 0 9 -3 9 -9v-281c0 -2.66699 1.66699 -4 5 -4h139c6 0 9 -3 9 -9v-63c0 -6 -3 -9 -9 -9h-220c-6 0 -9 3 -9 9v357zM2413 8.99902c-2.66699 -6 -7 -9.00098 -13 -9.00098h-49c-5.33301 0 -9.33301 3 -12 9l-146 357
c-0.666992 0.666992 -1 1.66699 -1 3c0 4 2 6 6 6h76c5.33301 0 9.33301 -3 12 -9l91 -234c0 -1.33301 0.666992 -2 2 -2c0.666992 0.666992 1 1.33398 1 2.00098l87 234c2.66699 6 7 9 13 9h70c4 0 6 -2 6 -6c0 -0.666992 -0.166992 -1.16699 -0.5 -1.5
s-0.5 -0.833008 -0.5 -1.5zM2626 366.998c2.66699 5.33301 6.66699 8 12 8h56c5.33301 0 9.33301 -2.66699 12 -8l141 -358c0 -0.666992 0.166992 -1.16699 0.5 -1.5s0.5 -0.833008 0.5 -1.5c0 -4 -2 -6 -6 -6h-70c-6 0 -9.66699 3 -11 9l-25 66
c-1.33301 2.66699 -3.33301 4 -6 4h-133c-2.66699 0 -4.66699 -1.33301 -6 -4l-24 -66c-2.66699 -6 -6.66699 -9 -12 -9h-65c-4 0 -6 2 -6 6c0 1.33301 0.333008 2.33301 1 3zM897.003 73.998c35.333 0 62.165 11.168 80.498 33.501s27.5 49.166 27.5 80.499
c0 34 -10.5 61.333 -31.5 82s-46.5 31 -76.5 31c-31.333 0 -57.166 -10.333 -77.499 -31s-30.5 -48 -30.5 -82c0 -16 2.83301 -31 8.5 -45s13.334 -26.167 23.001 -36.5s21 -18.333 34 -24s27.167 -8.5 42.5 -8.5zM1996 73.999c35.333 0 62.165 11.168 80.498 33.501
s27.5 49.166 27.5 80.499c0 34 -10.5 61.333 -31.5 82s-46.5 31 -76.5 31c-31.333 0 -57.166 -10.333 -77.499 -31s-30.5 -48 -30.5 -82c0 -16 2.83301 -31 8.5 -45s13.334 -26.167 23.001 -36.5s21 -18.333 34 -24s27.167 -8.5 42.5 -8.5zM1516 295
c-3.33301 0 -4.99805 -1.66797 -4.99805 -5.00098v-205c0 -4 3.83301 -5.83301 11.5 -5.5s14.167 0.5 19.5 0.5c37.333 0 66.833 9.5 88.5 28.5s32.5 46.5 32.5 82.5c0 34.667 -11.333 60.834 -34 78.501s-51.334 26.5 -86.001 26.5h-13
c-4.66699 0 -9.33398 -0.333008 -14.001 -1zM2625 162.999v-1c0 -2 1 -3 3 -3h71c2 0 3 1 3 3v1l-37 98l-1 1l-2 -1z" />
    <glyph glyph-name="a00E2.alt" horiz-adv-x="566" 
d="M327 790l146 -189h-107l-74 98l-73 -98h-107l145 189h70zM398 61c-23.333 -25.333 -49.3271 -42.833 -77.9941 -52.5s-58.667 -14.5 -90 -14.5c-25.333 0 -49 3 -71 9s-41.667 15.167 -59 27.5s-30.833 28.166 -40.5 47.499s-14.834 41.666 -15.501 66.999
c0 39.333 11 71.5 33 96.5s50.5 42.833 85.5 53.5s73.167 17.834 114.5 21.501s80.666 6.16699 117.999 7.5c0 36.667 -9.33301 64.834 -28 84.501s-48.334 29.5 -89.001 29.5c-10 0 -20.333 -1 -31 -3s-20.5 -5.16699 -29.5 -9.5s-17.167 -10.166 -24.5 -17.499
s-12.333 -16 -15 -26h-118c4 28 13.167 51.667 27.5 71s31.666 35.333 51.999 48s43 21.667 68 27s50.167 8 75.5 8c36.667 0 70.167 -5.16699 100.5 -15.5s55.166 -27.833 74.499 -52.5c19.333 -23.333 32.166 -50.833 38.499 -82.5s9.5 -64.834 9.5 -99.501v-286h-101z
M157.006 149c0 -12.667 3.16602 -23.166 9.49902 -31.499s14.166 -15 23.499 -20s19 -8.33301 29 -10s19.667 -2.5 29 -2.5c20 0 39 3.16699 57 9.5s33.833 15.833 47.5 28.5s24.5 28.667 32.5 48s12 42 12 68c-10.667 0 -24 -0.5 -40 -1.5s-33.167 -2.33301 -51.5 -4
s-36.166 -4.33398 -53.499 -8.00098s-33.166 -8.5 -47.499 -14.5s-25.833 -14.167 -34.5 -24.5s-13 -22.833 -13 -37.5z" />
    <glyph glyph-name="a0103.alt" horiz-adv-x="566" 
d="M291 683c24 0 42.999 5.33301 56.999 16s22.333 27.667 25 51h101c-3.33301 -50.667 -21.166 -88.167 -53.499 -112.5s-74.833 -36.5 -127.5 -36.5c-54 0 -97.5 11.5 -130.5 34.5s-51.167 61.167 -54.5 114.5h100c2 -23.333 10.333 -40.333 25 -51s34 -16 58 -16z
M397.999 61c-23.333 -25.333 -49.3271 -42.833 -77.9941 -52.5s-58.667 -14.5 -90 -14.5c-25.333 0 -49 3 -71 9s-41.667 15.167 -59 27.5s-30.833 28.166 -40.5 47.499s-14.834 41.666 -15.501 66.999c0 39.333 11 71.5 33 96.5s50.5 42.833 85.5 53.5
s73.167 17.834 114.5 21.501s80.666 6.16699 117.999 7.5c0 36.667 -9.33301 64.834 -28 84.501s-48.334 29.5 -89.001 29.5c-10 0 -20.333 -1 -31 -3s-20.5 -5.16699 -29.5 -9.5s-17.167 -10.166 -24.5 -17.499s-12.333 -16 -15 -26h-118c4 28 13.167 51.667 27.5 71
s31.666 35.333 51.999 48s43 21.667 68 27s50.167 8 75.5 8c36.667 0 70.167 -5.16699 100.5 -15.5s55.166 -27.833 74.499 -52.5c19.333 -23.333 32.166 -50.833 38.499 -82.5s9.5 -64.834 9.5 -99.501v-286h-101zM157.005 149c0 -12.667 3.16602 -23.166 9.49902 -31.499
s14.166 -15 23.499 -20s19 -8.33301 29 -10s19.667 -2.5 29 -2.5c20 0 39 3.16699 57 9.5s33.833 15.833 47.5 28.5s24.5 28.667 32.5 48s12 42 12 68c-10.667 0 -24 -0.5 -40 -1.5s-33.167 -2.33301 -51.5 -4s-36.166 -4.33398 -53.499 -8.00098
s-33.166 -8.5 -47.499 -14.5s-25.833 -14.167 -34.5 -24.5s-13 -22.833 -13 -37.5z" />
    <glyph glyph-name="a00E4.alt" horiz-adv-x="566" 
d="M178 729c21.333 0 38.666 -6.33301 51.999 -19s20 -29.667 20 -51s-6.66699 -38.5 -20 -51.5s-30.666 -19.5 -51.999 -19.5s-38.666 6.5 -51.999 19.5s-20 30.167 -20 51.5s6.66699 38.333 20 51s30.666 19 51.999 19zM405 729c21.333 0 38.666 -6.33301 51.999 -19
s20 -29.667 20 -51s-6.66699 -38.5 -20 -51.5s-30.666 -19.5 -51.999 -19.5c-20.667 0 -37.667 6.5 -51 19.5s-20 30.167 -20 51.5s6.66699 38.333 20 51s30.333 19 51 19zM398 61c-23.333 -25.333 -49.3271 -42.833 -77.9941 -52.5s-58.667 -14.5 -90 -14.5
c-25.333 0 -49 3 -71 9s-41.667 15.167 -59 27.5s-30.833 28.166 -40.5 47.499s-14.834 41.666 -15.501 66.999c0 39.333 11 71.5 33 96.5s50.5 42.833 85.5 53.5s73.167 17.834 114.5 21.501s80.666 6.16699 117.999 7.5c0 36.667 -9.33301 64.834 -28 84.501
s-48.334 29.5 -89.001 29.5c-10 0 -20.333 -1 -31 -3s-20.5 -5.16699 -29.5 -9.5s-17.167 -10.166 -24.5 -17.499s-12.333 -16 -15 -26h-118c4 28 13.167 51.667 27.5 71s31.666 35.333 51.999 48s43 21.667 68 27s50.167 8 75.5 8c36.667 0 70.167 -5.16699 100.5 -15.5
s55.166 -27.833 74.499 -52.5c19.333 -23.333 32.166 -50.833 38.499 -82.5s9.5 -64.834 9.5 -99.501v-286h-101zM157.006 149c0 -12.667 3.16602 -23.166 9.49902 -31.499s14.166 -15 23.499 -20s19 -8.33301 29 -10s19.667 -2.5 29 -2.5c20 0 39 3.16699 57 9.5
s33.833 15.833 47.5 28.5s24.5 28.667 32.5 48s12 42 12 68c-10.667 0 -24 -0.5 -40 -1.5s-33.167 -2.33301 -51.5 -4s-36.166 -4.33398 -53.499 -8.00098s-33.166 -8.5 -47.499 -14.5s-25.833 -14.167 -34.5 -24.5s-13 -22.833 -13 -37.5z" />
    <glyph glyph-name="uni2702_alt" horiz-adv-x="623" 
d="M561 0l-110 0.000976562l-4 58c-19.333 -22.667 -43.333 -39.334 -72 -50.001s-59.334 -16 -92.001 -16c-41.333 0 -77.333 7.16699 -108 21.5s-55.834 33.833 -75.501 58.5s-34.167 53.167 -43.5 85.5s-14 66.5 -14 102.5c0 39.333 5 75.5 15 108.5
s25.5 61.833 46.5 86.5s46.833 44.167 77.5 58.5s68 21.5 112 21.5c30.667 0 59.834 -5.16699 87.501 -15.5s50.834 -26.5 69.501 -48.5l6 56h105v-527zM299 433.001c-25.333 0 -47.167 -4.33691 -65.5 -13.0039s-33.333 -20.667 -45 -36s-20.167 -33.5 -25.5 -54.5
s-8 -43.5 -8 -67.5s2.83301 -46.333 8.5 -67s14.334 -38.667 26.001 -54s26.667 -27.5 45 -36.5s40.5 -13.5 66.5 -13.5c24.667 0 46.167 4.83301 64.5 14.5s33.5 22.334 45.5 38.001s21 33.834 27 54.501s9 42 9 64c0 22.667 -2.66699 44.334 -8 65.001
s-14 38.834 -26 54.501s-27.333 28 -46 37s-41.334 13.833 -68.001 14.5z" />
    <glyph glyph-name="logom" horiz-adv-x="839" 
d="M796 508c-3.33301 -6 -8.33105 -10.001 -14.998 -12.001c0 -5.33301 -1.83301 -9.83301 -5.5 -13.5s-8.16699 -5.5 -13.5 -5.5c-1.33301 -7.33301 -5.83301 -12.166 -13.5 -14.499s-14.167 -0.833008 -19.5 4.5l-12 12c-2.66699 2.66699 -4.5 5.5 -5.5 8.5
s-1.5 6.83301 -1.5 11.5v21l-25 20h-118l-27 -26v-36h146c5.33301 0 10 -2 14 -6l25 -25c6 -6 7.33301 -13.167 4 -21.5s-9.33301 -12.5 -18 -12.5c-13.333 0 -23.166 -0.166992 -29.499 -0.5s-11.333 0.166992 -15 1.5s-7.16699 3.83301 -10.5 7.5s-9 9.5 -17 17.5h-110
l-95 -95c-4.66699 -5.33301 -9.83398 -8 -15.501 -8s-10.5 2.66699 -14.5 8l-95 95h-110l-20 -20c-4 -4 -8.66699 -6 -14 -6h-38c-8.66699 0 -14.667 4 -18 12s-2 15.333 4 22l25 25c4 4 8.66699 6 14 6h146v36l-27 26h-118l-25 -20v-21c0 -4.66699 -0.5 -8.5 -1.5 -11.5
s-2.83301 -5.83301 -5.5 -8.5l-12 -12c-5.33301 -5.33301 -11.833 -7 -19.5 -5s-12.167 7 -13.5 15c-5.33301 0 -9.83301 1.83301 -13.5 5.5s-5.5 8.16699 -5.5 13.5c-8 1.33301 -13 5.83301 -15 13.5s-0.333008 14.167 5 19.5l12 12c2.66699 2.66699 5.5 4.5 8.5 5.5
s6.83301 1.5 11.5 1.5h21l34 27c3.33301 3.33301 7.33301 5 12 5h39c2.66699 6.66699 7.33398 10.667 14.001 12s12.667 -0.333984 18 -5.00098l7 -7h55c4.66699 0 8.16699 -1 10.5 -3s5.16602 -4.66699 8.49902 -8v21l-27 26h-136
c-6.66699 -6.66699 -11.5 -11.667 -14.5 -15s-5.83301 -5.83301 -8.5 -7.5s-5.5 -2.5 -8.5 -2.5h-14.5c-5.33301 0 -10 1.83301 -14 5.5l-13 12.5c-7.33301 8.66699 -7.66602 17.667 -0.999023 27c-3.33301 4 -5 8 -5 12s1 7.5 3 10.5s4.66699 6 8 9s6 5.5 8 7.5
c3.33301 4 7.33301 6 12 6h15c5.33301 0 10 -2 14 -6l19 -19h36v28c-8 3.33301 -14.333 8.66602 -19 15.999s-7 15.666 -7 24.999v38c0 5.33301 2 10 6 14s8.66699 6 14 6h51c5.33301 0 10 -2 14 -6s6 -8.66699 6 -14v-38c0 -9.33301 -2.33301 -17.666 -7 -24.999
s-11 -12.666 -19 -15.999v-28h25c-1.33301 4.66699 -1 9.16699 1 13.5s4.66699 7.5 8 9.5s7.33301 2.83301 12 2.5s8.66699 -2.5 12 -6.5l37 -36c0.666992 0.666992 1.66699 1.33398 3 2.00098c2.66699 1.33301 5.66699 2 9 2c5.33301 0 10 -2 14 -6s6 -8.66699 6 -14v-156
l62 -63v72l-32 32c-4.66699 4.66699 -6.66699 9.5 -6 14.5s2.66699 9.33301 6 13s7.66602 5.83398 12.999 6.50098s10.333 -1.33301 15 -6l4 -5v84l-95 96c-4 4 -6 8.66699 -6 14v18h-6c-6.66699 0 -11.667 2 -15 6s-5 8.5 -5 13.5s1.66699 9.66699 5 14s8.33301 6.5 15 6.5
h6v5c0 6.66699 2 11.5 6 14.5s8.5 4.5 13.5 4.5s9.5 -1.5 13.5 -4.5s6 -7.83301 6 -14.5v-5h6c6.66699 0 11.5 -2.16699 14.5 -6.5s4.5 -9 4.5 -14s-1.5 -9.5 -4.5 -13.5s-7.83301 -6 -14.5 -6h-6v-10l62 -62v121c0 0.666992 -2.66699 3.83398 -8 9.50098l-18 18.5l-31 31
c-4 3.33301 -6 7.83301 -6 13.5s2 10.5 6 14.5c2.66699 2.66699 5.66699 5.83398 9 9.50098s6.66602 6.16699 9.99902 7.5v17.5c0 3.66699 0.5 6.66699 1.5 9s2.83301 4.83301 5.5 7.5l12 12c6.66699 8 14.667 9 24 3c5.33301 4.66699 11 6.66699 17 6
s10.333 -2.66699 13 -6c4 2.66699 7.66699 3.66699 11 3s6.5 -2 9.5 -4s5.83301 -4.33301 8.5 -7l8 -8c4 -4 6 -8.83301 6 -14.5v-18.5c3.33301 -1.33301 6.66602 -3.83301 9.99902 -7.5s6.33301 -6.83398 9 -9.50098c4 -4 6 -8.83301 6 -14.5s-2 -10.167 -6 -13.5l-31 -31
l-18 -18.5c-5.33301 -5.66699 -8 -8.83398 -8 -9.50098v-121l62 62v10h-6c-6.66699 0 -11.667 2 -15 6s-5 8.5 -5 13.5s1.66699 9.66699 5 14s8.33301 6.5 15 6.5h6v5c0 6.66699 2 11.5 6 14.5s8.5 4.5 13.5 4.5s9.5 -1.5 13.5 -4.5s6 -7.83301 6 -14.5v-5h6
c6.66699 0 11.5 -2.16699 14.5 -6.5s4.5 -9 4.5 -14s-1.5 -9.5 -4.5 -13.5s-7.83301 -6 -14.5 -6h-6v-18c0 -5.33301 -1.66699 -10 -5 -14l-96 -96v-84c2.66699 3.33301 5.16699 6 7.5 8s5.83301 3 10.5 3c9.33301 0 15.5 -4.16699 18.5 -12.5s1.5 -15.5 -4.5 -21.5l-32 -32
v-72l62 63v156c0 8.66699 3.66699 14.834 11 18.501s14.333 2.83398 21 -2.49902l37 36c3.33301 4 7.33301 6.16699 12 6.5s8.66699 -0.5 12 -2.5s6 -5.16699 8 -9.5s2.33301 -8.83301 1 -13.5h25v28c-8 3.33301 -14.333 8.66602 -19 15.999s-7 15.666 -7 24.999v38
c0 5.33301 2 10 6 14s8.66699 6 14 6h51c5.33301 0 10 -2 14 -6s6 -8.66699 6 -14v-38c0 -9.33301 -2.33301 -17.666 -7 -24.999s-11 -12.666 -19 -15.999v-28h36c6.66699 6.66699 11.5 11.667 14.5 15s5.83301 5.66602 8.5 6.99902s5.5 2.16602 8.5 2.49902
s7.83301 0.5 14.5 0.5c5.33301 0 10 -1.83301 14 -5.5l13 -12.5c7.33301 -8.66699 7.66602 -17.667 0.999023 -27c6.66699 -8 7.16699 -15.333 1.5 -22s-10.834 -12.334 -15.501 -17.001c-3.33301 -3.33301 -7.33301 -5.16602 -12 -5.49902s-9.66699 -0.5 -15 -0.5
s-10 2 -14 6l-19 19h-136l-27 -26v-21c3.33301 3.33301 6.16602 6 8.49902 8s5.83301 3 10.5 3h55c3.33301 3.33301 6.33301 6.16602 9 8.49902s6.66699 3.5 12 3.5c8.66699 0 14.667 -4 18 -12h39c4.66699 0 8.66699 -1.66699 12 -5l34 -27h22
c4.66699 0 8.33398 -0.5 11.001 -1.5s5.33398 -2.83301 8.00098 -5.5l12 -12c6.66699 -6 8.33398 -13 5.00098 -21zM270.002 12.999c0 -8.66699 -4.33203 -13 -12.999 -13h-61c-8.66699 0 -13 4.33301 -13 13v351c0 8.66699 4.33301 13 13 13h61
c7.33301 0 14.666 -3 21.999 -9l132 -133c4.66699 -4 9 -4 13 0l133 133c7.33301 6 14.666 9 21.999 9h61c8 0 12 -4.33301 12 -13v-351c0 -8.66699 -4 -13 -12 -13h-61c-8.66699 0 -13 4.33301 -13 13v220c0 1.33301 -0.833008 2.5 -2.5 3.5s-3.16699 0.833008 -4.5 -0.5
l-119 -120c-6 -5.33301 -13.333 -8 -22 -8s-16 2.66699 -22 8l-120 120c-1.33301 1.33301 -2.66602 1.5 -3.99902 0.5s-2 -2.16699 -2 -3.5v-220z" />
    <glyph glyph-name="tab_1" 
d="M393 103h167v-103h-471v103h188v441h-164v77c19.333 0.666992 38.5 2 57.5 4s37.5 6.33301 55.5 13c17.333 6.66699 33 15.667 47 27s25.667 25.333 35 42h85v-604z" />
    <glyph glyph-name="I_alt" horiz-adv-x="604" 
d="M244 104v499h-204v104h524v-104h-204v-499h204v-104h-524v104h204z" />
    <glyph glyph-name="l_alt" horiz-adv-x="321" 
d="M176 187c0 -28.667 4.66602 -50 13.999 -64c12 -16.667 34.333 -25 67 -25h40v-98h-55c-65.333 -0 -111.666 13.333 -138.999 40c-27.333 27.333 -41 71 -41 131v536h114v-520z" />
    <glyph glyph-name="l2_alt" horiz-adv-x="368" 
d="M176 196c0 -12.667 0.833984 -25.0039 2.50098 -37.0039s5 -22.667 10 -32s12.167 -17.166 21.5 -23.499s22 -9.83301 38 -10.5c15.333 -1.33301 28.666 0.333984 39.999 5.00098s22 11.334 32 20.001l38 -85c-17.333 -13.333 -36.833 -23.166 -58.5 -29.499
s-43.5 -9.5 -65.5 -9.5c-62 0 -106.167 15.167 -132.5 45.5s-39.5 75.5 -39.5 135.5v532h114v-511z" />
    </font>
</defs>
</svg>
