<svg width="12" height="20" viewBox="0 0 12 20" fill="none" xmlns="http://www.w3.org/2000/svg">
<path d="M0.334625 17.478C-0.100886 17.9045 -0.100886 18.5988 0.334625 19.0252L1.00387 19.6805C1.21436 19.8866 1.4946 20 1.79394 20C2.09327 20 2.37393 19.8866 2.584 19.6805L11.6741 10.7805C11.8854 10.574 12.0008 10.2984 12 10.0037C12.0008 9.71016 11.8854 9.43455 11.6741 9.22805L2.5757 0.319512C2.36562 0.113415 2.08497 0 1.78605 0C1.48671 0 1.20606 0.113415 0.995986 0.319512L0.326321 0.974797C0.115832 1.18089 0 1.45528 0 1.74878C0 2.04187 0.115832 2.31667 0.326321 2.52195L7.96747 10.0041L0.334625 17.478Z" fill="#00284F" fill-opacity="0.5"/>
</svg>
