<svg width="54" height="54" viewBox="0 0 54 54" fill="none" xmlns="http://www.w3.org/2000/svg">
<path d="M48.8041 15.9507C46.8365 14.5558 45.0934 14.7797 41.5627 14.7797C41.5627 14.7797 41.6539 11 38.4345 11H5.42935C5.20912 10.9997 4.991 11.0432 4.78748 11.1279C4.58396 11.2127 4.39905 11.337 4.24332 11.4938C4.0876 11.6507 3.96413 11.8369 3.87998 12.0419C3.79584 12.2468 3.75267 12.4665 3.75297 12.6883C3.75297 12.9099 3.79635 13.1294 3.88062 13.3341C3.96489 13.5388 4.08841 13.7248 4.24411 13.8813C4.3998 14.0379 4.58462 14.1621 4.788 14.2467C4.99137 14.3313 5.2093 14.3747 5.42935 14.3744H9.34017C9.7667 14.375 10.1756 14.546 10.4769 14.85C10.7783 15.154 10.9476 15.566 10.9476 15.9955C10.9476 16.4251 10.7783 16.8371 10.4769 17.1411C10.1756 17.445 9.7667 17.6161 9.34017 17.6167H7.61932C7.36979 17.6164 7.12266 17.6656 6.89204 17.7616C6.66142 17.8576 6.45184 17.9984 6.27529 18.176C6.09874 18.3536 5.95868 18.5645 5.86313 18.7966C5.76757 19.0288 5.71839 19.2776 5.71839 19.5289C5.71839 19.7802 5.76757 20.029 5.86313 20.2612C5.95868 20.4933 6.09874 20.7042 6.27529 20.8818C6.45184 21.0594 6.66142 21.2002 6.89204 21.2962C7.12266 21.3922 7.36979 21.4414 7.61932 21.4411H8.87105C9.38662 21.4417 9.88087 21.6484 10.2452 22.0158C10.6096 22.3831 10.8142 22.8811 10.8142 23.4004C10.8142 23.6574 10.764 23.9119 10.6663 24.1493C10.5687 24.3867 10.4255 24.6025 10.2451 24.7842C10.0647 24.9659 9.85044 25.1101 9.61468 25.2084C9.37892 25.3068 9.12624 25.3574 8.87105 25.3574H1.71862C1.49274 25.3574 1.26908 25.4022 1.06042 25.4894C0.851763 25.5765 0.662214 25.7042 0.502596 25.8651C0.342978 26.0261 0.216431 26.2172 0.130193 26.4274C0.0439545 26.6377 -0.000290775 26.863 1.43801e-06 27.0905C1.05741e-06 27.5497 0.181006 27.9902 0.503247 28.3152C0.825489 28.6401 1.26261 28.823 1.71862 28.8236H9.05558C9.52377 28.8236 9.97279 29.0109 10.3039 29.3443C10.6349 29.6777 10.8209 30.1299 10.8209 30.6015C10.8174 31.0719 10.6303 31.5221 10.3 31.8547C9.96969 32.1874 9.52269 32.3758 9.05558 32.3793H7.03014C6.55369 32.3793 6.09677 32.57 5.75987 32.9092C5.42297 33.2485 5.23371 33.7087 5.23371 34.1886C5.234 34.4264 5.28081 34.6619 5.37147 34.8816C5.46213 35.1013 5.59486 35.3008 5.76208 35.4688C5.92931 35.6368 6.12776 35.77 6.3461 35.8608C6.56443 35.9515 6.79839 35.9981 7.03459 35.9978L14.0603 35.9866C14.2699 35.0643 14.6616 34.194 15.212 33.4273C16.4948 31.6359 18.4825 30.5679 20.5301 30.5679C21.686 30.5604 22.8146 30.9217 23.754 31.6001C24.4366 32.1081 24.9965 32.7649 25.3919 33.5213C25.7873 34.2777 26.0079 35.1144 26.0373 35.9687L36.727 35.953C36.9387 35.0434 37.3271 34.185 37.8698 33.4273C39.1527 31.6359 41.1403 30.5679 43.188 30.5679C44.3439 30.5604 45.4724 30.9217 46.4118 31.6001C47.094 32.1071 47.6536 32.7627 48.049 33.5179C48.4444 34.2732 48.6652 35.1087 48.6952 35.962C49.0531 36.0336 50.2515 36.1456 51.5855 34.8088C53.1729 33.2123 54 27.3368 54 25.1312C54 22.9257 50.7673 17.3457 48.8041 15.9507ZM19.3184 18.4474C19.1521 18.5838 18.9437 18.6575 18.7292 18.6556H16.5215L16.2992 20.3887H18.3001C18.4645 20.3865 18.6234 20.4474 18.7448 20.5589C18.808 20.6143 18.858 20.6833 18.8911 20.7609C18.9242 20.8384 18.9396 20.9224 18.936 21.0067C18.9363 21.1075 18.9146 21.2071 18.8723 21.2985C18.8301 21.3898 18.7683 21.4706 18.6915 21.5352C18.5324 21.6828 18.323 21.763 18.1067 21.7591H16.1057L15.7544 24.2736C15.7222 24.4647 15.6198 24.6365 15.4676 24.7551C15.3135 24.8862 15.118 24.9577 14.9163 24.9566C14.8235 24.9599 14.7312 24.9437 14.645 24.909C14.5589 24.8743 14.4809 24.8218 14.416 24.7551C14.3551 24.6924 14.3098 24.6161 14.2839 24.5324C14.258 24.4487 14.2522 24.36 14.267 24.2736L15.1275 18.0712C15.1675 17.8672 15.2767 17.6835 15.4365 17.5517C15.6037 17.3952 15.8242 17.3095 16.0524 17.3121H18.9294C19.0156 17.3097 19.1015 17.3249 19.1817 17.3569C19.262 17.3888 19.3349 17.4368 19.3962 17.498C19.4562 17.5531 19.5042 17.6202 19.5371 17.695C19.57 17.7698 19.5872 17.8506 19.5875 17.9324C19.5854 18.0336 19.5598 18.1329 19.5127 18.2224C19.4656 18.3118 19.3983 18.3889 19.3162 18.4474H19.3184ZM25.2013 20.7783C24.8586 21.1879 24.4016 21.4843 23.8896 21.6292L25.0368 23.8325C25.1063 23.9537 25.127 24.0972 25.0946 24.2333C25.0649 24.363 25.0046 24.4836 24.919 24.5849C24.8335 24.6898 24.7276 24.776 24.6077 24.8379C24.4946 24.8984 24.3689 24.9314 24.2409 24.9342C24.1218 24.943 24.0029 24.9162 23.8989 24.8573C23.7949 24.7983 23.7105 24.7098 23.6561 24.6028L22.2643 21.7882H21.544L21.2038 24.2378C21.1694 24.4327 21.0649 24.6081 20.9103 24.7304C20.7576 24.8683 20.5595 24.9441 20.3545 24.9431C20.2629 24.946 20.1717 24.9289 20.0873 24.8929C20.0029 24.857 19.9272 24.8031 19.8654 24.7349C19.8035 24.6697 19.7577 24.5907 19.7318 24.5043C19.7059 24.4179 19.7006 24.3266 19.7164 24.2378L20.5768 18.0779C20.6095 17.8645 20.7216 17.6716 20.8903 17.5383C21.0571 17.3932 21.2703 17.3137 21.4906 17.3144H23.3382C23.7155 17.3048 24.0915 17.3608 24.4499 17.4801C24.7208 17.576 24.9686 17.7287 25.1769 17.9279C25.3568 18.1015 25.4919 18.3167 25.5704 18.5549C25.6477 18.7888 25.6867 19.0338 25.686 19.2804C25.7032 19.8217 25.5309 20.352 25.1991 20.7783H25.2013ZM31.2043 18.4586C31.0405 18.5964 30.833 18.6703 30.6196 18.6668H28.4118L28.1672 20.3887H30.1682C30.336 20.3857 30.4987 20.4465 30.624 20.5589C30.6872 20.6143 30.7372 20.6833 30.7703 20.7609C30.8034 20.8384 30.8188 20.9224 30.8152 21.0067C30.816 21.108 30.7939 21.2082 30.7508 21.2997C30.7077 21.3912 30.6446 21.4717 30.5662 21.5352C30.405 21.6821 30.1945 21.7621 29.977 21.7591H27.976L27.7315 23.5034H30.046C30.2192 23.4987 30.3875 23.5622 30.5151 23.6803C30.5752 23.7324 30.6235 23.797 30.6565 23.8696C30.6895 23.9423 30.7065 24.0213 30.7063 24.1012C30.7018 24.2018 30.6757 24.3002 30.6296 24.3895C30.5835 24.4789 30.5186 24.557 30.4395 24.6185C30.2795 24.7645 30.0707 24.8445 29.8547 24.8424H27.0422C26.9191 24.8433 26.7961 24.8313 26.6754 24.8066C26.5667 24.785 26.4637 24.7408 26.373 24.6767C26.2914 24.6209 26.2268 24.5434 26.1863 24.4528C26.1468 24.3377 26.1376 24.2142 26.1596 24.0945L27 18.0735C27.0375 17.8696 27.1464 17.6861 27.3068 17.5562C27.4736 17.3989 27.6942 17.3123 27.9227 17.3144H30.7952C30.881 17.3122 30.9663 17.3278 31.0458 17.3601C31.1254 17.3925 31.1975 17.4409 31.2577 17.5025C31.3165 17.5578 31.3633 17.6247 31.3955 17.6991C31.4276 17.7734 31.4442 17.8536 31.4444 17.9346C31.4457 18.0356 31.4237 18.1355 31.3801 18.2264C31.3365 18.3173 31.2725 18.3968 31.1932 18.4586H31.2043ZM36.6626 18.4586C36.4988 18.5964 36.2912 18.6703 36.0778 18.6668H33.8701L33.6255 20.3887H35.6265C35.7904 20.3885 35.9487 20.4491 36.0711 20.5589C36.1344 20.6143 36.1844 20.6833 36.2175 20.7609C36.2506 20.8384 36.2659 20.9224 36.2624 21.0067C36.2631 21.108 36.2411 21.2082 36.198 21.2997C36.1548 21.3912 36.0917 21.4717 36.0133 21.5352C35.8521 21.6821 35.6416 21.7621 35.4242 21.7591H33.4232L33.1786 23.5034H35.4931C35.6656 23.4993 35.8329 23.5627 35.96 23.6803C36.0206 23.732 36.0692 23.7965 36.1022 23.8693C36.1353 23.942 36.152 24.0212 36.1512 24.1012C36.1499 24.1999 36.1276 24.2971 36.0858 24.3863C36.044 24.4756 35.9836 24.5547 35.9088 24.6185C35.7486 24.7642 35.54 24.8441 35.3241 24.8424H32.5094C32.3869 24.8432 32.2647 24.8312 32.1448 24.8066C32.0361 24.785 31.9331 24.7408 31.8424 24.6767C31.7597 24.6221 31.6948 24.5442 31.6556 24.4528C31.6146 24.338 31.6054 24.2142 31.629 24.0945L32.4672 18.0735C32.5066 17.8698 32.616 17.6867 32.7762 17.5562C32.943 17.3989 33.1635 17.3123 33.392 17.3144H36.269C36.3548 17.3122 36.4401 17.3278 36.5196 17.3601C36.5992 17.3925 36.6713 17.4409 36.7315 17.5025C36.7903 17.5578 36.8372 17.6247 36.8693 17.6991C36.9014 17.7734 36.9181 17.8536 36.9182 17.9346C36.9172 18.0368 36.8925 18.1374 36.8462 18.2283C36.7999 18.3193 36.7332 18.3981 36.6514 18.4586H36.6626ZM48.9108 24.8424H41.5894C41.4509 24.8423 41.314 24.8128 41.1876 24.7558C41.0612 24.6988 40.9482 24.6157 40.8559 24.5117C40.7636 24.4077 40.6941 24.2853 40.6519 24.1525C40.6097 24.0196 40.5959 23.8793 40.6112 23.7407L41.2359 18.1877C41.2632 17.9456 41.378 17.7221 41.5584 17.5598C41.7389 17.3975 41.9723 17.3078 42.2142 17.3077H43.7861C44.5633 17.3041 45.3336 17.4558 46.0522 17.754C46.7708 18.0523 47.4235 18.4912 47.9726 19.0452C48.3812 19.4635 48.7636 19.907 49.1176 20.3731C51.1919 23.0959 51.0274 24.8424 48.9108 24.8424Z" fill="#00284F"/>
<path d="M3 22C4.10457 22 5 21.1046 5 20C5 18.8954 4.10457 18 3 18C1.89543 18 1 18.8954 1 20C1 21.1046 1.89543 22 3 22Z" fill="#00284F"/>
<path d="M45.9894 35.5128C45.9621 34.9577 45.8362 34.4167 45.6205 33.9278C45.4049 33.4389 45.1048 33.0138 44.7412 32.6826C44.2278 32.2313 43.6108 31.9923 42.9795 32.0002C42.3531 32.0216 41.7396 32.2238 41.1885 32.5904C40.6375 32.957 40.1644 33.4778 39.8074 34.1106C39.5554 34.5409 39.3572 35.0151 39.2196 35.5175C38.7157 37.3301 39.086 39.2693 40.2598 40.3175C40.7736 40.7678 41.3903 41.0066 42.0214 40.9999C42.6479 40.9788 43.2615 40.7768 43.8126 40.4101C44.3637 40.0435 44.8368 39.5225 45.1935 38.8895C45.7775 37.9162 46.0597 36.7189 45.9894 35.5128Z" fill="#00284F"/>
<path d="M22.5618 32.6826C21.975 32.2313 21.2699 31.9923 20.5484 32.0002C19.8325 32.0216 19.1313 32.2238 18.5015 32.5904C17.8717 32.957 17.331 33.4778 16.9231 34.1106C16.6283 34.5522 16.3974 35.0392 16.2381 35.555C15.6819 37.3559 16.1072 39.2857 17.44 40.3175C18.0273 40.7678 18.7321 41.0066 19.4534 40.9999C20.1694 40.9788 20.8707 40.7768 21.5005 40.4101C22.1304 40.0435 22.6711 39.5225 23.0788 38.8895C23.738 37.926 24.0608 36.7439 23.9906 35.5503C23.9636 34.9887 23.8216 34.4404 23.5746 33.9447C23.3276 33.4489 22.9817 33.0179 22.5618 32.6826Z" fill="#00284F"/>
<path d="M24.7307 19.2701C24.6133 19.178 24.4753 19.111 24.3265 19.0738C24.117 19.0196 23.8997 18.995 23.6821 19.0009H22.2977L22 20.9965H23.4609C23.8658 21.021 24.2676 20.9171 24.5996 20.702C24.7328 20.6016 24.8383 20.4735 24.9076 20.3283C24.9769 20.1831 25.0079 20.0249 24.9983 19.8665C24.999 19.7578 24.9796 19.6497 24.9409 19.5469C24.8959 19.4405 24.8238 19.3456 24.7307 19.2701Z" fill="#00284F"/>
</svg>
