<svg width="54" height="54" viewBox="0 0 54 54" fill="none" xmlns="http://www.w3.org/2000/svg">
<path d="M29.958 8.83668C28.8288 8.28699 27.5841 8.00085 26.3221 8.00085C25.0601 8.00085 23.8153 8.28699 22.6862 8.83668L12.5177 13.7849C11.1605 14.4443 10.0188 15.4598 9.22073 16.7173C8.42268 17.9748 7.99994 19.4243 8 20.9032V33.1064C8.00061 34.5833 8.42291 36.0309 9.21956 37.2869C10.0162 38.5429 11.1557 39.5577 12.5105 40.2176L22.6789 45.1658C23.8084 45.7145 25.053 46 26.3148 46C27.5766 46 28.8212 45.7145 29.9507 45.1658L30.0256 45.1305C29.0018 44.1821 28.1866 43.0404 27.6296 41.7749C27.0726 40.5095 26.7856 39.1466 26.7859 37.7695C26.7898 35.0724 27.8901 32.4869 29.8457 30.58C31.8013 28.6731 34.4524 27.6005 37.2177 27.5974C38.5992 27.5955 39.9672 27.8621 41.2418 28.3816C42.5165 28.901 43.6723 29.663 44.6417 30.6229V20.8961C44.6418 19.4173 44.219 17.9677 43.421 16.7102C42.6229 15.4528 41.4812 14.4373 40.124 13.7778L36.9423 12.2321L19.9151 18.7331C19.4233 18.9214 19.001 19.2498 18.7033 19.6756C18.4055 20.1013 18.2461 20.6046 18.2458 21.12V29.9843L15.4095 27.2463L13.4043 28.104V19.5978C13.4053 18.8518 13.6362 18.1234 14.067 17.507C14.4978 16.8906 15.1086 16.4147 15.8202 16.1412L32.0477 9.84988" fill="#00284F"/>
<path d="M44.4277 34.9134C43.845 33.5162 42.8488 32.32 41.5661 31.4773C40.2835 30.6346 38.7725 30.1837 37.226 30.182C35.1651 30.1839 33.1892 30.983 31.7317 32.4041C30.2742 33.8252 29.4542 35.7521 29.4517 37.7622C29.4521 38.9507 29.7389 40.1225 30.2891 41.183C30.8393 42.2435 31.6373 43.163 32.6189 43.8673C33.9524 44.829 35.5676 45.3469 37.226 45.3447C39.2871 45.3422 41.263 44.5425 42.7204 43.121C44.1778 41.6996 44.9977 39.7724 45.0003 37.7622C45.0004 36.7854 44.806 35.8179 44.4277 34.9134ZM35.8972 33.1556C35.8972 32.8119 36.0372 32.4823 36.2864 32.2393C36.5356 31.9962 36.8736 31.8597 37.226 31.8597C37.5784 31.8597 37.9163 31.9962 38.1655 32.2393C38.4147 32.4823 38.5547 32.8119 38.5547 33.1556V36.4544H40.2458C40.598 36.4551 40.9356 36.5918 41.1847 36.8347C41.4337 37.0776 41.5739 37.4069 41.5746 37.7504C41.5746 38.0941 41.4346 38.4237 41.1854 38.6668C40.9362 38.9098 40.5982 39.0463 40.2458 39.0463H37.226C36.8736 39.0463 36.5356 38.9098 36.2864 38.6668C36.0372 38.4237 35.8972 38.0941 35.8972 37.7504V33.1556Z" fill="#00284F"/>
</svg>
