<svg width="54" height="54" viewBox="0 0 54 54" fill="none" xmlns="http://www.w3.org/2000/svg">
<path d="M52.6316 16.8808L45.2313 8.41386C45.0698 8.23017 44.8545 8.09907 44.6143 8.03816C44.3742 7.97726 44.1207 7.98948 43.8878 8.07317C43.655 8.15685 43.454 8.308 43.3119 8.50632C43.1697 8.70463 43.0932 8.94059 43.0927 9.18253V12.3516H29.1985C29.1463 12.3516 29.0963 12.3717 29.0591 12.4074C29.022 12.4432 29.0009 12.4918 29.0002 12.5426C29.0003 12.5891 29.0175 12.6339 29.0487 12.669C29.08 12.7041 29.1231 12.727 29.1702 12.7336C35.1919 13.5829 40.0664 17.7024 41.5512 23.3616H43.0927V26.5284C43.0919 26.771 43.1676 27.0078 43.3096 27.207C43.4516 27.4062 43.6529 27.558 43.8863 27.6419C44.1197 27.7258 44.3739 27.7377 44.6145 27.676C44.8551 27.6143 45.0704 27.4821 45.2313 27.2971L52.6316 18.8324C52.8694 18.5602 53 18.2142 53 17.8566C53 17.499 52.8694 17.1531 52.6316 16.8808Z" fill="#00284F"/>
<path d="M12.5385 30.9681C12.5113 30.8716 12.4525 30.7864 12.3712 30.7254C12.2898 30.6643 12.1903 30.6308 12.0876 30.6298H10.9073V27.4677C10.9076 27.2253 10.8315 26.9888 10.6894 26.79C10.5472 26.5912 10.3459 26.4397 10.1126 26.3561C9.87929 26.2725 9.62528 26.2608 9.38492 26.3225C9.14456 26.3843 8.92945 26.5165 8.76868 26.7013L1.36839 35.166C1.1306 35.4382 1 35.7842 1 36.1418C1 36.4994 1.1306 36.8453 1.36839 37.1176L8.76868 45.5822C8.92945 45.767 9.14456 45.8993 9.38492 45.961C9.62528 46.0228 9.87929 46.011 10.1126 45.9274C10.3459 45.8438 10.5472 45.6924 10.6894 45.4936C10.8315 45.2948 10.9076 45.0582 10.9073 44.8159V41.6468H24.7991C24.8519 41.6468 24.9026 41.6265 24.9401 41.5903C24.9777 41.5541 24.9991 41.505 24.9997 41.4535C24.9996 41.4067 24.982 41.3616 24.9503 41.3264C24.9187 41.2913 24.875 41.2686 24.8274 41.2624C18.9119 40.4201 14.1224 36.4571 12.5385 30.9681Z" fill="#00284F"/>
<path d="M26.9945 15.5642C25.4555 15.5639 23.9315 15.8592 22.5096 16.4332C21.0877 17.0071 19.7956 17.8486 18.7073 18.9095C17.6189 19.9704 16.7556 21.2299 16.1666 22.6161C15.5776 24.0023 15.2744 25.4881 15.2744 26.9885C15.2741 28.2264 15.4806 29.4562 15.8858 30.6294C16.6679 32.8979 18.1609 34.8696 20.154 36.2666C22.1471 37.6635 24.5398 38.415 26.9945 38.4151C30.1024 38.4145 33.0829 37.2104 35.2803 35.0675C37.4777 32.9247 38.7122 30.0186 38.7122 26.9885C38.7127 25.7554 38.5078 24.5305 38.1055 23.3614C37.3253 21.0904 35.8328 19.1159 33.8391 17.7168C31.8453 16.3176 29.451 15.5646 26.9945 15.5642ZM26.173 24.984H27.6696C28.9146 24.984 30.1087 25.4658 30.9895 26.3237C31.8704 27.1816 32.3658 28.3453 32.3671 29.5592C32.3654 30.6064 31.9958 31.6214 31.3197 32.4351C30.6436 33.2488 29.7019 33.812 28.6516 34.0309V34.6546C28.6516 35.0818 28.4775 35.4916 28.1676 35.7937C27.8577 36.0958 27.4374 36.2656 26.9992 36.2656C26.561 36.2656 26.1407 36.0958 25.8308 35.7937C25.5209 35.4916 25.3468 35.0818 25.3468 34.6546V34.1414H23.2861C22.8478 34.1414 22.4276 33.9716 22.1177 33.6695C21.8078 33.3674 21.6337 32.9576 21.6337 32.5304C21.6337 32.1031 21.8078 31.6933 22.1177 31.3912C22.4276 31.0891 22.8478 30.9194 23.2861 30.9194H27.6767C28.044 30.9187 28.3961 30.7762 28.6558 30.523C28.9155 30.2698 29.0617 29.9265 29.0623 29.5684C29.0617 29.2101 28.9156 28.8666 28.6559 28.613C28.3963 28.3594 28.0442 28.2164 27.6767 28.2152H26.1801C24.9739 28.2158 23.8168 27.7495 22.9629 26.9188C22.1091 26.0881 21.6285 24.9609 21.6266 23.7849C21.6239 22.7479 21.9938 21.7427 22.6721 20.9439C23.3504 20.1451 24.2943 19.6031 25.3397 19.4122V19.2097C25.3397 18.7824 25.5138 18.3726 25.8237 18.0705C26.1336 17.7684 26.5539 17.5987 26.9921 17.5987C27.4304 17.5987 27.8506 17.7684 28.1605 18.0705C28.4704 18.3726 28.6445 18.7824 28.6445 19.2097V19.3339H30.7147C31.1529 19.3339 31.5732 19.5037 31.8831 19.8058C32.193 20.1079 32.3671 20.5177 32.3671 20.9449C32.3671 21.3722 32.193 21.782 31.8831 22.0841C31.5732 22.3862 31.1529 22.5559 30.7147 22.5559H26.1801C25.851 22.5566 25.5355 22.6843 25.3028 22.9112C25.0701 23.1381 24.9391 23.4456 24.9385 23.7665C24.9372 24.0874 25.0664 24.3957 25.2978 24.6238C25.5292 24.852 25.8439 24.9815 26.173 24.984Z" fill="#00284F"/>
</svg>
